<?xml version="1.0" encoding="UTF-8"?>
<svg id="Capa_1" data-name="Capa 1" xmlns="http://www.w3.org/2000/svg" version="1.1" viewBox="0 0 384.94 410.92">
  <defs>
    <style>
      .cls-1 {
        fill: #fff;
        stroke-width: 0px;
      }
    </style>
  </defs>
  <path class="cls-1" d="M160.42,27.74c1.88-12.91,8.91-19.03,21.49-19.03,36.35,0,72.69,0,109.04,0,13.31,0,19.99,5.63,22.25,19.03,12.07,0,24.21-.18,36.34.1,4.28.1,8.76.73,12.77,2.16,12.56,4.49,20.36,16.24,20.38,30.12.06,31.85.02,63.69.02,95.54,0,70.43-.3,140.87.19,211.3.14,20.24-14.39,35.4-35.45,35.26-74.01-.5-148.03-.19-222.05-.2-21.45,0-34.56-13.11-34.57-34.55,0-33.17,0-66.34,0-99.51v-5.5c-1.16,1.88-1.83,2.87-2.4,3.91-7.35,13.43-14.7,26.86-22,40.32-1.72,3.18-3.21,6.64-7.61,6.46-4.45-.18-5.57-3.78-6.9-7.15-3.1-7.85-6.27-15.67-9.51-23.73-10.53,1.69-20.95,3.28-31.33,5.09-3.13.55-5.82.34-7.81-2.33-2.18-2.91-1.16-5.66.52-8.44,10.72-17.74,21.4-35.51,32.09-53.27.81-1.34,1.58-2.71,2.34-4.03-50.43-52.62-13.7-136.5,52.63-140.8,0-2.3.17-4.65-.03-6.97-2.65-30.93,12.32-46.35,44.02-43.87,8.39.66,16.88.1,25.59.1ZM128.91,309.57c0,15.27,0,29.93,0,44.59,0,8.16,1.61,9.8,9.63,9.8,65.41,0,130.83,0,196.24,0,8.31,0,9.86-1.57,9.86-9.97,0-92.75,0-185.5,0-278.25,0-1.32.08-2.65-.06-3.96-.36-3.29-2.24-5.71-5.48-5.81-8.67-.27-17.36-.09-25.98-.09-1.71,11.65-8.66,18.86-18.73,18.89-38.45.13-76.91.11-115.36,0-8.54-.03-15.63-6.06-17.75-14.37-.38-1.48-.65-2.98-1-4.59-8.4,0-16.58-.09-24.77.04-4.15.06-6.43,2.57-6.57,6.84-.09,2.77.2,5.57-.08,8.32-.32,3,.98,4.32,3.59,5.57,38.95,18.61,57,63.58,41.88,103.97-4.04,10.79-10.29,20.17-18.24,28.57.74,1.27,1.38,2.41,2.05,3.53,10.81,17.99,21.62,35.98,32.46,53.95,1.68,2.78,2.67,5.54.49,8.44-2,2.66-4.68,2.85-7.82,2.31-10.37-1.81-20.79-3.39-31.32-5.08-3.38,8.45-6.65,16.66-9.95,24.85-2.84,7.03-7.05,8.01-13.08,2.46ZM104.28,263.34c-.25.11-.5.21-.75.32,0,34.48,0,68.97,0,103.45,0,14.89,7.27,22.22,22.04,22.22,74.14,0,148.29,0,222.43,0,14.61,0,22.02-7.35,22.02-21.85,0-74.39,0-148.79,0-223.18,0-27.48,0-54.97,0-82.45,0-13.81-7.55-21.41-21.24-21.43-10.71,0-21.41,0-32.12,0-1.15,0-2.3.12-3.47.18v12.5c8.06,0,15.84-.02,23.62,0,12.62.04,20.51,7.91,20.51,20.56.01,94.08.01,188.16,0,282.25,0,12.89-7.85,20.71-20.77,20.71-66.48.01-132.96.01-199.43,0-13.16,0-20.89-7.77-20.9-20.97-.01-22.33,0-44.66-.02-66.99,0-1.42.09-3.05-.52-4.23-3.69-7.09-7.58-14.08-11.4-21.1ZM236.91,72.14c18.37,0,36.74.01,55.12,0,5.98,0,8.19-2.17,8.2-8.06.03-11.5.02-22.99,0-34.49-.01-5.98-2.16-8.19-8.06-8.19-36.88-.02-73.75-.01-110.63,0-5.99,0-8.18,2.16-8.2,8.05-.03,11.36-.02,22.73,0,34.09,0,6.52,2.04,8.59,8.46,8.59,18.37.01,36.74,0,55.12,0ZM97.32,91.18c-38.42-.05-69.88,31.62-69.92,70.36-.03,38.27,31.25,69.21,69.94,69.2,38.74-.02,69.62-30.81,69.64-69.44.02-38.56-31.29-70.07-69.67-70.12ZM47.89,227.93c-8.79,14.64-17.73,29.51-27.01,44.96,8.04-1.31,15.32-2.46,22.59-3.69,5.41-.91,7.39.12,9.49,5.25,2.28,5.57,4.53,11.16,7.08,17.47,9.14-16.75,17.88-32.78,26.53-48.64-6.79-1.97-13.53-3.41-19.85-5.91-6.33-2.51-12.24-6.08-18.83-9.44ZM107.88,243.41c8.63,15.81,17.35,31.8,26.46,48.51,2.57-6.36,4.81-11.95,7.1-17.52,2.1-5.12,4.06-6.12,9.49-5.21,7.28,1.22,14.58,2.35,22.56,3.63-9.36-15.55-18.29-30.37-26.93-44.73-6.6,3.38-12.49,6.98-18.82,9.49-6.29,2.49-13.02,3.88-19.86,5.84ZM160.46,40.51c-13.49,0-26.68-.32-39.84.11-8.49.28-15.88,7.28-16.72,15.87-.72,7.27-.15,14.67-.15,22.17,4.19.65,8.17,1.27,12.48,1.94,0-1.76.13-3.34-.02-4.9-1.28-13.66,8.35-23.73,22.82-22.69,7.05.51,14.17.09,21.43.09v-12.6Z"/>
  <path class="cls-1" d="M249.65,135.31v-12.21h81.98v12.21h-81.98Z"/>
  <path class="cls-1" d="M249.65,154.34v-12.21h81.98v12.21h-81.98Z"/>
  <path class="cls-1" d="M331.76,186.55v12.18h-82.02v-12.18h82.02Z"/>
  <path class="cls-1" d="M249.66,217.78v-12.22h81.98v12.22h-81.98Z"/>
  <path class="cls-1" d="M249.65,262.18v-12.2h81.98v12.2h-81.98Z"/>
  <path class="cls-1" d="M331.77,269.07v12.22h-81.98v-12.22h81.98Z"/>
  <path class="cls-1" d="M249.66,325.63v-12.22h81.98v12.22h-81.98Z"/>
  <path class="cls-1" d="M331.78,332.52v12.2h-81.98v-12.2h81.98Z"/>
  <path class="cls-1" d="M225.58,245.73c3.34,2.79,6.35,5.3,9.7,8.1-5.3,6.38-10.47,12.61-15.65,18.84-1.68,2.03-3.31,4.11-5.08,6.05-3.41,3.73-7.14,3.76-10.47-.02-3.39-3.85-6.61-7.86-10.2-12.15,3.15-2.65,6.24-5.24,9.65-8.1,1.89,2.19,3.66,4.23,5.79,6.7,5.41-6.46,10.68-12.76,16.26-19.42Z"/>
  <path class="cls-1" d="M193.86,329.98c3.3-2.75,6.32-5.27,9.63-8.04,1.98,2.22,3.85,4.32,5.88,6.6,5.42-6.48,10.65-12.73,16.17-19.33,3.19,2.63,6.29,5.18,9.75,8.03-5.22,6.29-10.3,12.42-15.39,18.55-1.77,2.13-3.48,4.31-5.34,6.35-3.41,3.75-7.14,3.79-10.47.02-3.39-3.85-6.61-7.86-10.23-12.19Z"/>
  <path class="cls-1" d="M193.87,139.66c3.36-2.81,6.46-5.4,9.68-8.08,2.04,2.36,3.82,4.42,5.78,6.69,5.45-6.51,10.68-12.76,16.26-19.43,3.24,2.72,6.4,5.36,9.71,8.13-7.15,8.57-13.98,16.92-21.01,25.1-3.12,3.62-6.95,3.46-10.17-.2-3.4-3.85-6.61-7.86-10.25-12.21Z"/>
  <path class="cls-1" d="M193.87,203.1c3.24-2.71,6.33-5.3,9.63-8.05,1.98,2.24,3.77,4.28,5.85,6.64,5.43-6.49,10.71-12.8,16.23-19.4,3.27,2.73,6.36,5.32,9.72,8.14-7.25,8.66-14.22,17.2-21.46,25.51-2.79,3.21-6.65,2.86-9.62-.49-3.48-3.93-6.76-8.04-10.36-12.34Z"/>
  <path class="cls-1" d="M160.64,160.84c.05,35.03-28.5,63.59-63.54,63.55-34.86-.03-63.32-28.48-63.35-63.33-.04-35.06,28.46-63.57,63.53-63.54,34.86.03,63.32,28.46,63.36,63.32ZM97.32,211.7c27.87-.05,50.63-22.88,50.63-50.78,0-27.87-22.81-50.69-50.69-50.72-28.06-.03-50.91,22.89-50.83,50.97.08,27.83,22.99,50.57,50.88,50.52Z"/>
  <path class="cls-1" d="M133.47,140.97c-1.76,1.46-3.82,2.92-5.59,4.67-12.37,12.28-24.67,24.63-37,36.95-5.73,5.73-9.66,5.05-13.33-2.3-3.76-7.53-7.5-15.07-11.36-22.82,3.75-1.88,7.26-3.65,11.27-5.66,2.9,5.74,5.72,11.32,8.66,17.14,12.75-12.76,25.28-25.31,38-38.03,3.12,3.35,5.79,6.22,9.35,10.05Z"/>
</svg>