<?xml version="1.0" encoding="UTF-8"?>
<svg id="Capa_1" data-name="Capa 1" xmlns="http://www.w3.org/2000/svg" version="1.1" viewBox="0 0 384.94 410.92">
  <defs>
    <style>
      .cls-1 {
        fill: #fff;
        stroke-width: 0px;
      }
    </style>
  </defs>
  <path class="cls-1" d="M156.38,410.92c-.51-.38-1-.8-1.54-1.12-6.38-3.82-7.54-10.84-2.35-16.17,8.56-8.79,17.27-17.45,26.03-26.04,4.36-4.28,10.36-4.35,14.34-.46,4.09,4,4.09,10.18-.29,14.64-8.51,8.66-17.12,17.22-25.76,25.74-1.38,1.36-3.2,2.29-4.81,3.42h-5.62Z"/>
  <path class="cls-1" d="M78.53,410.92c-9.09-5.45-9.83-11.66-2.27-19.23,8.03-8.04,15.97-16.16,24.14-24.06,6.07-5.88,15.37-3.52,16.86,4.46.51,2.75-.36,6.8-2.19,8.78-8.82,9.49-18.17,18.49-27.39,27.6-1,.99-2.35,1.65-3.53,2.46h-5.62Z"/>
  <path class="cls-1" d="M288.27,198.81c12.37,7.68,21.02,18.41,25.29,32.42,11.03,36.24-16.04,73.4-54.02,73.68-43.33.31-86.67.09-130.01.09-20.33,0-40.66.12-60.99-.03C30.45,304.69-.16,273.66,0,235.64c.12-28.21,17.88-53.86,44.26-63.91,1.37-.52,2.74-1.05,4.1-1.57.75-38.41,17.85-66.33,54.49-78.96,33.35-11.49,62.23-1.36,86.01,24.11,14.45-33.59,39.36-50.88,76.5-46.74,27.43,3.06,50.74,24.08,56.98,50.76,8.05,34.45-4.78,60.55-34.07,79.48ZM68.74,166.65c5.09.68,9.63,1.05,14.06,1.92,12.49,2.44,23.44,8.06,32.77,16.71,4.42,4.1,4.68,10.21.91,14.35-3.74,4.11-9.32,4.39-14.06.7-1.05-.82-2.04-1.73-3.08-2.57-16.07-12.84-38.8-14.09-56.3-3.1-17.56,11.03-26.27,31.9-21.69,52.03,5.09,22.37,24.41,38.16,47.36,38.2,63.12.11,126.24.04,189.36.03.53,0,1.07-.02,1.6-.03,18.82-.64,34.42-15.22,36.21-33.86,1.76-18.33-10.51-34.99-28.92-39.26-8.26-1.92-10.7-5.15-10.45-13.89.83-29.18-27.57-50.09-55.23-40.66-9.58,3.27-14.24.94-17.27-8.64-12.49-39.52-59.47-54.56-92.31-29.29-15.34,11.8-22.77,27.8-22.97,47.36ZM275.15,182.16c22.69-8.99,34.84-36.15,27.14-60.12-7.96-24.77-34.17-39.2-59.29-32.64-21.37,5.59-39.78,28.74-36.41,45.81,32.1-3.56,60.32,15.94,68.56,46.95Z"/>
  <path class="cls-1" d="M284.2,11.64c-1.41,9.5-3,20.19-4.6,30.88-.39,2.64-.72,5.3-1.25,7.91-1.13,5.55-6.11,9.01-11.51,8.12-5.3-.88-9-5.92-8.21-11.48,1.78-12.42,3.67-24.82,5.52-37.23.66-4.4,2.62-7.82,7.09-9.32,6.57-2.21,13.08,2.76,12.95,11.11Z"/>
  <path class="cls-1" d="M338.93,114.39c-5.09-.07-9.07-3.27-10.04-7.67-1.08-4.94.99-9.4,5.82-11.45,6.98-2.97,14.09-5.66,21.16-8.44,5.08-2,10.14-4.08,15.29-5.92,5.51-1.97,10.93.38,12.98,5.39,2.08,5.09.03,10.76-5.35,12.99-12.19,5.04-24.52,9.75-36.81,14.54-1.1.43-2.35.45-3.05.57Z"/>
  <path class="cls-1" d="M365.95,216.07c-.23,5.27-2.08,8.39-5.75,10.15-3.83,1.84-7.53,1.25-10.87-1.4-8.88-7.05-17.76-14.11-26.63-21.17-1.04-.83-2.11-1.63-3.13-2.49-4.73-4-5.63-9.72-2.25-14.19,3.5-4.64,9.55-5.45,14.53-1.59,10.11,7.86,20.08,15.91,30.09,23.89.62.5,1.32,1.03,1.66,1.71,1.01,1.97,1.86,4.01,2.35,5.08Z"/>
  <path class="cls-1" d="M184.89,92.03c-2.22-1.1-4.69-1.88-6.6-3.37-9.8-7.61-19.49-15.36-29.14-23.16-5.02-4.06-5.89-9.93-2.39-14.45,3.59-4.62,9.76-5.18,14.91-1.13,9.86,7.75,19.68,15.56,29.43,23.44,3.91,3.16,5.06,7.61,3.42,11.8-1.5,3.81-5.3,6.37-9.63,6.87Z"/>
  <path class="cls-1" d="M261.88,329.18c-.67,1.25-1.52,4.06-3.33,5.94-8.52,8.84-17.21,17.51-26.02,26.06-4.42,4.29-10.34,4.11-14.31.02-3.9-4.02-3.85-10.01.42-14.36,8.51-8.66,17.13-17.21,25.75-25.77,3.22-3.2,7.04-4.29,11.35-2.48,3.97,1.67,5.89,4.81,6.14,10.59Z"/>
  <path class="cls-1" d="M58.45,353.99c1.3-2.37,2.18-5.15,3.99-7.03,8.42-8.75,17.05-17.31,25.72-25.82,4.53-4.45,10.6-4.48,14.63-.37,4.08,4.16,3.94,10-.61,14.64-8.43,8.56-16.95,17.03-25.48,25.49-3.21,3.18-6.99,4.33-11.35,2.57-3.68-1.48-6.08-5.07-6.88-9.48Z"/>
  <path class="cls-1" d="M183.84,329.19c-.7,1.25-1.59,4.02-3.4,5.9-8.42,8.74-17.04,17.29-25.7,25.8-4.56,4.48-10.55,4.47-14.62.28-3.96-4.09-3.91-9.91.43-14.32,8.6-8.75,17.31-17.4,26.03-26.03,3.13-3.1,6.92-3.97,11.03-2.22,3.93,1.67,5.9,4.8,6.21,10.59Z"/>
  <path class="cls-1" d="M221.94,58.6c-3.64-.27-6.84-2.23-8.47-6.16-2.66-6.4-5.23-12.85-7.59-19.36-1.91-5.28.5-10.62,5.34-12.69,5.06-2.16,10.77-.09,13.06,5.18,2.86,6.6,5.54,13.3,7.85,20.11,2.2,6.5-2.85,13.02-10.19,12.91Z"/>
  <path class="cls-1" d="M315.84,75.21c-7.89-.72-12.86-9.23-8.56-15.58,4.25-6.29,9.17-12.18,14.17-17.91,3.45-3.96,9.01-4.03,13.09-.89,3.98,3.07,5.37,8.73,2.39,12.9-4.5,6.29-9.4,12.33-14.52,18.14-1.51,1.71-4.34,2.26-6.56,3.34Z"/>
  <path class="cls-1" d="M366.61,166.18c-6.13-.96-13.54-1.88-20.85-3.35-5.13-1.03-8.01-6.05-7.19-11.31.73-4.72,4.95-8.59,9.87-8.1,7.54.75,15.07,1.87,22.5,3.33,5.1,1,8.22,5.94,7.55,10.71-.74,5.31-5.07,8.88-11.89,8.72Z"/>
</svg>