<?xml version="1.0" encoding="UTF-8"?>
<svg id="Capa_1" data-name="Capa 1" xmlns="http://www.w3.org/2000/svg" version="1.1" viewBox="0 0 358.74 401.22">
  <defs>
    <style>
      .cls-1 {
        fill: #fff;
        stroke-width: 0px;
      }
    </style>
  </defs>
  <g>
    <path class="cls-1" d="M70.12,401.22c-6.25,0-11.66-3.46-15.24-9.75-9.66-17-19.28-34.02-28.9-51.04l-11.57-20.46c-1.2-2.12-2.41-4.25-3.62-6.37-2.64-4.65-5.38-9.46-8.02-14.22-5.44-9.81-2.83-19.39,6.81-25.01,4.96-2.89,10.32-5.93,16.42-9.29,3.3-1.82,6.6-2.75,9.82-2.75,6.25,0,11.72,3.51,15.42,9.88.77,1.33,1.53,2.67,2.33,4.09l.44.78s.06-.03.09-.05c.9-.47,1.73-.91,2.54-1.38,4.55-2.62,9.08-5.26,13.62-7.91,10.75-6.26,21.87-12.74,32.97-18.84,5.62-3.09,12.07-5.7,19.15-7.76,3.12-.91,6.28-1.35,9.64-1.35,7.6,0,14.96,2.33,21.79,4.84,17.85,6.58,36.94,13.35,56.76,17.37,6.75,1.37,12.52,5.55,16.25,11.77,3.88,6.47,4.9,14.21,2.81,21.22-.16.54-.34,1.06-.55,1.65.04-.02.08-.04.12-.06,2.09-.95,3.9-1.78,5.59-2.76,17.07-9.89,34.41-20,51.17-29.78l11.16-6.51c9.94-5.8,18.06-9.09,26.31-10.68,2.44-.47,4.86-.71,7.21-.71,13.43,0,23.81,7.61,27.09,19.86,3.33,12.44-1.53,24.81-12.37,31.5-15.43,9.52-30.86,19.03-46.29,28.53-22.55,13.89-45.1,27.79-67.64,41.71-9.03,5.58-18.53,8.41-28.25,8.41-4.81,0-9.79-.69-14.8-2.05-8.52-2.32-17.21-4.61-25.61-6.82-15.72-4.14-31.97-8.42-47.84-13.09-1.87-.55-3.57-.82-5.2-.82-3.45,0-6.57,1.2-10.25,3.99.26.46.52.92.78,1.38,1.03,1.8,2.09,3.67,3.1,5.53,5.25,9.69,2.66,19.17-6.75,24.73-4.96,2.93-10.45,6.04-16.77,9.51-3.25,1.78-6.51,2.68-9.7,2.68ZM35.26,278.25c-.37.09-.65.17-.76.23l-3.55,1.99c-4.67,2.62-9.49,5.33-14.17,8.1-.65.38-1.45.86-.13,3.21,17.3,30.56,34.59,61.12,51.86,91.7,1,1.76,1.75,1.76,2.03,1.76h0c.48,0,1.09-.21,1.81-.64,4.6-2.69,9.59-5.51,15.72-8.89,1.06-.59,1.69-1.18,1.85-1.77.16-.57-.06-1.37-.65-2.37-2.14-3.63-4.23-7.36-6.25-10.97-.95-1.7-1.9-3.39-2.85-5.08l-6.6-11.67c-11.67-20.63-23.74-41.96-35.65-62.91-.49-.87-1.24-1.66-1.96-2.43-.12-.12-.23-.25-.34-.37-.13.03-.24.06-.35.09ZM107,336.44c1.51,0,3.12.24,4.92.73,11.76,3.21,23.74,6.41,35.32,9.5,14.41,3.84,29.31,7.82,43.93,11.87,4.04,1.12,7.99,1.68,11.74,1.68,7.16,0,13.86-1.99,20.46-6.08,25.61-15.87,51.7-31.93,76.93-47.46,12.22-7.53,24.45-15.05,36.67-22.59,5.16-3.19,7.09-8.52,5.27-14.63-1.42-4.78-5.28-7.3-11.16-7.3h-.45c-2.18.05-4.41.1-6.19.81-1.14.45-2.29.9-3.44,1.35-5.43,2.12-11.05,4.31-16.11,7.17-21.8,12.33-43.39,25.04-61.63,35.84-8.62,5.1-17.51,7.69-26.41,7.69-3.46,0-6.99-.39-10.48-1.17-12.99-2.89-26.08-6.26-38.74-9.53-3.41-.88-6.82-1.76-10.23-2.63-2.78-.71-4.86-2.13-6.01-4.1-1.01-1.73-1.24-3.78-.67-5.92.95-3.51,3.78-5.6,7.59-5.6,1.04,0,2.14.16,3.27.46,3.12.85,6.22,1.72,9.33,2.6,5.15,1.45,10.48,2.95,15.74,4.3l1.95.5c5.04,1.31,10.26,2.67,15.42,3.21.5.05.99.08,1.46.08,5.06,0,8.52-3.02,9.25-8.08.78-5.37-2.47-10.18-7.9-11.7-1.23-.34-2.48-.58-3.8-.84-1.59-.31-3.23-.62-4.83-1.13l-.1-.03c-18.09-5.76-36.8-11.72-55.13-17.8-3.71-1.23-7.34-1.85-10.79-1.85s-6.89.63-10.18,1.87c-4.5,1.7-8.7,3.64-12.48,5.79-12.03,6.83-24.2,13.9-35.97,20.73-3.51,2.04-7.01,4.07-10.52,6.11-.37.21-.73.48-1.13.78l29.64,52.38c.64-.36,1.27-.7,1.88-1.03,2.11-1.15,4.1-2.23,5.89-3.48,2.4-1.67,4.92-2.48,7.69-2.48Z"/>
    <path class="cls-1" d="M132.01,241.29c7.22,0,14.27,2.17,21.27,4.75,18.66,6.88,37.39,13.46,56.98,17.44,13.62,2.77,21.9,17.77,17.91,31.09-.38,1.27-.88,2.5-1.76,4.96,3.6-1.73,6.47-2.87,9.11-4.4,20.8-12.06,41.56-24.18,62.33-36.29,8.11-4.73,16.52-8.71,25.84-10.5,2.38-.46,4.69-.68,6.93-.68,12.55,0,22.5,7.01,25.64,18.75,3.14,11.76-1.41,23.48-11.71,29.83-37.97,23.43-75.98,46.79-113.93,70.25-8.79,5.43-17.91,8.19-27.46,8.19-4.69,0-9.49-.66-14.41-2-24.47-6.66-49.1-12.74-73.42-19.9-2.03-.6-3.88-.88-5.62-.88-4.48,0-8.2,1.87-12.19,5.1,1.5,2.67,3.05,5.32,4.5,8.01,4.81,8.89,2.48,17.6-6.19,22.72-5.52,3.26-11.11,6.4-16.73,9.48-3.06,1.68-6.1,2.5-8.98,2.5-5.59,0-10.58-3.09-13.93-9-13.53-23.81-26.98-47.66-40.47-71.49-3.88-6.86-7.81-13.69-11.63-20.58-5.01-9.03-2.62-17.81,6.26-22.99,5.42-3.16,10.89-6.24,16.39-9.28,3.11-1.72,6.18-2.56,9.09-2.56,5.63,0,10.64,3.14,14.12,9.13,1.13,1.95,2.22,3.92,3.47,6.13,1.48-.79,2.75-1.43,3.97-2.14,15.5-8.94,30.88-18.11,46.56-26.73,5.91-3.25,12.36-5.75,18.85-7.63,3.11-.9,6.18-1.29,9.22-1.29M90.98,345.47c3.43-1.96,6.46-3.42,9.19-5.32,2.24-1.56,4.47-2.22,6.83-2.22,1.44,0,2.94.24,4.52.68,26.39,7.21,52.88,14.07,79.25,21.36,4.16,1.15,8.2,1.74,12.14,1.74,7.36,0,14.38-2.05,21.25-6.31,37.81-23.43,75.72-46.7,113.59-70.05,5.75-3.55,7.92-9.62,5.92-16.33-1.59-5.36-6.03-8.38-12.6-8.38-.16,0-.32,0-.48,0-2.25.05-4.67.1-6.71.91-6.67,2.65-13.52,5.09-19.73,8.61-20.69,11.7-41.2,23.74-61.66,35.85-8.16,4.84-16.73,7.48-25.65,7.48-3.33,0-6.72-.37-10.15-1.13-16.4-3.65-32.64-7.99-48.93-12.15-4.59-1.17-6.62-4.4-5.6-8.18.78-2.88,3.04-4.49,6.14-4.49.89,0,1.86.13,2.88.41,8.37,2.28,16.69,4.74,25.09,6.9,5.8,1.49,11.65,3.13,17.58,3.75.55.06,1.1.09,1.62.09,5.99,0,9.92-3.74,10.73-9.37.88-6.06-2.8-11.63-8.98-13.36-2.82-.79-5.8-1.07-8.58-1.96-18.43-5.87-36.86-11.74-55.21-17.82-3.78-1.25-7.53-1.93-11.26-1.93s-7.15.62-10.71,1.96c-4.35,1.64-8.65,3.59-12.69,5.89-15.56,8.84-31.02,17.87-46.5,26.85-.77.45-1.45,1.04-2.34,1.67,10.36,18.3,20.6,36.4,31.03,54.83M70.55,386.75c.76,0,1.6-.28,2.57-.84,5.18-3.03,10.42-5.97,15.68-8.87,2.76-1.52,3.44-3.37,1.76-6.21-3.12-5.29-6.06-10.68-9.09-16.03-14.07-24.87-28.13-49.74-42.25-74.58-.84-1.47-2.19-2.65-3.12-3.75-1.33.39-1.89.45-2.34.71-5.93,3.34-11.88,6.64-17.74,10.11-2.22,1.31-1.78,3.28-.67,5.24,17.3,30.56,34.59,61.12,51.85,91.7.94,1.66,2,2.53,3.33,2.53M132.01,238.29c-3.46,0-6.84.47-10.06,1.41-7.19,2.09-13.74,4.74-19.45,7.88-11.12,6.11-22.25,12.59-33.02,18.87-4.45,2.59-9.06,5.28-13.6,7.89-.42.24-.85.48-1.3.72-.7-1.24-1.37-2.43-2.06-3.61-3.97-6.85-9.91-10.63-16.71-10.63-3.48,0-7.03.99-10.55,2.93-6.11,3.38-11.49,6.43-16.45,9.31-10.27,5.98-13.16,16.6-7.37,27.04,2.64,4.76,5.37,9.56,8.01,14.2,1.21,2.13,2.43,4.27,3.63,6.4,3.86,6.83,7.73,13.66,11.59,20.49,9.45,16.72,19.23,34.02,28.88,51.01,3.85,6.78,9.73,10.51,16.54,10.51,3.44,0,6.95-.96,10.42-2.86,6.34-3.48,11.85-6.59,16.82-9.53,10.02-5.92,12.89-16.41,7.3-26.73-1.02-1.88-2.08-3.75-3.11-5.56-.04-.07-.08-.14-.12-.21,2.94-2.03,5.51-2.91,8.28-2.91,1.48,0,3.04.25,4.77.76,15.89,4.67,32.15,8.96,47.89,13.1,8.4,2.21,17.08,4.5,25.59,6.81,5.14,1.4,10.25,2.11,15.2,2.11,10,0,19.77-2.91,29.04-8.63,22.59-13.96,45.57-28.12,67.81-41.82,15.38-9.47,30.75-18.95,46.12-28.43,11.42-7.05,16.54-20.06,13.03-33.16-3.46-12.94-14.39-20.97-28.53-20.97-2.44,0-4.97.25-7.5.73-8.43,1.62-16.69,4.97-26.78,10.86l-10.82,6.31c-16.87,9.84-34.32,20.02-51.5,29.98-.81.47-1.66.91-2.56,1.34,1.64-6.99.44-14.51-3.37-20.88-3.89-6.49-10.17-11.03-17.23-12.47-19.71-4-38.74-10.75-56.54-17.31-6.95-2.56-14.47-4.94-22.3-4.94h0ZM63.88,291.51c3.48-2.01,6.95-4.03,10.42-6.05,11.77-6.83,23.93-13.9,35.96-20.73,3.71-2.11,7.84-4.02,12.26-5.69,3.12-1.17,6.37-1.77,9.65-1.77s6.76.6,10.32,1.78c18.32,6.08,37.02,12.03,55.1,17.79l.15.05c1.69.54,3.37.86,5,1.18,1.29.25,2.51.49,3.68.81,4.68,1.31,7.49,5.44,6.82,10.04-.63,4.32-3.46,6.8-7.76,6.8-.42,0-.86-.02-1.31-.07-5.04-.53-10.2-1.87-15.19-3.16l-1.96-.51c-5.24-1.35-10.55-2.84-15.69-4.29-3.06-.86-6.23-1.75-9.36-2.61-1.26-.34-2.49-.52-3.67-.52-4.46,0-7.92,2.57-9.04,6.71-.68,2.54-.4,4.98.82,7.07,1.36,2.33,3.76,3.99,6.93,4.8,3.41.87,6.81,1.75,10.21,2.62,12.68,3.27,25.79,6.65,38.8,9.54,3.6.8,7.23,1.21,10.81,1.21,9.18,0,18.32-2.66,27.18-7.9,18.22-10.79,39.79-23.49,61.61-35.82,4.97-2.81,10.54-4.98,15.92-7.08,1.15-.45,2.3-.9,3.44-1.35,1.53-.61,3.62-.65,5.64-.7.17,0,.31,0,.45,0,3.59,0,8.2,1.08,9.72,6.23,1.61,5.41-.08,10.12-4.62,12.92-12.26,7.56-24.51,15.11-36.77,22.66-25.19,15.51-51.24,31.55-76.82,47.4-6.36,3.94-12.79,5.86-19.67,5.86-3.61,0-7.43-.55-11.34-1.63-14.65-4.05-29.57-8.03-44-11.88-11.56-3.09-23.52-6.28-35.26-9.48-1.93-.53-3.67-.78-5.32-.78-3.09,0-5.88.9-8.55,2.75-1.72,1.2-3.59,2.22-5.75,3.39-.19.11-.39.21-.59.32l-19.93-35.22-8.31-14.68h0ZM17.47,289.92s.05-.03.08-.05c4.65-2.75,9.46-5.46,14.11-8.07,1.16-.65,2.32-1.3,3.47-1.95.57.61,1.13,1.24,1.48,1.85,11.93,20.99,24.02,42.35,35.71,63.01l6.54,11.56c.95,1.68,1.89,3.36,2.83,5.04,2.03,3.63,4.13,7.38,6.28,11.03.5.84.49,1.2.49,1.22,0,0,0,0,0,0,0,0-.2.33-1.12.84-6.15,3.39-11.16,6.22-15.75,8.91-.61.35-.93.42-1.02.43-.09-.06-.36-.29-.75-1-18.42-32.63-36.55-64.66-51.86-91.7-.33-.58-.45-.94-.5-1.13h0Z"/>
  </g>
  <g>
    <path class="cls-1" d="M186.09,242.51c-4.31,0-6.4-3.04-8.02-5.88-1.31-2.3-2.65-4.58-3.99-6.85-2.08-3.54-4.24-7.2-6.23-10.88-.97-1.79-1.65-2.12-2.64-2.12-.39,0-.83.06-1.36.17-4.49.98-9.08,1.75-13.52,2.49-2.21.37-4.43.74-6.64,1.14-1.16.21-2.4.4-3.64.4-2.85,0-5-1.06-6.56-3.25-2.72-3.81-.99-7.49.26-10.18,5.47-11.67,10.98-23.57,16.32-35.07l4.79-10.34c.32-.69.62-1.38.96-2.16l-.72-.32c-1.37-.6-2.61-1.14-3.83-1.7-11.21-5.17-17.24-16-15.75-28.27.14-1.13.28-2.23.53-3.32,1.91-8.31.5-16.38-4.46-25.39-8.36-15.18-6.49-25.94,6.45-37.13,7.23-6.25,11.5-13.86,13.42-23.93,2.85-14.91,11.52-22.27,27.29-23.16.98-.06,1.96-.09,2.95-.12,2.53-.08,4.91-.16,7.23-.62,3.16-.62,6.06-1.68,8.39-3.05,2.3-1.36,4.41-3,6.64-4.74,1.17-.91,2.38-1.85,3.6-2.74C212.52,1.89,218.06,0,223.61,0s11.04,1.88,15.93,5.45c2.37,1.73,4.3,3.17,5.93,4.38q8.05,6.02,16.68,6.46c2.42.12,5.44.28,9.44.59,10.7.83,19.98,8.28,23.09,18.53,1.23,4.06,2.27,8.3,3.09,12.6.82,4.29,2.84,7.79,6.18,10.69,2.69,2.34,5.27,4.86,7.76,7.3l.18.18c8.82,8.62,10.93,20.27,5.65,31.14-1.26,2.59-2.33,4.72-3.23,6.53q-4.81,9.58-3.46,20.41c.21,1.65.44,3.55.7,5.75,1.45,12.54-3.84,21.98-15.72,28.08.29.78.58,1.54.9,2.29l.73,1.7c5.4,12.56,10.79,25.12,16.22,37.66,1.43,3.31,2.37,6.83-.4,10.21-1.54,1.88-3.52,2.79-6.07,2.79-1.31,0-2.65-.24-3.9-.5-1.71-.36-3.43-.71-5.15-1.06-5.01-1.03-10.19-2.09-15.26-3.27-.46-.11-.87-.16-1.21-.16-.83,0-1.49.28-2.34,1.74-2.14,3.64-4.41,7.28-6.61,10.8-1.31,2.1-2.62,4.19-3.91,6.3l-.11.18c-1.77,2.9-3.79,6.2-8.27,6.2-.17,0-.35,0-.53-.02-4.97-.29-6.66-4.24-8.02-7.42-1.45-3.39-2.91-6.74-4.37-10.09-3.08-7.07-6.27-14.37-9.16-21.67-1.57-3.96-3.56-5.71-6.86-6.03l-1.6-.16c-3.05-.31-6.21-.63-9.27-.63-.61,0-1.22.01-1.83.04-.69.03-2.26,1.34-2.85,2.58-6.77,14.18-13.48,28.68-19.98,42.7l-1.73,3.74c-1.41,3.05-3.3,6.32-7.88,6.48-.11,0-.21,0-.32,0ZM170.72,199.97c3.69,0,5.45,1.89,7.78,5.85l6.87,11.72,12.1-26.02c-10.14-.91-17.74-6.36-23.79-17.01-1.03-1.81-2.28-3.58-3.6-5.45-.19-.27-.38-.53-.57-.81l-16.04,34.47c.89-.15,1.76-.3,2.62-.45,3.77-.64,7.27-1.24,10.75-1.87,1.68-.31,2.87-.44,3.88-.44ZM261.7,208.01l7.03-11.27c2.46-3.96,4.28-5.84,7.96-5.84,1.15,0,2.51.18,4.52.6,3.38.71,6.76,1.39,10.41,2.12l2.35.47-12.89-29.92c-.71.95-1.42,1.89-2.14,2.83-2.13,2.8-4.34,5.69-6.18,8.7-5.15,8.4-10.91,13.12-18.48,15.08l7.42,17.23ZM223.61,170.29c3.79,0,7.62.65,11.4,1.93,3.26,1.11,6.57,2.1,9.86,2.95,1.24.32,2.43.49,3.52.49,3.41,0,6.2-1.59,8.52-4.87,2.08-2.94,4.08-6.04,6.02-9.04l.81-1.26c3.57-5.51,8.37-9.55,14.26-12,1.52-.63,3.01-1.3,4.51-1.97,1.3-.58,2.6-1.16,3.91-1.72,8.66-3.67,10.45-6.85,9.12-16.19-.25-1.77-.46-3.57-.66-5.31-.16-1.42-.33-2.84-.51-4.25-1.19-8.89,2.6-16.23,6.27-23.33.42-.82.85-1.64,1.26-2.46,4.31-8.53,3.7-11.96-3.09-17.49-10.27-8.36-16.29-18.84-18.41-32.04-1.36-8.46-4.3-11.04-12.59-11.04h-.77c-14.19,0-25.72-4.33-35.25-13.26-.04-.04-.1-.08-.15-.11-3.32-2.47-5.96-3.61-8.36-3.61s-4.77,1.12-7.49,3.54c-10.18,9.03-21.47,13.42-34.51,13.42-.8,0-1.61-.02-2.43-.05-.12,0-.25,0-.37,0-.52,0-1.08.04-1.78.13-4.52.56-7.44,2.83-8.9,6.93-.7,1.96-1.2,3.95-1.49,5.91-1.78,12-7.44,21.75-16.81,28.99-1.01.78-1.93,1.7-2.9,2.67l-.2.2c-4.02,4-4.79,8.23-2.43,13.29,1.44,3.08,2.69,5.64,4.1,8.1,4.35,7.59,5.74,16,4.14,24.98-.37,2.09-.58,4.21-.79,6.45-.1,1.01-.2,2.03-.31,3.06.08,4.83,2.25,8.16,6.63,10.17,3.02,1.38,6.29,2.8,10.6,4.58,6.52,2.69,11.73,7.07,15.49,13,2.47,3.91,4.44,6.88,6.36,9.64,2.32,3.32,5.13,4.94,8.58,4.94h0c1.06,0,2.21-.16,3.41-.46,3.27-.84,6.58-1.82,9.86-2.93,3.85-1.3,7.74-1.96,11.56-1.96Z"/>
    <path class="cls-1" d="M223.61,1.5c5.16,0,10.31,1.71,15.05,5.16,17.9,13.04,10.84,10,32.82,11.71,10.01.78,18.79,7.64,21.77,17.47,1.24,4.08,2.26,8.25,3.06,12.44.9,4.68,3.1,8.44,6.67,11.54,2.72,2.37,5.3,4.9,7.88,7.43,8.29,8.11,10.38,19.04,5.35,29.42-9.2,18.95-8.44,13.57-6.14,33.52,1.47,12.7-4.38,21.59-16.11,27.17.48,1.24.9,2.45,1.4,3.63,5.64,13.13,11.28,26.26,16.96,39.37,1.28,2.95,2.11,5.87-.18,8.67-1.41,1.72-3.1,2.24-4.91,2.24-1.17,0-2.38-.22-3.6-.47-6.8-1.41-13.61-2.75-20.37-4.32-.57-.13-1.08-.2-1.55-.2-1.59,0-2.64.79-3.64,2.48-3.38,5.76-7.01,11.37-10.5,17.07-1.71,2.8-3.38,5.66-7.1,5.66-.15,0-.29,0-.44-.01-4.06-.24-5.39-3.39-6.74-6.54-4.51-10.56-9.27-21.02-13.5-31.69-1.6-4.04-3.84-6.55-8.11-6.97-3.66-.36-7.35-.8-11.01-.8-.64,0-1.27.01-1.9.04-1.46.07-3.41,1.92-4.14,3.44-7.36,15.43-14.53,30.95-21.72,46.46-1.35,2.91-2.9,5.48-6.57,5.61-.09,0-.18,0-.27,0-3.48,0-5.17-2.4-6.72-5.12-3.37-5.92-6.96-11.72-10.2-17.71-1.06-1.96-2.12-2.91-3.96-2.91-.5,0-1.05.07-1.68.21-6.65,1.46-13.4,2.41-20.11,3.62-1.15.21-2.29.38-3.38.38-2.02,0-3.89-.59-5.34-2.62-2.1-2.94-.96-5.77.4-8.67,7.08-15.12,14.09-30.27,21.11-45.41.5-1.08.97-2.18,1.58-3.56-2.26-1-4.09-1.78-5.9-2.61-10.69-4.93-16.31-15.02-14.89-26.73.13-1.06.27-2.13.51-3.17,2.18-9.48.07-17.94-4.61-26.45-7.96-14.47-6.28-24.55,6.12-35.28,7.84-6.78,12-14.78,13.92-24.78,2.76-14.42,11.17-21.11,25.91-21.95,3.47-.2,7-.1,10.39-.76,3.06-.6,6.19-1.65,8.87-3.23,3.66-2.16,6.89-5.05,10.36-7.56,4.77-3.45,9.97-5.19,15.16-5.19M181.28,31.16c-.78,0-1.57-.02-2.37-.05-.14,0-.29,0-.43,0-.66,0-1.32.06-1.97.14-4.95.61-8.44,3.19-10.13,7.91-.71,2-1.25,4.1-1.57,6.2-1.71,11.51-7,20.89-16.24,28.02-1.16.89-2.2,1.95-3.24,2.99-4.46,4.44-5.37,9.33-2.73,14.99,1.3,2.78,2.64,5.56,4.16,8.22,4.31,7.52,5.48,15.49,3.96,23.97-.56,3.15-.75,6.36-1.13,9.7.06,5.35,2.51,9.32,7.51,11.61,3.52,1.61,7.08,3.12,10.66,4.6,6.25,2.58,11.17,6.7,14.79,12.42,2.07,3.27,4.18,6.52,6.4,9.7,2.6,3.72,5.85,5.58,9.81,5.58,1.2,0,2.46-.17,3.79-.51,3.36-.86,6.69-1.85,9.97-2.97,3.7-1.25,7.39-1.89,11.08-1.89s7.27.61,10.92,1.85c3.28,1.11,6.61,2.11,9.97,2.98,1.37.35,2.67.53,3.9.53,3.92,0,7.13-1.82,9.74-5.51,2.39-3.38,4.62-6.87,6.87-10.35,3.37-5.2,7.84-9.05,13.58-11.43,2.83-1.18,5.61-2.49,8.43-3.69,9.26-3.92,11.44-7.82,10.02-17.79-.45-3.17-.75-6.37-1.17-9.55-1.26-9.41,3.41-17.06,7.38-24.91,4.45-8.81,4.12-13.14-3.48-19.33-10.07-8.19-15.83-18.34-17.87-31.11-1.46-9.13-5.02-12.31-14.07-12.31-.09,0-.19,0-.28,0-.16,0-.33,0-.49,0-13.14,0-24.57-3.82-34.22-12.86-.1-.09-.21-.17-.31-.25-3.39-2.53-6.34-3.88-9.22-3.88-2.77,0-5.49,1.25-8.49,3.92-9.75,8.65-20.78,13.05-33.52,13.05M261.45,211.24c3.05-4.9,5.8-9.3,8.54-13.7,2.34-3.76,3.78-5.13,6.69-5.13,1.14,0,2.49.21,4.22.57,4.92,1.03,9.85,2,15.58,3.16-5.02-11.64-9.71-22.55-14.41-33.45-.46-.16-.93-.32-1.39-.48-3.09,4.23-6.47,8.27-9.19,12.72-4.51,7.35-10.14,13.02-19.3,14.8,3.1,7.2,6.08,14.12,9.27,21.52M150.91,204.69c5.99-1.03,11.1-1.87,16.21-2.8,1.45-.26,2.62-.42,3.61-.42,2.9,0,4.26,1.32,6.48,5.11,2.67,4.55,5.34,9.1,8.32,14.19,4.85-10.44,9.44-20.3,14.24-30.62-12.06-.29-19.38-6.88-24.78-16.38-1.58-2.78-3.57-5.34-5.73-8.52-6.28,13.5-12.17,26.16-18.35,39.44M223.61-1.5h0c-5.86,0-11.71,1.99-16.92,5.75-1.25.9-2.47,1.85-3.64,2.77-2.19,1.71-4.26,3.32-6.48,4.63-2.19,1.29-4.92,2.28-7.92,2.87-2.2.43-4.53.51-7,.59-.97.03-1.98.07-2.98.12-16.34.93-25.72,8.9-28.68,24.38-1.88,9.86-5.87,16.97-12.93,23.08-13.41,11.6-15.44,23.26-6.78,38.99,4.77,8.67,6.14,16.4,4.32,24.33-.27,1.17-.42,2.31-.56,3.48-1.57,12.93,4.79,24.36,16.61,29.81,1.04.48,2.1.95,3.2,1.43-.11.26-.23.51-.34.76l-4.79,10.32c-5.33,11.51-10.85,23.41-16.32,35.08-1.26,2.68-3.36,7.16-.13,11.69,1.84,2.57,4.45,3.88,7.78,3.88,1.36,0,2.68-.2,3.91-.42,2.19-.39,4.44-.77,6.61-1.13,4.47-.75,9.08-1.52,13.61-2.51.42-.09.77-.14,1.04-.14.35,0,.6,0,1.32,1.34,2.01,3.7,4.17,7.38,6.26,10.93,1.32,2.24,2.68,4.55,3.98,6.84,1.32,2.32,3.78,6.64,9.32,6.64.12,0,.24,0,.37,0,5.88-.2,8.12-5.03,9.19-7.34l1.69-3.65c6.51-14.05,13.23-28.57,20.01-42.78.34-.72,1.26-1.55,1.7-1.74.53-.02,1.08-.03,1.64-.03,2.98,0,6.1.32,9.12.62l1.6.16c2.31.23,4.06,1.16,5.61,5.09,2.9,7.32,6.09,14.64,9.18,21.72,1.43,3.29,2.92,6.69,4.35,10.04,1.45,3.39,3.42,8.01,9.32,8.35.21.01.42.02.62.02,5.32,0,7.76-4,9.55-6.92l.11-.18c1.28-2.1,2.61-4.23,3.9-6.29,2.2-3.53,4.48-7.17,6.63-10.83.59-1,.81-1,1.05-1s.52.04.87.12c5.1,1.19,10.3,2.25,15.33,3.28,1.71.35,3.41.7,5.12,1.05,1.33.28,2.76.53,4.21.53,2.98,0,5.42-1.12,7.23-3.34,3.73-4.56,1.62-9.42.61-11.76-5.38-12.43-10.82-25.08-16.07-37.31l-.88-2.05c-.14-.33-.27-.66-.41-1,11.5-6.38,16.79-16.33,15.34-28.95-.26-2.21-.49-4.11-.7-5.77q-1.29-10.38,3.31-19.55c.93-1.85,1.98-3.95,3.24-6.55,5.58-11.49,3.35-23.77-5.95-32.87l-.2-.19c-2.51-2.45-5.1-4.99-7.81-7.35-3.12-2.72-4.93-5.84-5.69-9.84-.83-4.35-1.89-8.64-3.13-12.75-3.29-10.84-13.1-18.71-24.41-19.59-4.02-.31-7.05-.47-9.48-.59-4.22-.22-6.34-.32-8.08-.99-1.8-.7-3.8-2.19-7.78-5.16-1.59-1.19-3.56-2.66-5.94-4.4-5.15-3.75-10.97-5.74-16.81-5.74h0ZM181.28,34.16c13.43,0,25.04-4.52,35.51-13.8,2.43-2.16,4.49-3.16,6.5-3.16,2.06,0,4.42,1.04,7.43,3.29l.05.04.05.04c9.81,9.17,21.66,13.63,36.23,13.63h.51s.26,0,.26,0c7.49,0,9.87,2.1,11.1,9.78,2.17,13.57,8.37,24.36,18.94,32.96,6.25,5.09,6.71,7.72,2.7,15.65-.41.82-.83,1.63-1.26,2.45-3.77,7.3-7.67,14.86-6.42,24.21.19,1.4.35,2.84.51,4.23.2,1.75.41,3.55.66,5.34,1.23,8.62-.23,11.21-8.22,14.6-1.33.56-2.65,1.16-3.94,1.73-1.47.66-2.99,1.33-4.48,1.95-6.18,2.57-11.21,6.8-14.95,12.57l-.81,1.25c-1.93,2.99-3.92,6.07-5.99,9-2.05,2.89-4.36,4.24-7.29,4.24-.97,0-2.02-.15-3.15-.44-3.24-.84-6.53-1.82-9.75-2.92-3.93-1.33-7.93-2.01-11.88-2.01s-8.04.69-12.04,2.04c-3.25,1.1-6.53,2.08-9.75,2.9-1.08.28-2.1.42-3.04.42-2.96,0-5.3-1.37-7.35-4.3-1.91-2.73-3.86-5.69-6.33-9.58-3.93-6.2-9.37-10.77-16.18-13.58-4.28-1.77-7.53-3.17-10.55-4.55-3.83-1.76-5.66-4.53-5.75-8.74.11-1.01.21-2,.3-2.99.21-2.21.41-4.3.78-6.33,1.67-9.35.22-18.09-4.31-25.99-1.39-2.42-2.62-4.95-4.05-7.99-2.09-4.47-1.43-8.05,2.12-11.59l.19-.19c.94-.94,1.83-1.82,2.77-2.55,9.69-7.48,15.54-17.56,17.37-29.96.28-1.86.76-3.76,1.42-5.63,1.27-3.56,3.71-5.45,7.67-5.95.64-.08,1.14-.12,1.6-.12.1,0,.21,0,.31,0,.83.03,1.67.05,2.5.05h0ZM256.32,191.74c9.3-3.05,14.51-10.02,17.72-15.25,1.8-2.94,3.89-5.68,6.1-8.57.19-.26.39-.51.59-.77l1.35,3.13,9.39,21.78c-3.45-.69-6.72-1.35-9.95-2.03-2.12-.44-3.57-.63-4.83-.63-4.77,0-7,2.96-9.23,6.55-1.8,2.9-3.61,5.8-5.51,8.84l-5.62-13.05h0ZM156.04,200.77l4.8-10.31,8.94-19.22c.97,1.39,1.84,2.68,2.59,4.01,5.9,10.38,13.24,16.03,22.86,17.51l-4.79,10.29-5.24,11.26c-1.87-3.19-3.65-6.22-5.42-9.26-2.12-3.6-4.26-6.59-9.07-6.59-1.11,0-2.35.14-4.14.46-3.41.62-6.88,1.21-10.54,1.83h0Z"/>
  </g>
  <g>
    <path class="cls-1" d="M223.32,156.23c-33.23-.15-60.16-27.41-60.03-60.78.13-33.11,27.22-60.05,60.39-60.05h.33c33.13.18,59.98,27.33,59.87,60.53-.12,33.25-27.16,60.3-60.29,60.3h-.27ZM223.57,51.26c-24.19,0-44.12,19.69-44.42,43.88-.15,12,4.38,23.33,12.76,31.9,8.32,8.5,19.44,13.25,31.3,13.35h.4c24.16,0,44.09-19.8,44.43-44.14.16-11.78-4.33-22.96-12.64-31.5-8.34-8.56-19.44-13.35-31.28-13.49h-.55Z"/>
    <path class="cls-1" d="M223.69,36.91c.11,0,.21,0,.32,0,32.26.17,58.49,26.7,58.37,59.03-.11,32.46-26.48,58.8-58.79,58.8-.09,0-.17,0-.26,0-32.45-.14-58.66-26.69-58.54-59.28.12-32.39,26.47-58.55,58.89-58.55M223.61,141.89c25.03,0,45.58-20.36,45.93-45.62.35-25.22-20.13-46.2-45.4-46.51-.19,0-.38,0-.57,0-25.05,0-45.6,20.24-45.92,45.36-.32,25.56,20.1,46.54,45.54,46.77.14,0,.28,0,.42,0M223.69,33.91h0c-34,0-61.76,27.61-61.89,61.54-.13,34.19,27.47,62.14,61.52,62.29h.28c33.95,0,61.67-27.72,61.79-61.79.12-34.03-27.41-61.86-61.36-62.04h-.34ZM223.61,138.89h-.39c-11.46-.1-22.2-4.69-30.24-12.9-8.1-8.28-12.48-19.23-12.33-30.83.3-23.38,19.55-42.4,42.92-42.4.18,0,.36,0,.53,0,11.43.14,22.17,4.77,30.22,13.04,8.03,8.24,12.37,19.05,12.21,30.43-.32,23.52-19.58,42.66-42.93,42.66h0Z"/>
  </g>
  <g>
    <path class="cls-1" d="M215.3,114.64c-1.54,0-3.01-.69-4.48-2.12-3.38-3.28-6.96-6.86-10.95-10.95-1.37-1.4-2.1-3.09-2.08-4.75.02-1.53.66-2.94,1.83-4.08,1.13-1.09,2.51-1.67,3.99-1.67,1.71,0,3.38.76,4.83,2.21,1.84,1.84,3.6,3.69,5.46,5.65.48.5.96,1.01,1.44,1.52l15.63-14.17c.85-.77,1.7-1.55,2.55-2.33,1.82-1.67,3.69-3.39,5.59-5.04,1.34-1.17,2.87-1.78,4.4-1.78s3.05.66,4.2,1.87c1.11,1.17,1.7,2.67,1.64,4.21-.06,1.69-.87,3.34-2.29,4.63-9.9,9.06-18.89,17.21-27.47,24.91-1.4,1.26-2.85,1.9-4.29,1.9Z"/>
    <path class="cls-1" d="M243.51,78.62c1.14,0,2.23.47,3.11,1.4,1.8,1.89,1.65,4.67-.58,6.71-9.12,8.34-18.27,16.65-27.46,24.9-1.13,1.01-2.21,1.52-3.28,1.52-1.14,0-2.27-.57-3.44-1.7-3.7-3.58-7.33-7.24-10.92-10.92-2.13-2.19-2.18-4.87-.28-6.71.86-.83,1.88-1.25,2.95-1.25,1.26,0,2.58.59,3.77,1.77,2.64,2.64,5.18,5.38,7.88,8.2,5.77-5.23,11.24-10.19,16.71-15.15,2.7-2.45,5.36-4.96,8.12-7.35,1.1-.95,2.28-1.42,3.42-1.42M243.51,75.62c-1.9,0-3.76.74-5.38,2.15-1.92,1.66-3.8,3.4-5.63,5.07-.85.78-1.69,1.55-2.54,2.32l-11.53,10.45-3.01,2.73c-.14-.15-.28-.29-.41-.44-1.87-1.97-3.64-3.84-5.5-5.7-1.71-1.71-3.8-2.65-5.89-2.65-1.85,0-3.64.74-5.03,2.1-1.45,1.4-2.26,3.23-2.29,5.14-.03,2.07.86,4.13,2.51,5.82,3.99,4.1,7.58,7.69,10.98,10.98,1.74,1.69,3.6,2.55,5.53,2.55,1.82,0,3.6-.77,5.29-2.28,8.58-7.71,17.57-15.86,27.48-24.92,1.72-1.57,2.71-3.59,2.78-5.69.07-1.95-.66-3.83-2.05-5.3-1.43-1.5-3.31-2.33-5.28-2.33h0Z"/>
  </g>
</svg>