<?xml version="1.0" encoding="UTF-8"?>
<svg id="Capa_1" data-name="Capa 1" xmlns="http://www.w3.org/2000/svg" version="1.1" viewBox="0 0 393.32 388.8">
  <defs>
    <style>
      .cls-1 {
        fill: #fff;
        stroke-width: 0px;
      }
    </style>
  </defs>
  <path class="cls-1" d="M383,348.85c-2.85,6.38-7.82,8.7-14.68,8.28-5.83-.36-11.71-.07-17.98-.07-.08,1.45-.14,2.74-.23,4.45.28.02.55.04.83.06,3.92.28,6.96,3.54,6.96,7.47v8.46h23.49c3.12,0,5.65,2.53,5.65,5.65h0c0,3.12-2.53,5.65-5.65,5.65H7.5c-3.07,0-5.56-2.49-5.56-5.56h0c0-3.07,2.49-5.56,5.56-5.56h81.58s0-85.71,0-85.71c-20.93-2.62-40.38-9.23-58.48-20.51-2.77-1.72-3.56-5.39-1.71-8.07l.08-.11c1.65-2.39,4.85-3.14,7.4-1.74,22.66,12.41,37.33,17.57,53.03,18.7,0-1.44,0-2.85,0-4.26,0-32.69-.11-65.39.11-98.08.04-5.56-.82-10.25-5.72-14.04-20.97,25.04-42.07,50.22-63.16,75.4.09.14.17.28.26.43.62-.38,1.28-.7,1.84-1.16,13.33-10.89,26.63-21.83,39.99-32.68,3.36-2.73,5.36-6.03,6.04-10.36,1.08-6.86,3.67-13.12,8.58-18.63l7.46,6.37c-1.98,6.16-3.95,11.52-5.38,17.06s-4.48,10.18-8.8,13.69c-9.57,7.8-19.11,15.64-29.06,23.78,9.48,7.45,19.91,12.6,31.37,16.47,2.79.94,4.4,3.84,3.67,6.69l-.04.14c-.79,3.1-4.03,4.93-7.07,3.95-13.56-4.39-25.74-10.97-37.05-19.75-6.26,5.09-12.43,10.1-18.4,14.94-4.72-4.68-9.29-9.23-14.05-13.95,13.98-16.7,28.14-33.62,42.34-50.58-14.14-23.12-16.29-46.77-6.3-71.44,1.18-2.92,4.62-4.19,7.41-2.73l.05.03c.16.09.33.17.49.26,2.45,1.29,3.48,4.23,2.43,6.8-7.85,19.4-6.96,38.57,3.6,57.9,8.38-9.99,16.48-19.58,24.5-29.24,3.62-4.36,7-8.63,8.87-14.4,2.87-8.83,9.95-13.72,19.27-15.04,1.08-.15,2.15-.33,3.73-.58-11.21-30.75-22.32-61.19-33.42-91.64l-.72.19c1.39,8.59,2.77,17.17,4.16,25.76,1.38,8.49,2.92,16.96,4.1,25.47.72,5.22,2.7,9.39,6.97,12.69,5.24,4.04,8.75,9.46,11.18,16-3.5,1.25-6.85,2.45-9.22,3.31-4.62-4.99-8.66-9.63-12.99-13.97-5.73-5.74-6.63-13.17-7.81-20.57-1.54-9.73-3.11-19.45-4.69-29.17-.08-.46-.31-.9-.64-1.8-16.21,6.91-29.66,17.05-40.84,30.47-1.92,2.31-5.29,2.75-7.71.98h0c-2.63-1.93-3.07-5.66-1-8.19,12.93-15.74,28.92-27.22,47.93-34.99-.6-3.73-1.17-7.25-1.93-11.93l-23.92,12.39c-2.42,1.25-5.39.51-6.94-1.73l-.08-.11c-1.79-2.6-1.12-6.17,1.52-7.86,14.38-9.22,30.01-14.98,46.79-18.59,4.42,12.08,8.78,23.99,13.13,35.9,9.69,26.56,19.37,53.13,29.1,79.68.5,1.37,1.09,2.85,2.06,3.87,9.62,10.13,11.02,18.67,4.75,32.17,32.54,5.72,64.91,11.41,97.29,17.1l.19-.68c-8.25-3.11-16.49-6.22-24.74-9.34-8.5-3.22-17.04-6.35-25.49-9.7-4.18-1.65-8.14-1.71-12.33-.07-6.36,2.48-12.95,3.24-20.18,1.87.66-3.7,1.26-7.08,1.7-9.51,6.8-1.58,12.97-3.44,19.27-4.31,4.2-.58,8.97-.79,12.85.62,23.19,8.39,46.19,17.29,69.25,26.03.33.12.58.44,1.09.84-1.63,6.04-3.27,12.13-5.01,18.62-7.65-1.31-15.1-2.59-23-3.95-4.36,11.18-9.93,21.73-17.42,31.42-1.96,2.54-5.64,2.95-8.09.88l-.09-.07c-2.25-1.91-2.65-5.26-.87-7.61,6.16-8.13,11.24-16.85,14.96-26.67-27.92-4.9-55.56-9.75-83.47-14.65v77.05c.88,0,1.59,0,2.29,0,23.08,0,46.16-.03,69.25-.02,10.28,0,18.09,4.52,23.94,12.93,14.46,20.78,29.05,41.47,43.59,62.2.76,1.08,1.59,2.11,3.03,4.03,0-7.4.09-13.8-.08-20.19-.03-1.08-1.1-2.19-1.8-3.2-5.71-8.18-11.4-16.38-17.21-24.49-2.84-3.96-3.95-8.08-1.66-12.59,2.35-4.65,6.43-6.24,11.45-6.23,19.96.05,39.93.05,59.89,0,9.71-.02,17.29,3.81,22.87,11.83,14.12,20.26,28.34,40.44,42.49,60.68,1.04,1.5,1.82,3.18,2.7,4.79l.2,5.66ZM110.34,377.39v-201.23h-9.32v201.23h9.32ZM219.72,353.46c-1.56,0-2.9,0-4.24,0-9.35,0-18.7-.11-28.05.03-10.6.15-18.72-4.19-24.68-12.88-3.95-5.75-7.99-11.44-12.01-17.14-.51-.72-1.17-1.34-2.13-2.41v39.12h.99c4.16,0,7.53,3.37,7.53,7.53v9.57h54.43v-9.74c0-4.16,3.37-7.53,7.53-7.53h.63v-6.55ZM338.75,357.06c-8.82,0-17.27-.31-25.68.07-10.88.5-21.27-4.75-27.04-13.99-2.92-4.68-6.31-9.06-10.02-14.32v33.17h0c4.16,0,7.53,3.37,7.53,7.53v7.83h47.73v-8.22c0-4.13,3.35-7.48,7.48-7.48h0v-4.59ZM135.91,359.94h.78c.13-.71.26-1.07.26-1.43.02-17.59.03-35.18.02-52.77,0-.74.04-1.63-.33-2.18-4.6-6.72-9.28-13.4-14.44-20.8v94.64h6.18v-9.93c0-4.16,3.37-7.53,7.53-7.53ZM225.24,342.13c-.21-.72-.23-1.11-.42-1.37-10.43-14.92-20.87-29.84-31.34-44.73-.47-.67-1.24-1.61-1.89-1.62-5.25-.13-10.51-.07-16.43-.07,3.94,5.63,7.46,10.46,10.76,15.44,1.38,2.09,2.88,3.12,5.47,2.92,3.07-.23,6.17-.05,9.45-.05v11.13c-1.5.16-2.8.3-4.68.51,4.12,5.88,7.93,11.38,11.81,16.82.37.52,1.21.99,1.84,1,5.07.08,10.14.05,15.42.05ZM235.94,312.63c-2.93-4.21-5.71-7.48-7.65-11.19-3-5.74-7.14-8.49-13.68-7.22-1.02.2-2.15-.12-3.31-.2v-10.82c1.28-.19,2.31-.35,3.43-.52-8.97-16.05-15.97-20.28-28.52-17.35.11.34.14.72.33.99,10.42,14.89,20.83,29.79,31.33,44.64.56.79,1.75,1.55,2.67,1.58,4.82.16,9.65.07,15.42.07ZM106.18,138.98c-7.34-.25-13.33,5.26-13.6,12.49-.26,7.2,5.43,13.23,12.69,13.43,7.25.2,13.26-5.49,13.42-12.71.16-7.06-5.44-12.98-12.51-13.21ZM264.05,351.2c-10.66,4.55-21.77.89-32.5,2.67v6.36h1.04c4.16,0,7.53,3.37,7.53,7.53v9.56h16.45v-8.24c0-3.96,3.06-7.24,7.01-7.51l.47-.03v-10.34ZM342.88,345.59c-.07-.51-.03-.79-.15-.96-9.13-13.08-18.27-26.17-27.45-39.22-.45-.64-1.29-1.4-1.98-1.43-4.14-.13-8.28-.07-13-.07,3.48,4.97,6.38,9.32,9.54,13.49.68.89,2.2,1.49,3.39,1.58,2.94.22,5.9.07,9.01.07v10.93c-.9.3-1.79.6-2.72.91,8.51,14.9,9.21,15.35,22.78,14.81.12,0,.24-.05.59-.12ZM309.75,277.73c9.56,13.61,18.86,26.87,28.19,40.1.38.54,1.15,1.13,1.75,1.15,4.13.1,8.27.05,13.07.05-1.79-2.57-3.26-4.28-4.29-6.24-3.45-6.54-8.05-10.82-16.12-9.03-.18.04-.42-.2-.99-.51.95-3.72-1.94-8.12,2.02-11.56-8.33-13.34-12.18-15.69-23.64-13.97ZM144.52,294.28c4.29,6.19,8.12,11.76,12.03,17.29.37.52,1.21.99,1.84,1,4.92.08,9.84.05,15.73.05-4.47-6.36-8.41-12-12.42-17.59-.3-.41-1.05-.71-1.59-.71-4.92-.05-9.84-.03-15.59-.03ZM154.42,264.79c4.32,6.15,8.07,11.55,11.91,16.88.44.61,1.36,1.2,2.07,1.22,5.05.1,10.1.06,15.86.06-4.24-6.07-8.03-11.57-11.91-16.99-.43-.6-1.42-1.1-2.16-1.12-4.96-.1-9.93-.05-15.77-.05ZM256.58,342.14c-4.25-6.08-7.93-11.37-11.66-16.64-.4-.57-1.05-1.35-1.6-1.36-5.23-.1-10.47-.06-16.3-.06,4.19,5.99,7.86,11.3,11.63,16.54.5.7,1.51,1.44,2.31,1.46,4.93.13,9.87.07,15.62.07ZM165.69,324.01c9.19,15.85,12.54,19.86,28.71,17.57-3.9-5.58-7.69-11.07-11.56-16.5-.37-.52-1.19-1.01-1.81-1.02-5.04-.08-10.09-.05-15.34-.05ZM124.09,264.8c4.35,6.26,8.18,11.83,12.11,17.35.34.48,1.27.77,1.94.78,4.79.06,9.59.03,15.18.03-4.32-6.15-8.19-11.7-12.13-17.2-.36-.51-1.23-.91-1.87-.92-4.78-.08-9.56-.04-15.22-.04ZM253.3,277.3c3.67,5.21,6.86,9.76,10.1,14.26.32.45.98.93,1.49.94,4.27.07,8.54.04,13.55.04-3.65-5.2-6.77-9.69-9.96-14.12-.38-.53-1.19-1.06-1.81-1.07-4.19-.09-8.38-.05-13.37-.05ZM371.4,345.46c-3.47-4.92-6.64-9.47-9.89-13.96-.38-.52-1.22-.98-1.85-.99-4.05-.09-8.1-.05-12.37-.05,5.15,9.51,9.98,18.67,22.97,15.24.12-.03.24-.05,1.14-.25ZM306.12,292.29c-3.47-4.93-6.64-9.48-9.88-13.99-.32-.45-.99-.92-1.5-.93-4.15-.08-8.3-.04-12.76-.04,8.63,15.27,9.31,15.71,22.95,15.18.12,0,.24-.04,1.18-.22ZM272.12,303.9c3.61,5.09,6.68,9.44,9.8,13.76.41.56,1.1,1.27,1.67,1.29,4.23.11,8.47.06,13.39.06-3.53-5.04-6.46-9.34-9.54-13.52-.56-.77-1.74-1.47-2.66-1.51-3.94-.17-7.89-.07-12.67-.07ZM291.7,330.47c5.1,12.15,14.11,17.68,23.55,14.57-3.09-4.41-6.12-8.79-9.24-13.1-.46-.64-1.31-1.37-2-1.4-4.04-.13-8.09-.06-12.32-.06ZM145.45,377.5v-5.78h-5.46v5.78h5.46ZM222.88,377.64c2.12-.11,3.88-.2,5.49-.28v-5.67h-5.49v5.95ZM271.95,377.34v-3.77h-3.93v3.77h3.93ZM346.36,377.37v-3.85h-3.61v3.85h3.61Z"/>
  <path class="cls-1" d="M263.5,108.99v-10.88c5.79-.05,11.8-.19,15.02-5.64,1.66-2.79,2.57-6.65,2.25-9.87-.95-9.41-7.73-12.33-22.62-10.18-3.63-9.57-9.84-16.41-20.96-16.45-11.15-.04-17.53,6.53-21.18,16.7-2.57-.44-5.05-1.4-7.4-1.16-4.36.45-9.16.65-12.86,2.64-8.47,4.57-8.26,16.49.22,21.08,3.14,1.7,7.07,2.41,10.7,2.62,7.05.4,49.59.25,56.83.25,0,3.86.52,6.38.52,10.89-10.35-.57-56.77.76-66.75-1.18-13.06-2.55-20.12-13.85-18.67-26.65,1.32-11.65,11.94-20.82,25.24-21.16,3.96-.1,6.36-1.25,8.93-4.31,13.02-15.53,37.43-14.7,49.88,1.48,1.27,1.66,2.39,2.7,4.77,2.76,15.3.34,26.02,11.92,24.92,26.65-1.07,14.41-13.23,23.99-28.84,22.4Z"/>
  <path class="cls-1" d="M339.69,175.11v-10.84c2-.12,3.84-.18,5.67-.36,7.11-.73,11.67-5.87,11.68-13.12.01-7.27-4.51-12.49-11.61-13.14-2.21-.2-4.6-.34-6.68.25-3.37.96-4.98.28-6.44-3.15-3.57-8.36-10.34-12.78-19.42-12.68-8.9.09-15.31,4.6-19.08,12.72-.57,1.23-1.13,2.47-1.67,3.63-4.45-.27-8.77-.92-13.06-.71-6.43.32-11.47,4.41-12.9,9.67-2.23,8.23,3.68,15.86,13.19,16.45,6.84.43,30.78.17,37.64.22,1.34,0,21.14.21,22.68.21,0,3.85,3.48,7.08,3.48,10.6-.32.16-.64.46-.96.46-8.48-.05-56.01.42-64.42-.33-9.79-.88-17.51-5.76-21.51-15.14-3.64-8.53-2.37-16.72,3.35-23.92,5.77-7.27,13.79-10.02,22.84-9.81,2.13.05,3.34-.49,4.62-2.18,13.4-17.7,38.71-17.77,51.97-.06,1.58,2.12,3.35,2.13,5.43,2.28,17.31,1.2,27.8,16.09,22.79,32.35-3.48,11.31-14.63,18.12-27.59,16.6Z"/>
  <path class="cls-1" d="M343.72,73.44c-13.48-.04-24.1-10.75-24.05-24.25.05-13.37,10.94-24.24,24.24-24.19,13.22.06,24.25,11.17,24.18,24.37-.06,13.31-10.99,24.1-24.37,24.06ZM344.01,62.48c7.3-.11,13.04-5.95,13-13.25-.04-7.19-5.99-13.18-13.15-13.23-7.46-.05-13.37,6.06-13.21,13.67.16,7.32,5.99,12.91,13.36,12.81Z"/>
  <path class="cls-1" d="M168.08,57.75l-.06.09c-1.65,2.48-4.94,3.22-7.51,1.72-17.14-9.94-35.44-15.01-55.45-14.99-3,0-5.49-2.3-5.66-5.29v-.11c-.19-3.23,2.39-5.93,5.63-5.94,22.01-.08,42.21,5.5,61.17,16.56,2.8,1.63,3.67,5.27,1.88,7.96Z"/>
  <path class="cls-1" d="M119.88,85.71l.03-.13c.68-3.17,3.93-5.11,7.04-4.19,13.54,4.04,24.95,11.16,34.6,21.6,2.22,2.4,1.88,6.2-.7,8.2l-.09.07c-2.27,1.76-5.53,1.53-7.48-.59-8.17-8.85-17.97-14.94-29.61-18.47-2.76-.84-4.4-3.68-3.79-6.5Z"/>
  <path class="cls-1" d="M136.06,217.28l-.05-.1c-1.09-2.26-.5-4.97,1.44-6.56,5.88-4.85,11.64-9.59,17.56-14.47,1.94-1.59,4.71-1.66,6.71-.16l.08.06c2.53,1.89,2.92,5.55.84,7.94-5.5,6.29-11.76,11.47-18.97,15.64-2.73,1.58-6.25.49-7.62-2.35Z"/>
  <rect class="cls-1" x="338.35" y="82.08" width="10.93" height="16.92" rx="5.47" ry="5.47"/>
  <rect class="cls-1" x="338.36" width="10.91" height="15.86" rx="5.46" ry="5.46"/>
  <rect class="cls-1" x="294.32" y="44.03" width="16.92" height="10.93" rx="5.47" ry="5.47"/>
  <rect class="cls-1" x="377.46" y="44.04" width="15.86" height="10.91" rx="5.46" ry="5.46"/>
  <rect class="cls-1" x="306.34" y="73.05" width="16.92" height="10.93" rx="5.47" ry="5.47" transform="translate(36.68 245.59) rotate(-45)"/>
  <rect class="cls-1" x="365.28" y="14.65" width="15.86" height="10.91" rx="5.46" ry="5.46" transform="translate(95.1 269.79) rotate(-45)"/>
  <rect class="cls-1" x="309.33" y="12.02" width="10.93" height="16.92" rx="5.47" ry="5.47" transform="translate(77.72 228.6) rotate(-45)"/>
  <rect class="cls-1" x="367.76" y="70.96" width="10.91" height="15.86" rx="5.46" ry="5.46" transform="translate(53.53 287.01) rotate(-45)"/>
</svg>