<?xml version="1.0" encoding="UTF-8"?>
<svg id="Capa_1" data-name="Capa 1" xmlns="http://www.w3.org/2000/svg" version="1.1" viewBox="0 0 285.28 382.92">
  <defs>
    <style>
      .cls-1 {
        fill: #fff;
        stroke-width: 0px;
      }
    </style>
  </defs>
  <path class="cls-1" d="M132.93,382.92c-7.6-1.26-15.28-2.15-22.78-3.84-57.6-12.96-102.18-63.01-109.14-121.47-3.94-33.16,3.75-63.57,21.12-91.41,11.72-18.79,25.27-36.44,37.96-54.64,24.17-34.67,48.54-69.21,72.3-104.16,6.81-10.01,13.93-9.72,20.54,0,31.42,46.18,63,92.25,96.41,137.04,13.69,18.35,25.29,38.17,30.94,60.59,13.34,52.85-.3,98.72-38.22,137.21-22.72,23.06-50.97,35.74-83.07,39.8-2.2.28-4.4.59-6.61.88h-19.46ZM142.58,24.67c-1.18,1.69-2.16,3.08-3.13,4.47-22.64,32.38-45.1,64.89-68.01,97.07-12.71,17.86-26.48,34.98-37.09,54.29-15.78,28.76-20.85,58.96-12.41,90.95,24.57,93.07,139.65,125.17,207.99,57.4,33.99-33.7,45.17-74.89,32.32-121.53-5.53-20.07-16.36-37.72-28.75-54.21-30.86-41.08-59.73-83.54-88.9-125.81-.54-.79-1.17-1.52-2.04-2.64Z"/>
  <path class="cls-1" d="M139.98,341.66c-50.72-1.01-93.71-41.35-97.75-91.44-.2-2.48-.45-4.97-.49-7.46-.12-6.46,3.41-10.56,8.96-10.57,5.45,0,8.72,3.77,8.99,10.16,1.24,29.66,14.19,52.75,39.15,68.85,12.98,8.38,27.43,12.19,42.84,12.55,7.34.17,11.7,6.64,8.68,12.8-2.19,4.47-6.15,5.46-10.38,5.11Z"/>
</svg>