<?xml version="1.0" encoding="UTF-8"?>
<svg id="Capa_1" data-name="Capa 1" xmlns="http://www.w3.org/2000/svg" version="1.1" viewBox="0 0 410.83 361.01">
  <defs>
    <style>
      .cls-1 {
        fill: #fff;
        stroke-width: 0px;
      }
    </style>
  </defs>
  <path class="cls-1" d="M276.32,345.94c-7.63-9.54-15.02-18.62-22.21-27.86-1.58-2.03-3.22-2.69-5.72-2.68-19.22.1-38.44.01-57.66.08-4.87.02-9.17-1.14-12.88-4.42-.75-.66-2.02-1.02-3.05-1.02-40.26-.05-80.52-.04-120.79-.03-.33,0-.66.08-1.23.15,0,4.36-.45,8.8.12,13.1.64,4.89,5.15,8.27,10.14,8.54,1.13.06,2.27.02,3.41.02,59.37,0,118.74,0,178.11,0h4.29v10.92h-3.68c-59.94,0-119.88,0-179.81,0-14.74,0-23.74-9.05-23.75-23.84,0-2.05,0-4.09,0-6.14,0-9.79,3.86-13.69,13.54-13.69,6.24,0,12.49,0,19.22,0v-4.44c0-86.76.12-173.53-.14-260.29-.03-11.44,7.4-19.32,19.43-19.28,83.71.27,167.42.14,251.12.14,15.7,0,24.42,8.76,24.42,24.53,0,9.55.02,19.1,0,28.66-.02,7.92-4.34,12.29-12.18,12.32-6.7.02-13.4,0-20.33,0v81.89c4.75,0,9.49,0,14.23,0,11.64.01,18.28,6.56,18.29,18.09,0,38.89,0,77.78,0,116.67,0,11.38-6.65,18.08-17.95,18.09-15.81.02-31.62.05-47.43-.05-2.16-.01-3.52.62-4.86,2.32-6.66,8.5-13.46,16.9-20.21,25.33-.69.87-1.43,1.7-2.44,2.88ZM327.17,26.13h-2.42c-77.21,0-154.42,0-231.63,0-6.26,0-7.82,1.58-7.82,7.86,0,87.09,0,174.18,0,261.27v3.56h87.36v-4.33c0-37.86,0-75.72,0-113.58,0-11.79,6.55-18.3,18.41-18.3,43.44,0,86.88,0,130.32,0h4.15v-4.5c0-38.77-.06-77.54.07-116.31.02-5.12,1-10.23,1.57-15.67ZM276.39,328.55c5.76-7.19,11.32-13.92,16.61-20.86,1.85-2.44,3.84-3.23,6.83-3.21,17.05.14,34.11.07,51.16.06,5.54,0,7.3-1.78,7.3-7.37,0-38.76,0-77.52,0-116.29,0-5.59-1.75-7.35-7.31-7.35-53.32,0-106.64,0-159.96,0-5.75,0-7.43,1.71-7.43,7.57,0,38.65,0,77.3,0,115.95,0,5.8,1.7,7.5,7.51,7.5,20.92,0,41.84.04,62.76-.05,2.39-.01,3.95.65,5.43,2.56,5.49,7.09,11.16,14.05,17.12,21.5ZM336.47,69.58h21.79c0-11.23.15-22.24-.06-33.25-.11-5.72-5.13-10.17-10.79-10.19-5.84-.02-10.81,4.5-10.89,10.43-.17,10.9-.05,21.81-.05,33.01Z"/>
  <path class="cls-1" d="M205.42,96.97c.15-30.24,24.72-54.62,54.88-54.44,30.21.18,54.4,24.7,54.29,55.03-.11,30.01-24.9,54.31-55.22,54.12-29.71-.19-54.11-24.93-53.96-54.71ZM299.7,115.45c6.13-15,5.33-28.95-3.13-42.13-7.17-11.18-17.61-17.48-31.1-19.52,0,13.28-.03,25.99.06,38.71,0,.81.67,1.94,1.37,2.38,10.73,6.8,21.52,13.52,32.8,20.56ZM254.55,53.73c-15.95,2.79-27.38,10.85-34.06,25.04-5.65,12.01-5.6,24.19-.08,36.64,11.23-7.01,22.03-13.72,32.78-20.51.64-.4,1.3-1.38,1.3-2.09.08-12.83.06-25.66.06-39.08ZM226.37,124.58c18.65,23.39,53.45,19.47,67.06-.16-10.68-6.67-21.34-13.36-32.06-19.95-.67-.41-2.05-.4-2.73.01-10.72,6.59-21.38,13.29-32.27,20.1Z"/>
  <path class="cls-1" d="M139.9,97.33v43.19h10.85v-59.61h10.85v59.66h10.97v-75.96h10.97v76.1h10.72v10.8h-97.87v-10.61h10.62v-27.12h10.97v26.83h10.85v-43.26h11.09Z"/>
  <path class="cls-1" d="M96.37,58.65v-10.68h65.09v10.68h-65.09Z"/>
  <path class="cls-1" d="M118.21,178.75v-10.5h43.25v10.5h-43.25Z"/>
  <path class="cls-1" d="M118.21,211.5v-10.5h43.25v10.5h-43.25Z"/>
  <path class="cls-1" d="M118.23,233.72h43.26v10.57h-43.26v-10.57Z"/>
  <path class="cls-1" d="M161.58,266.57v10.51h-43.25v-10.51h43.25Z"/>
  <path class="cls-1" d="M96.33,178.71v-10.43h10.62v10.43h-10.62Z"/>
  <path class="cls-1" d="M106.96,201.02v10.46h-10.52v-10.46h10.52Z"/>
  <path class="cls-1" d="M106.95,244.35h-10.5v-10.56h10.5v10.56Z"/>
  <path class="cls-1" d="M96.38,277.02v-10.52h10.5v10.52h-10.5Z"/>
  <path class="cls-1" d="M232.71,293.48h-32.76c0-8.74-.15-17.34.08-25.94.08-3.15-.63-5.51-3.31-7.18-1.82-1.14-2.32-2.74-2.28-4.89.13-7.61.22-15.23,0-22.84-.22-7.58,2.3-13.54,9.39-17.42-3.91-5.27-5.11-11.16-3.16-17.11,1.07-3.26,3.24-6.6,5.83-8.84,5.93-5.12,14.77-4.56,20.63.58,6.64,5.83,7.39,15.36,1.83,25.46,7.92,4.15,9.63,11.25,9.26,19.52-.3,6.58-.19,13.18,0,19.77.08,2.75-.48,4.86-2.88,6.34-2.13,1.31-2.76,3.18-2.71,5.72.17,8.84.07,17.69.07,26.83ZM221.79,282.57c0-6.73.19-13.09-.08-19.43-.14-3.36.71-5.81,3.44-7.84,1.02-.76,1.98-2.32,2.01-3.54.19-7.15.32-14.31-.07-21.44-.1-1.84-1.78-4.18-3.42-5.25-4.37-2.86-8.98-3.39-13.93-.54-2.79,1.61-4.39,3.28-4.34,6.54.08,6.24.14,12.49-.03,18.73-.07,2.59.39,4.65,2.68,6.08,2.36,1.46,2.98,3.56,2.9,6.33-.21,6.76-.07,13.53-.07,20.36h10.92ZM210.87,202.76c-.12,4.16,2.22,7.29,5.45,7.3,2.87,0,5.35-2.84,5.47-6.27.14-4.42-1.9-7.07-5.46-7.08-3.25,0-5.35,2.32-5.46,6.05Z"/>
  <path class="cls-1" d="M283.55,215.3c8.12,4.19,9.64,11.49,9.28,19.84-.29,6.69-.14,13.41-.01,20.11.04,2.23-.38,4.02-2.34,5.21-2.76,1.67-3.31,4.1-3.24,7.2.21,8.5.07,17.01.07,25.74h-32.76c0-8.53-.16-17.02.08-25.5.1-3.38-.83-5.74-3.48-7.84-1.11-.88-1.93-2.77-1.96-4.23-.19-7.72.09-15.46-.14-23.18-.22-7.59,2.33-13.52,9.38-17.47-3.98-5.34-5.12-11.35-3.07-17.4,1.1-3.25,3.37-6.54,6.01-8.73,5.9-4.92,14.61-4.27,20.37.77,6.65,5.83,7.42,15.45,1.82,25.48ZM276.39,282.55c0-6.86.17-13.34-.08-19.79-.12-3.13.72-5.33,3.2-7.28,1.15-.9,2.19-2.69,2.23-4.11.23-6.92.08-13.85.11-20.77.01-2.83-1.42-4.49-3.84-5.86-4.74-2.67-9.24-2.72-14.03-.06-2.57,1.42-4.02,3.11-4,6.09.05,6.92-.06,13.85.09,20.77.03,1.16.73,2.7,1.64,3.36,3.04,2.23,4.03,4.94,3.84,8.71-.33,6.29-.09,12.61-.09,18.94h10.92ZM265.47,203.32c.01,3.75,2.29,6.62,5.33,6.74,3.07.12,5.59-2.97,5.59-6.83,0-4.01-2-6.44-5.34-6.52-3.49-.08-5.59,2.42-5.58,6.61Z"/>
  <path class="cls-1" d="M312.87,215.29c-5.68-10.44-4.73-20.18,2.35-25.87,6.3-5.06,15.24-4.74,21.3.52,5.78,5.03,7.89,16.43,1.65,25.11.71.51,1.42,1.02,2.12,1.53,4.53,3.29,6.99,7.73,7.05,13.32.1,8.75.16,17.5-.09,26.25-.05,1.59-1.38,3.48-2.66,4.6-1.97,1.72-2.79,3.46-2.74,6.1.17,8.52.05,17.04.04,25.57,0,.22-.07.45-.14.94h-32.59v-9.65c0-5.57-.16-11.14.07-16.7.12-2.79-.6-4.85-2.95-6.31-2.17-1.35-2.71-3.25-2.64-5.76.18-6.81.3-13.64,0-20.45-.36-8.18,1.51-15.1,9.24-19.19ZM320.07,282.48h10.92c0-7.03.12-13.83-.06-20.62-.07-2.52.69-4.21,2.6-5.82,1.26-1.06,2.74-2.75,2.79-4.21.29-7.14.13-14.3.13-21.45,0-2.69-1.37-4.37-3.73-5.57-4.43-2.26-8.59-3.05-13.4-.46-3.26,1.75-4.83,3.66-4.74,7.32.15,6.13.17,12.26-.02,18.39-.08,2.51.46,4.44,2.64,5.75,2.56,1.54,3.02,3.83,2.94,6.65-.18,6.57-.06,13.15-.06,20.01ZM330.99,203.28c0-4.03-1.96-6.46-5.29-6.56-3.5-.1-5.63,2.38-5.63,6.56,0,3.77,2.23,6.63,5.29,6.79,3.06.16,5.63-2.94,5.63-6.79Z"/>
</svg>