<?xml version="1.0" encoding="UTF-8"?>
<svg id="Capa_1" data-name="Capa 1" xmlns="http://www.w3.org/2000/svg" version="1.1" viewBox="0 0 358.74 401.22">
  <defs>
    <style>
      .cls-1 {
        fill: #fff;
        stroke-width: 0px;
      }
    </style>
  </defs>
  <g>
    <path class="cls-1" d="M56.03,346.21c.46-1.84.66-2.88.97-3.88,1.08-3.48,2.19-6.95,3.3-10.41,2.57-7.97,2.62-8.01-3.78-13.43-.75-.64-2.37-.79-3.39-.49-5.18,1.51-10.3,3.27-15.45,4.9-4.35,1.37-6.25.81-8.62-3.04-2.71-4.4-5.2-8.93-7.7-13.45-1.71-3.1-1.14-5.83,1.55-8.2,3.97-3.5,7.81-7.16,11.82-10.61,1.71-1.47,1.95-2.79,1.65-5.11-.76-5.87-3.72-8.33-9.51-8.72-3.94-.27-7.81-1.63-11.71-2.49-2.88-.63-4.67-2.38-4.74-5.34-.13-5.87-.14-11.74-.02-17.6.06-3.12,1.94-4.87,4.98-5.51,5.29-1.1,10.54-2.42,15.86-3.36,2.46-.43,3.21-1.73,4.11-3.9,2.14-5.17.84-8.68-3.65-11.81-3.16-2.2-5.77-5.18-8.7-7.73-2.68-2.33-3.42-5.03-1.69-8.16,2.61-4.73,5.33-9.4,8.05-14.07,1.82-3.13,4.53-3.83,7.87-2.73,5.13,1.69,10.31,3.23,15.41,5.03,2.08.74,3.22.03,4.89-1.22,4.7-3.52,5.46-7.37,2.9-12.59-1.69-3.45-2.48-7.33-3.65-11.02-1.01-3.19-.33-5.84,2.67-7.59,4.66-2.73,9.33-5.45,14.05-8.08,3.08-1.72,5.83-1.17,8.21,1.51,3.58,4.05,7.31,7.99,10.83,12.09,1.43,1.67,2.77,1.63,4.87,1.38,5.89-.67,8.33-3.72,8.74-9.47.27-3.82,1.63-7.56,2.4-11.36.65-3.2,2.48-5.08,5.76-5.14,5.64-.1,11.28-.1,16.91-.02,3.44.05,5.29,2.01,5.96,5.36,1.08,5.41,2.17,10.83,3.57,16.17.33,1.24,1.75,2.48,2.99,3.13,5.44,2.84,9.53,1.25,12.9-3.83,2.06-3.1,4.99-5.62,7.49-8.43,2.28-2.57,4.96-3.07,7.92-1.44,4.73,2.61,9.42,5.3,14.08,8.03,3.1,1.82,3.84,4.53,2.73,7.88-1.69,5.13-3.23,10.31-5.03,15.41-.73,2.07-.07,3.22,1.2,4.9,3.52,4.64,7.34,5.51,12.59,2.92,3.44-1.7,7.33-2.48,11.02-3.66,3.19-1.02,5.84-.34,7.6,2.65,2.79,4.76,5.56,9.54,8.22,14.37,1.65,3,.89,5.64-1.63,7.88-4.04,3.6-7.99,7.31-12.09,10.84-1.66,1.43-1.64,2.76-1.4,4.87.66,5.91,3.76,8.3,9.48,8.75,3.94.31,7.81,1.64,11.71,2.5,2.88.63,4.68,2.37,4.76,5.32.14,5.87.15,11.74.03,17.6-.06,3.11-1.94,4.88-4.97,5.53-5.29,1.12-10.54,2.4-15.85,3.4-2.37.45-3.24,1.65-4.14,3.86-2.09,5.18-.78,8.68,3.67,11.81,3.25,2.29,5.98,5.3,8.96,7.97,2.55,2.28,3.05,4.97,1.42,7.93-2.62,4.73-5.32,9.4-8.05,14.06-1.83,3.13-4.54,3.81-7.88,2.71-5.13-1.69-10.31-3.23-15.41-5.03-2.09-.74-3.22,0-4.89,1.23-4.74,3.51-5.42,7.38-2.88,12.59,1.68,3.45,2.48,7.33,3.65,11.03,1.01,3.19.29,5.84-2.69,7.59-4.66,2.74-9.33,5.45-14.05,8.07-3.09,1.72-5.83,1.15-8.2-1.54-3.58-4.06-7.31-7.98-10.83-12.09-1.44-1.68-2.8-1.59-4.88-1.36-5.92.65-8.29,3.76-8.73,9.49-.3,3.94-1.64,7.8-2.5,11.7-.64,2.88-2.39,4.67-5.34,4.74-5.87.14-11.74.14-17.61.01-3.11-.07-4.87-1.96-5.5-4.99-1.11-5.29-2.4-10.54-3.38-15.85-.44-2.41-1.72-3.21-3.89-4.1-5.19-2.14-8.68-.77-11.8,3.68-2.21,3.15-5.17,5.78-7.73,8.7-2.34,2.66-5.06,3.39-8.18,1.65-4.82-2.68-9.66-5.35-14.3-8.34-1.5-.96-2.38-2.89-3.28-4.05ZM212.78,209.75c-1.41-2.45-2.68-4.65-3.96-6.87-6.14,1.95-11.98,3.72-17.76,5.68-3.1,1.05-5.39.25-7.54-2.1-2.93-3.2-5.96-6.34-9.15-9.29-3.74-3.44-4.19-4.59-2.59-9.55,1.75-5.45,3.51-10.89,5.33-16.52-2.46-1.37-4.67-2.6-6.95-3.87-4.32,4.75-8.44,9.26-12.52,13.81-2.13,2.38-4.5,2.96-7.6,1.95-4.23-1.38-8.54-2.64-12.9-3.48-3.75-.72-5.8-2.55-6.52-6.3-1.12-5.85-2.49-11.66-3.76-17.55h-8.03c-1.3,6.03-2.63,11.86-3.78,17.72-.71,3.59-2.73,5.39-6.32,6.09-4.14.8-8.28,1.82-12.23,3.26-3.77,1.37-6.49.66-9.06-2.33-3.81-4.45-7.84-8.71-11.93-13.21-2.39,1.36-4.59,2.62-6.91,3.94,1.89,5.86,3.57,11.47,5.52,16.99,1.27,3.59.53,6.23-2.36,8.75-3.27,2.84-6.34,5.96-9.21,9.21-2.42,2.73-4.94,3.57-8.43,2.34-5.63-1.97-11.34-3.68-17.25-5.57-1.35,2.39-2.59,4.6-3.9,6.92,4.56,4.13,8.83,8.16,13.28,11.98,2.87,2.47,3.6,5.12,2.32,8.76-1.4,3.97-2.54,8.08-3.3,12.22-.72,3.94-2.71,5.92-6.59,6.64-5.75,1.07-11.44,2.45-17.29,3.73v7.97c6,1.3,11.82,2.64,17.68,3.78,3.58.7,5.46,2.64,6.15,6.25.77,4.02,1.63,8.11,3.13,11.9,1.68,4.22.68,7.11-2.64,9.9-4.38,3.68-8.52,7.65-12.79,11.51,1.44,2.47,2.67,4.59,3.99,6.86,6-1.91,11.83-3.66,17.59-5.64,3.24-1.12,5.61-.28,7.83,2.2,2.74,3.05,5.62,6.02,8.64,8.79,4.27,3.91,4.59,4.74,2.77,10.41-1.71,5.32-3.39,10.64-5.1,16.02,2.48,1.4,4.6,2.6,6.89,3.9,4.25-4.68,8.39-9.15,12.43-13.72,2.23-2.52,4.67-3.08,7.89-2.01,4.11,1.37,8.3,2.63,12.56,3.41,3.92.71,5.99,2.6,6.72,6.51,1.1,5.84,2.49,11.63,3.76,17.4h7.96c1.27-5.83,2.66-11.52,3.72-17.26.71-3.87,2.65-5.92,6.6-6.62,4.03-.71,8.07-1.72,11.89-3.17,3.91-1.48,6.69-.71,9.34,2.41,3.79,4.45,7.82,8.7,11.83,13.11,2.48-1.46,4.66-2.75,6.86-4.05-1.88-5.84-3.53-11.35-5.46-16.77-1.33-3.72-.6-6.45,2.46-9.03,3.13-2.64,6.1-5.56,8.72-8.7,2.64-3.18,5.44-3.98,9.3-2.6,5.48,1.97,11.08,3.62,16.76,5.44,1.4-2.51,2.62-4.72,3.85-6.95-4.55-4.13-8.73-8.1-13.11-11.84-2.99-2.55-3.78-5.25-2.41-9.03,1.43-3.96,2.49-8.09,3.27-12.23.71-3.77,2.64-5.73,6.38-6.44,5.85-1.11,11.64-2.48,17.43-3.74v-8.06c-6.08-1.3-11.92-2.61-17.8-3.78-3.43-.68-5.24-2.59-5.96-6.03-.88-4.24-1.9-8.5-3.34-12.57-1.28-3.61-.74-6.28,2.17-8.78,4.45-3.83,8.73-7.86,13.42-12.11Z"/>
    <path class="cls-1" d="M122.56,370.61c-2.84,0-5.67-.03-8.48-.09-3.4-.07-5.69-2.13-6.46-5.79-.41-1.97-.85-3.94-1.29-5.91-.73-3.26-1.48-6.62-2.09-9.97-.34-1.84-1.16-2.48-3.29-3.36-4.55-1.88-7.63-.91-10.6,3.33-1.48,2.11-3.28,3.99-5.03,5.81-.93.97-1.89,1.97-2.77,2.98-2.74,3.13-6,3.77-9.42,1.86l-.82-.46c-4.49-2.5-9.13-5.08-13.53-7.91-1.23-.79-2.05-2.05-2.76-3.16-.26-.41-.51-.8-.77-1.12l-.3-.38.12-.47c.16-.65.29-1.19.4-1.67.21-.88.37-1.58.58-2.26,1.08-3.48,2.19-6.95,3.31-10.42q2.39-7.4-3.48-12.36c-.44-.38-1.69-.53-2.47-.3-3.35.98-6.73,2.08-10.01,3.14-1.81.59-3.61,1.18-5.42,1.75-4.84,1.52-7.21.68-9.77-3.47-2.6-4.21-5.03-8.61-7.38-12.86l-.35-.63c-1.92-3.46-1.31-6.72,1.76-9.43,1.69-1.49,3.36-3.01,5.03-4.53,2.21-2.01,4.49-4.09,6.8-6.08,1.32-1.14,1.59-2.01,1.31-4.23-.68-5.27-3.09-7.48-8.58-7.85-2.8-.19-5.55-.91-8.22-1.61-1.19-.31-2.43-.63-3.63-.9-3.49-.77-5.45-3-5.52-6.29-.13-5.84-.14-11.77-.02-17.65.07-3.41,2.12-5.7,5.78-6.46,1.89-.4,3.78-.82,5.67-1.24,3.34-.75,6.79-1.52,10.22-2.12,1.96-.35,2.5-1.22,3.36-3.3,1.89-4.59.94-7.66-3.3-10.61-2.08-1.45-3.94-3.23-5.73-4.96-.99-.95-2.01-1.93-3.05-2.84-3.14-2.73-3.8-5.98-1.9-9.4,2.57-4.64,5.17-9.12,8.06-14.08,1.97-3.38,5.1-4.48,9.05-3.18,1.8.59,3.61,1.17,5.42,1.74,3.29,1.04,6.69,2.12,10,3.3,1.56.55,2.32.14,3.96-1.08,4.24-3.17,5-6.46,2.6-11.35-1.23-2.5-2-5.23-2.74-7.87-.31-1.1-.62-2.21-.97-3.3-1.21-3.82-.13-6.85,3.12-8.75,4.46-2.61,9.21-5.39,14.07-8.09,3.47-1.93,6.74-1.33,9.44,1.73,1.48,1.67,2.98,3.33,4.49,4.98,2.1,2.31,4.28,4.7,6.36,7.12,1.07,1.25,1.95,1.28,4,1.04,5.19-.59,7.47-3.07,7.86-8.55.18-2.57.84-5.11,1.47-7.56.33-1.29.68-2.63.95-3.93.78-3.82,3.1-5.88,6.72-5.94,5.42-.1,11.12-.11,16.95-.02,3.74.05,6.13,2.19,6.93,6.16l.02.12c1.06,5.27,2.15,10.72,3.53,15.99.21.79,1.28,1.87,2.48,2.49,4.77,2.49,8.35,1.41,11.61-3.5,1.42-2.14,3.25-4.01,5.01-5.82.86-.88,1.75-1.8,2.57-2.72,2.61-2.94,5.78-3.51,9.15-1.65,4.32,2.38,8.93,5.02,14.1,8.04,3.38,1.98,4.48,5.11,3.17,9.06-.62,1.89-1.23,3.79-1.83,5.68-1.02,3.2-2.07,6.51-3.21,9.74-.56,1.59-.13,2.39,1.06,3.96,3.23,4.25,6.52,5.02,11.35,2.63,2.48-1.23,5.2-1.99,7.82-2.73,1.12-.32,2.24-.63,3.34-.98,3.83-1.22,6.86-.15,8.76,3.1,2.52,4.31,5.45,9.33,8.23,14.39,1.81,3.28,1.17,6.43-1.84,9.11-1.5,1.33-2.98,2.68-4.46,4.03-2.48,2.26-5.05,4.59-7.64,6.82-1.26,1.08-1.29,1.96-1.06,4,.58,5.15,3.06,7.43,8.56,7.87,2.77.22,5.5.93,8.15,1.61,1.21.31,2.47.64,3.7.91,3.49.76,5.46,2.99,5.54,6.27.14,5.79.15,11.73.03,17.65-.07,3.41-2.12,5.71-5.76,6.48-1.94.41-3.87.84-5.81,1.27-3.29.74-6.69,1.5-10.06,2.13-1.94.37-2.59,1.26-3.39,3.25-1.85,4.58-.88,7.66,3.32,10.62,2.26,1.59,4.28,3.53,6.23,5.4.93.89,1.86,1.78,2.82,2.64,2.93,2.62,3.49,5.79,1.62,9.16-2.65,4.78-5.44,9.59-8.06,14.08-1.97,3.37-5.1,4.46-9.06,3.16-1.81-.59-3.63-1.17-5.45-1.75-3.28-1.04-6.67-2.12-9.98-3.29-1.55-.55-2.28-.16-3.97,1.09-4.23,3.13-4.98,6.42-2.58,11.35,1.23,2.52,2,5.26,2.75,7.91.31,1.09.62,2.18.95,3.25,1.2,3.82.12,6.84-3.14,8.75-3.84,2.26-8.92,5.21-14.07,8.08-3.46,1.93-6.72,1.32-9.44-1.75-1.49-1.69-3-3.35-4.52-5.01-2.09-2.3-4.26-4.68-6.32-7.09-1.1-1.28-1.97-1.24-4.02-1.02-5.15.57-7.42,3.05-7.84,8.57-.22,2.79-.93,5.54-1.62,8.21-.31,1.19-.63,2.43-.9,3.64-.77,3.48-3,5.45-6.29,5.52-3.05.07-6.11.11-9.17.11ZM96.91,342.56c1.47,0,3.06.36,4.8,1.08,2.13.88,3.94,1.85,4.5,4.85.61,3.31,1.36,6.66,2.08,9.9.44,1.98.88,3.95,1.3,5.93.58,2.77,2.07,4.14,4.54,4.2,5.81.13,11.71.12,17.56-.01,2.34-.05,3.82-1.38,4.39-3.95.27-1.24.6-2.5.91-3.71.67-2.58,1.36-5.24,1.56-7.86.5-6.52,3.47-9.73,9.62-10.4,2.02-.22,3.92-.43,5.75,1.71,2.04,2.38,4.2,4.75,6.29,7.04,1.52,1.67,3.04,3.34,4.54,5.04,2.1,2.38,4.31,2.8,6.96,1.33,5.14-2.86,10.2-5.81,14.03-8.06,2.42-1.42,3.16-3.53,2.24-6.43-.34-1.09-.66-2.2-.97-3.31-.73-2.57-1.48-5.22-2.62-7.58-2.8-5.75-1.79-10.15,3.19-13.83,1.54-1.14,3.14-2.32,5.82-1.37,3.28,1.16,6.65,2.23,9.92,3.27,1.82.58,3.65,1.16,5.46,1.75,3.08,1.01,5.21.29,6.71-2.27,2.62-4.48,5.4-9.28,8.04-14.04,1.4-2.53,1-4.72-1.21-6.7-.98-.88-1.94-1.8-2.87-2.69-1.9-1.82-3.87-3.71-6-5.21-4.99-3.51-6.23-7.52-4.02-13,.98-2.43,2.09-3.94,4.88-4.47,3.34-.63,6.73-1.39,10-2.12,1.94-.43,3.88-.87,5.83-1.28,2.76-.58,4.13-2.08,4.18-4.57.12-5.89.11-11.8-.03-17.56-.06-2.33-1.39-3.8-3.97-4.37-1.27-.28-2.54-.61-3.77-.92-2.56-.66-5.21-1.35-7.81-1.55-6.5-.52-9.7-3.49-10.39-9.64-.25-2.26-.28-4,1.74-5.74,2.57-2.21,5.13-4.53,7.6-6.78,1.49-1.35,2.97-2.7,4.47-4.04,2.29-2.05,2.76-4.22,1.42-6.66-2.77-5.04-5.69-10.05-8.21-14.35-1.43-2.44-3.47-3.14-6.43-2.2-1.12.36-2.27.68-3.41,1-2.54.71-5.16,1.45-7.47,2.6-5.65,2.79-10.05,1.77-13.83-3.21-1.32-1.74-2.26-3.27-1.35-5.83,1.13-3.2,2.18-6.49,3.19-9.68.6-1.9,1.21-3.81,1.83-5.7,1.01-3.07.28-5.2-2.29-6.71-5.15-3.02-9.75-5.64-14.05-8.02-2.52-1.39-4.71-.99-6.69,1.23-.85.96-1.75,1.89-2.63,2.79-1.78,1.83-3.45,3.55-4.78,5.54-3.84,5.78-8.49,7.14-14.2,4.16-1.44-.75-3.08-2.21-3.49-3.76-1.4-5.32-2.5-10.8-3.56-16.1l-.02-.12c-.61-3.06-2.2-4.51-5-4.55-5.8-.09-11.48-.08-16.88.02-2.68.05-4.2,1.43-4.79,4.34-.28,1.36-.63,2.72-.97,4.04-.64,2.47-1.25,4.81-1.42,7.2-.46,6.48-3.43,9.69-9.63,10.4-2.27.26-4.02.29-5.75-1.73-2.06-2.4-4.22-4.78-6.32-7.08-1.51-1.66-3.02-3.32-4.51-5-2.1-2.37-4.31-2.79-6.97-1.3-4.83,2.69-9.58,5.46-14.03,8.07-2.45,1.44-3.15,3.48-2.22,6.43.35,1.11.67,2.23.99,3.36.72,2.55,1.47,5.19,2.61,7.53,2.8,5.71,1.78,10.11-3.2,13.83-1.82,1.36-3.31,2.26-5.83,1.36-3.28-1.16-6.67-2.24-9.94-3.28-1.82-.58-3.63-1.15-5.44-1.75-3.07-1.01-5.2-.29-6.7,2.28-2.88,4.95-5.48,9.42-8.04,14.05-1.44,2.6-.97,4.8,1.47,6.92,1.08.94,2.12,1.94,3.12,2.91,1.74,1.67,3.53,3.4,5.49,4.76,5.04,3.51,6.27,7.52,4.01,13.01-.92,2.23-1.86,3.98-4.86,4.5-3.39.6-6.82,1.36-10.13,2.11-1.9.42-3.79.85-5.7,1.25-2.77.58-4.14,2.07-4.19,4.55-.12,5.84-.11,11.75.02,17.56.05,2.34,1.38,3.82,3.95,4.38,1.24.27,2.5.6,3.71.92,2.58.67,5.24,1.37,7.85,1.55,6.41.44,9.63,3.4,10.43,9.59.32,2.45.09,4.21-1.98,6-2.29,1.96-4.56,4.04-6.76,6.04-1.68,1.53-3.35,3.06-5.05,4.56-2.38,2.1-2.8,4.31-1.33,6.96l.35.63c2.34,4.23,4.76,8.61,7.33,12.78,2.09,3.38,3.48,3.87,7.47,2.61,1.81-.57,3.6-1.16,5.41-1.74,3.29-1.07,6.68-2.18,10.06-3.16,1.28-.37,3.25-.22,4.32.69,6.63,5.61,6.78,6.15,4.12,14.41-1.15,3.55-2.25,7.02-3.33,10.49-.19.61-.34,1.25-.55,2.13-.09.37-.18.78-.29,1.24.19.27.38.56.58.86.61.94,1.3,2,2.17,2.56,4.35,2.79,8.96,5.36,13.42,7.84l.82.46c2.6,1.45,4.81,1,6.94-1.43.92-1.04,1.89-2.06,2.83-3.04,1.69-1.76,3.44-3.59,4.83-5.57,2.41-3.44,5.05-5.11,8.21-5.11ZM127.66,359.54h-9.57l-.17-.79c-.38-1.72-.76-3.44-1.15-5.16-.9-4.01-1.84-8.15-2.61-12.27-.64-3.41-2.35-5.06-5.92-5.71-4.64-.85-9.22-2.28-12.69-3.44-2.91-.97-4.88-.47-6.82,1.72-2.85,3.23-5.69,6.34-8.71,9.64-1.23,1.35-2.48,2.71-3.73,4.09l-.54.59-8.29-4.69,1.75-5.52c1.2-3.77,2.39-7.52,3.59-11.27,1.72-5.35,1.46-5.75-2.49-9.37-2.85-2.61-5.7-5.51-8.71-8.86-2.07-2.3-4.03-2.86-6.76-1.92-4.06,1.4-8.07,2.65-12.31,3.98-1.75.55-3.52,1.1-5.3,1.67l-.76.24-4.8-8.25.6-.54c1.28-1.16,2.54-2.32,3.81-3.49,2.91-2.68,5.92-5.46,9.01-8.05,3.15-2.64,3.81-5.1,2.35-8.76-1.55-3.91-2.42-8.11-3.18-12.08-.62-3.21-2.22-4.85-5.36-5.46-4.13-.81-8.14-1.69-12.39-2.62-1.76-.39-3.53-.78-5.32-1.16l-.79-.17v-9.58l.79-.17c1.75-.38,3.48-.78,5.21-1.17,3.96-.9,8.06-1.82,12.11-2.58,3.48-.65,5.16-2.34,5.79-5.84.73-4.01,1.85-8.17,3.34-12.37,1.14-3.22.55-5.44-2.03-7.67-3.12-2.69-6.1-5.42-9.25-8.31-1.33-1.22-2.67-2.45-4.04-3.69l-.59-.54,4.7-8.32.78.25c1.76.56,3.51,1.11,5.24,1.66,4.15,1.3,8.07,2.54,12.03,3.92,3,1.05,5.13.45,7.35-2.06,3.06-3.47,6.2-6.6,9.31-9.3,2.6-2.26,3.2-4.48,2.07-7.66-1.37-3.88-2.58-7.73-3.87-11.81-.54-1.72-1.09-3.45-1.65-5.21l-.25-.77,8.31-4.74.54.59c1.23,1.35,2.45,2.69,3.67,4.01,2.88,3.14,5.6,6.1,8.28,9.22,2.29,2.67,4.6,3.26,7.95,2.04,3.58-1.3,7.52-2.35,12.38-3.3,3.31-.64,4.91-2.18,5.53-5.3.81-4.13,1.69-8.14,2.62-12.4.39-1.77.78-3.55,1.16-5.34l.17-.79h9.64l.17.79c.38,1.75.77,3.5,1.15,5.25.89,4.03,1.82,8.2,2.61,12.32.62,3.25,2.28,4.84,5.73,5.51,3.83.74,7.85,1.82,13.02,3.52,2.74.89,4.69.4,6.54-1.66,2.88-3.22,5.79-6.41,8.77-9.68l4.29-4.72,8.35,4.66-1.88,5.81c-1.25,3.87-2.48,7.68-3.7,11.49-1.48,4.61-1.09,5.36,2.32,8.5,2.83,2.61,5.76,5.58,9.21,9.35,2,2.19,3.88,2.71,6.49,1.83,4.08-1.39,8.13-2.65,12.42-4,1.76-.55,3.55-1.11,5.36-1.69l.77-.24,4.76,8.26-.6.54c-1.41,1.28-2.79,2.54-4.14,3.78-3.18,2.91-6.18,5.66-9.3,8.35-2.5,2.16-3.05,4.38-1.88,7.69,1.59,4.5,2.64,9.15,3.37,12.7.64,3.09,2.19,4.66,5.17,5.26,4.14.82,8.18,1.7,12.46,2.62,1.77.38,3.55.77,5.35,1.15l.79.17v9.68l-.79.17c-1.71.37-3.43.75-5.14,1.14-4.02.9-8.18,1.83-12.31,2.61-3.33.63-4.94,2.26-5.58,5.64-.85,4.49-1.97,8.66-3.31,12.38-1.2,3.32-.59,5.62,2.12,7.93,3.07,2.61,5.99,5.3,9.08,8.15,1.33,1.22,2.67,2.46,4.05,3.71l.59.53-4.64,8.36-.78-.25c-1.7-.55-3.4-1.08-5.08-1.61-3.86-1.21-7.85-2.46-11.71-3.84-3.44-1.24-5.82-.57-8.2,2.29-2.53,3.04-5.5,6.01-8.84,8.83-2.73,2.3-3.35,4.59-2.16,7.92,1.36,3.79,2.55,7.58,3.81,11.59.54,1.71,1.09,3.45,1.66,5.21l.25.76-8.25,4.87-.55-.6c-1.21-1.33-2.41-2.64-3.62-3.95-2.74-2.98-5.58-6.06-8.24-9.19-2.39-2.81-4.77-3.43-8.22-2.12-3.57,1.35-7.63,2.44-12.07,3.22-3.47.61-5.15,2.3-5.79,5.82-.75,4.04-1.67,8.14-2.56,12.1-.39,1.72-.78,3.45-1.16,5.2l-.17.79ZM119.69,357.54h6.35c.33-1.48.66-2.96.99-4.42.89-3.94,1.81-8.01,2.55-12.02.81-4.37,3.09-6.66,7.41-7.42,4.32-.76,8.26-1.81,11.71-3.12,4.27-1.62,7.49-.79,10.46,2.7,2.63,3.1,5.46,6.17,8.19,9.13,1.02,1.11,2.05,2.23,3.08,3.36l5.47-3.23c-.48-1.51-.95-2.99-1.42-4.46-1.26-3.99-2.45-7.76-3.79-11.52-1.48-4.15-.63-7.27,2.75-10.13,3.25-2.74,6.14-5.62,8.59-8.58,2.94-3.54,6.15-4.43,10.41-2.9,3.82,1.37,7.61,2.56,11.63,3.82,1.43.45,2.87.9,4.31,1.36l3.07-5.54c-1.18-1.07-2.33-2.14-3.48-3.19-3.08-2.83-5.99-5.51-9.03-8.1-3.37-2.87-4.2-5.99-2.7-10.13,1.31-3.62,2.4-7.68,3.23-12.07.79-4.16,3.07-6.45,7.18-7.23,4.1-.78,8.24-1.7,12.25-2.59,1.46-.33,2.91-.65,4.37-.97v-6.45c-1.53-.33-3.06-.66-4.56-.99-4.27-.93-8.3-1.8-12.43-2.62-3.79-.75-5.93-2.92-6.74-6.81-.72-3.49-1.75-8.05-3.3-12.44-1.45-4.11-.69-7.16,2.46-9.87,3.1-2.67,6.09-5.4,9.25-8.3,1.17-1.07,2.35-2.15,3.56-3.25l-3.15-5.47c-1.55.49-3.08.97-4.6,1.45-4.28,1.34-8.31,2.6-12.37,3.98-3.34,1.14-6.08.38-8.6-2.37-3.41-3.72-6.3-6.66-9.09-9.23-4.11-3.79-4.54-5.37-2.87-10.59,1.22-3.81,2.45-7.62,3.7-11.49l1.37-4.25-5.54-3.08-3.22,3.54c-2.98,3.27-5.88,6.46-8.75,9.67-2.39,2.67-5.14,3.38-8.65,2.23-5.09-1.67-9.03-2.73-12.78-3.45-4.27-.83-6.53-3.01-7.31-7.09-.79-4.09-1.71-8.25-2.6-12.27-.33-1.49-.66-2.98-.99-4.47h-6.41c-.33,1.53-.66,3.05-.99,4.56-.93,4.24-1.81,8.25-2.61,12.36-.77,3.9-3.03,6.08-7.11,6.88-4.76.93-8.6,1.95-12.08,3.22-4.17,1.52-7.3.71-10.16-2.62-2.65-3.09-5.37-6.05-8.23-9.17-1.04-1.13-2.08-2.27-3.13-3.42l-5.5,3.14c.48,1.5.95,2.98,1.41,4.45,1.28,4.06,2.49,7.9,3.85,11.74,1.39,3.93.55,7.06-2.65,9.83-3.05,2.65-6.11,5.71-9.12,9.12-2.74,3.1-5.77,3.94-9.51,2.62-3.93-1.38-7.84-2.6-11.97-3.9-1.48-.47-2.97-.93-4.48-1.41l-3.11,5.51c1.17,1.06,2.32,2.12,3.46,3.16,3.14,2.88,6.11,5.6,9.21,8.27,3.19,2.74,4.02,5.87,2.61,9.85-1.45,4.1-2.54,8.16-3.25,12.06-.79,4.35-3.07,6.64-7.4,7.45-4.01.75-7.91,1.63-12.04,2.56-1.47.33-2.95.67-4.44,1v6.36c1.52.33,3.03.66,4.54.99,4.24.93,8.24,1.81,12.34,2.62,3.96.78,6.17,3.01,6.94,7.05.74,3.88,1.59,7.97,3.08,11.72,1.77,4.45.87,7.85-2.93,11.03-3.05,2.56-6.04,5.32-8.94,7.99-1.07.99-2.14,1.97-3.22,2.96l3.18,5.47c1.52-.48,3.04-.96,4.54-1.43,4.23-1.33,8.23-2.58,12.26-3.96,3.48-1.2,6.31-.41,8.9,2.47,2.97,3.3,5.77,6.16,8.57,8.72,4.61,4.23,4.96,5.51,3.05,11.46-1.2,3.75-2.39,7.5-3.59,11.27l-1.26,3.97,5.49,3.1c1.07-1.18,2.14-2.34,3.2-3.5,3.01-3.29,5.85-6.4,8.68-9.61,2.46-2.79,5.3-3.52,8.95-2.3,3.41,1.14,7.9,2.55,12.42,3.37,4.41.8,6.73,3.06,7.52,7.31.77,4.08,1.7,8.21,2.6,12.2.33,1.46.66,2.93.98,4.39Z"/>
  </g>
  <g>
    <path class="cls-1" d="M202.63,44.25c1.52.57,2.76.91,3.9,1.47,3.88,1.95,7.71,4.02,11.59,5.97,3.11,1.56,5.42.59,6.49-2.7,1.39-4.24,2.75-8.49,4.05-12.76.85-2.79,2.61-4.49,5.56-4.55,4.8-.1,9.61-.1,14.42-.01,3.11.06,4.87,1.88,5.74,4.81,1.2,4.05,2.54,8.06,3.84,12.08,1.27,3.92,3.47,4.81,7.2,2.89,3.76-1.94,7.51-3.88,11.23-5.9,2.71-1.47,5.25-1.33,7.46.79,3.39,3.25,6.7,6.59,9.96,9.97,2.14,2.22,2.28,4.75.83,7.46-1.89,3.52-3.7,7.08-5.55,10.62-2.47,4.75-1.69,6.56,3.51,8.17,3.59,1.11,7.16,2.29,10.77,3.33,3.19.92,5.17,2.79,5.2,6.22.05,4.69.04,9.38-.07,14.07-.07,2.95-1.77,4.72-4.54,5.58-4.26,1.32-8.51,2.69-12.76,4.06-3.26,1.05-4.28,3.42-2.73,6.49,1.96,3.88,3.93,7.76,6.03,11.56,1.55,2.82,1.52,5.42-.74,7.76-3.26,3.38-6.57,6.72-9.97,9.96-2.22,2.12-4.77,2.17-7.47.71-3.82-2.07-7.68-4.07-11.55-6.05-3.23-1.65-5.59-.65-6.72,2.82-1.38,4.24-2.72,8.5-4.06,12.75-.83,2.62-2.53,4.3-5.33,4.36-4.92.11-9.85.12-14.77,0-2.95-.06-4.67-1.82-5.5-4.61-1.07-3.6-2.52-7.11-3.33-10.76-1.19-5.38-4.2-6.77-9.2-3.67-3.09,1.91-6.46,3.36-9.65,5.11-2.83,1.56-5.42,1.42-7.74-.86-3.36-3.28-6.7-6.58-9.94-9.98-2.02-2.12-2.14-4.59-.78-7.16,2.03-3.84,4.06-7.68,6.06-11.55,1.8-3.49.88-5.79-2.79-6.99-4.13-1.35-8.26-2.7-12.42-3.95-2.8-.84-4.55-2.54-4.62-5.49-.12-4.8-.13-9.61-.04-14.42.06-3.08,1.77-4.9,4.75-5.77,4.28-1.25,8.52-2.64,12.75-4.05,3.02-1.01,4.04-3.46,2.62-6.3-1.89-3.78-3.76-7.59-5.88-11.24-1.94-3.36-1.62-6.25,1.07-8.93,3.08-3.06,6.13-6.17,9.32-9.11,1.07-.98,2.55-1.5,3.81-2.2ZM278.78,140.59c2.28-.06,4.58-3.98,3.62-5.94-.73-1.47-1.33-3.05-2.3-4.36-4.46-6.05-5.22-12.11-1.29-18.88,1.52-2.63,2.97-4.58,5.95-5.4,3.62-1,7.12-2.43,10.76-3.3,2.37-.57,2.47-1.98,2.48-3.87,0-1.79-.17-3.05-2.35-3.6-3.86-.98-7.72-2.11-11.39-3.63-1.8-.74-3.83-2.15-4.65-3.81-4.93-9.98-4.82-10.03.28-19.75.66-1.25,1.19-2.57,1.97-3.74,1.35-2.01,1.45-3.51-.49-5.44-1.91-1.89-3.34-1.51-5.18-.31-.98.64-2.19.95-3.11,1.64-6.25,4.72-12.77,5.49-19.42,1.11-1.91-1.26-3.86-3.07-4.78-5.09-1.65-3.6-2.68-7.52-3.66-11.38-.54-2.13-1.72-2.45-3.57-2.4-1.84.05-3.5-.04-3.88,2.44-.25,1.61-1.14,3.11-1.4,4.71-1.2,7.4-4.9,12.48-12.57,14.05-.23.05-.43.27-.65.27-2.13-.03-4.48.46-6.35-.27-3.7-1.45-7.17-3.5-10.65-5.46-1.68-.94-2.77-.88-4.3.49-2.08,1.86-2.07,3.37-.76,5.7,3.92,6.97,9.08,13.89,2.9,22.22-.13.18-.12.49-.27.64-1.44,1.42-2.67,3.35-4.41,4.12-3.41,1.51-7.11,2.37-10.7,3.48-2.03.63-3.79,1.01-3.76,4.05.02,2.91,1.47,3.59,3.64,4.15,1.25.32,2.46.85,3.72,1.05,7.26,1.16,12.02,4.86,13.98,12.28.77,2.9,1.31,5.34-.23,8.05-1.79,3.16-3.28,6.51-5.14,9.63-1.17,1.97-.88,3.21.68,4.85,1.75,1.85,3.11,1.73,5.15.55,7.07-4.08,14.1-9.12,22.55-2.98.09.07.25.05.33.12,1.55,1.62,3.66,3,4.52,4.93,1.65,3.73,2.75,7.74,3.76,11.72.58,2.26,2,2.2,3.7,2.21,1.74.02,3.1-.04,3.66-2.26,1.01-3.97,2.11-7.98,3.77-11.72.85-1.93,2.75-3.65,4.58-4.84,6.63-4.32,13.15-3.79,19.44,1,1.29.98,2.89,1.55,4.36,2.3.52.26,1.06.49,1.46.68Z"/>
    <path class="cls-1" d="M241.29,167.26c-2.42,0-4.82-.03-7.17-.08-3.19-.07-5.42-1.91-6.44-5.33-.39-1.32-.85-2.65-1.29-3.94-.76-2.23-1.54-4.54-2.06-6.89-.52-2.36-1.38-3.81-2.56-4.3-1.22-.52-2.95-.09-5.13,1.26-1.9,1.18-3.91,2.18-5.86,3.16-1.27.63-2.58,1.29-3.83,1.98-3.35,1.84-6.35,1.5-8.92-1.02-3.06-3-6.62-6.49-9.97-10-2.25-2.35-2.57-5.23-.94-8.32,2.05-3.88,4.06-7.67,6.05-11.54.76-1.48.97-2.67.61-3.54-.35-.86-1.3-1.54-2.82-2.04-4.03-1.32-8.19-2.68-12.39-3.94-4.31-1.29-5.28-4.2-5.34-6.42-.12-4.74-.13-9.6-.04-14.46.06-3.37,1.96-5.69,5.47-6.71,4.32-1.26,8.65-2.69,12.72-4.04,1.2-.4,2.02-1.06,2.37-1.9.35-.84.23-1.88-.33-3l-.61-1.22c-1.65-3.31-3.36-6.73-5.24-9.97-2.17-3.75-1.76-7.16,1.23-10.14l1.77-1.77c2.45-2.45,4.98-4.98,7.58-7.37.84-.77,1.85-1.27,2.83-1.74.4-.19.79-.39,1.17-.6l.4-.23.43.16c.49.18.96.34,1.4.5.92.32,1.78.61,2.6,1.02,1.95.98,3.89,1.99,5.83,3,1.92,1,3.83,2,5.76,2.97,1.27.64,2.34.79,3.17.44.83-.35,1.48-1.21,1.92-2.56,1.63-4.98,2.91-9.03,4.05-12.74,1.03-3.37,3.28-5.19,6.5-5.26,4.84-.1,9.7-.1,14.46-.01,3.36.06,5.61,1.92,6.68,5.53.94,3.17,1.98,6.37,2.99,9.46l.84,2.6c.54,1.67,1.22,2.66,2.08,3.01.88.36,2.09.13,3.71-.7,3.48-1.8,7.43-3.84,11.21-5.89,3.19-1.73,6.18-1.41,8.63.95,3.08,2.95,6.35,6.22,9.99,9.99,2.36,2.45,2.7,5.43.99,8.62-1.39,2.59-2.74,5.2-4.09,7.81l-1.45,2.8c-1.12,2.16-1.46,3.52-1.1,4.39.37.89,1.61,1.62,4.01,2.37,1.14.35,2.27.71,3.4,1.07,2.4.76,4.89,1.55,7.35,2.25,3.9,1.12,5.89,3.53,5.93,7.17.05,5.15.03,9.76-.07,14.1-.07,3.22-1.89,5.47-5.25,6.51-4.18,1.3-8.25,2.6-12.75,4.05-.92.3-2.11.87-2.56,1.94-.44,1.06-.02,2.3.41,3.15,1.98,3.92,3.92,7.74,6.01,11.53,1.86,3.38,1.56,6.39-.9,8.94-3.82,3.96-7,7.13-10,9.99-2.43,2.31-5.42,2.61-8.64.86-3.99-2.17-8.07-4.27-11.53-6.03-1.32-.68-2.43-.84-3.29-.48-.87.36-1.55,1.27-2.02,2.71-1.28,3.95-2.53,7.91-3.78,11.88l-.27.87c-1.02,3.24-3.19,4.99-6.27,5.06-2.56.06-5.11.08-7.64.08ZM220.67,144.51c.67,0,1.3.12,1.87.37,1.81.76,3.07,2.69,3.74,5.71.5,2.25,1.26,4.5,2,6.68.44,1.31.9,2.66,1.31,4.01.78,2.61,2.23,3.85,4.57,3.9,4.78.11,9.73.1,14.72,0,2.2-.05,3.64-1.25,4.4-3.66l.27-.87c1.25-3.97,2.51-7.93,3.79-11.89.66-2.02,1.72-3.35,3.15-3.95,1.43-.59,3.1-.41,4.97.55,3.48,1.77,7.57,3.88,11.58,6.06,2.45,1.33,4.51,1.15,6.31-.56,2.97-2.83,6.13-5.99,9.94-9.93,1.83-1.89,2.01-3.99.58-6.58-2.1-3.82-4.06-7.66-6.04-11.59-.89-1.77-1.06-3.43-.47-4.83.58-1.4,1.89-2.46,3.79-3.07,4.5-1.45,8.57-2.76,12.77-4.06,2.53-.79,3.79-2.3,3.84-4.65.1-4.31.12-8.91.07-14.03-.03-2.73-1.45-4.4-4.48-5.27-2.48-.71-4.98-1.5-7.4-2.27-1.13-.36-2.26-.71-3.39-1.07-3.06-.95-4.64-2-5.27-3.51-.62-1.49-.27-3.31,1.17-6.08l1.45-2.8c1.35-2.62,2.71-5.24,4.1-7.83,1.3-2.42,1.08-4.48-.67-6.29-3.62-3.75-6.86-7-9.93-9.94-1.81-1.74-3.87-1.94-6.3-.63-3.8,2.06-7.76,4.11-11.25,5.91-2.17,1.12-3.93,1.38-5.39.78-1.44-.59-2.49-1.98-3.22-4.24l-.84-2.59c-1.01-3.11-2.06-6.32-3-9.52-.81-2.75-2.34-4.05-4.8-4.09-4.73-.09-9.57-.09-14.38.01-2.34.05-3.85,1.3-4.62,3.84-1.14,3.73-2.43,7.79-4.06,12.78-.63,1.93-1.66,3.21-3.05,3.79-1.39.58-3.02.41-4.84-.5-1.94-.97-3.86-1.98-5.79-2.98-1.93-1.01-3.86-2.01-5.81-2.99-.7-.35-1.46-.61-2.35-.92-.33-.11-.67-.23-1.02-.36-.28.15-.57.29-.86.43-.89.43-1.73.84-2.35,1.42-2.57,2.36-5.09,4.88-7.52,7.31l-1.77,1.77c-2.36,2.35-2.64,4.73-.91,7.72,1.91,3.29,3.63,6.74,5.3,10.08l.61,1.22c.83,1.66.96,3.27.39,4.66-.58,1.4-1.82,2.44-3.58,3.03-4.09,1.36-8.44,2.8-12.79,4.07-2.7.79-3.98,2.32-4.03,4.83-.09,4.83-.08,9.67.04,14.37.06,2.33,1.3,3.78,3.91,4.55,4.22,1.26,8.4,2.63,12.44,3.95,2.1.69,3.47,1.76,4.05,3.18.59,1.44.36,3.2-.68,5.22-2,3.87-4.01,7.68-6.06,11.56-1.23,2.32-1.03,4.29.62,6.01,3.33,3.49,6.73,6.83,9.92,9.95,1.92,1.88,4.01,2.1,6.56.69,1.29-.71,2.62-1.37,3.9-2.02,1.91-.96,3.88-1.94,5.7-3.07,1.9-1.18,3.61-1.77,5.09-1.77ZM241.85,156.44c-.12,0-.24,0-.35,0h-.16c-1.67-.01-3.75-.03-4.5-2.97-.92-3.62-2.04-7.79-3.71-11.56-.51-1.14-1.59-2.12-2.74-3.15-.47-.43-.96-.86-1.42-1.33-.11-.03-.24-.09-.36-.18-7.28-5.29-13.39-1.7-19.85,2.1-.54.32-1.07.63-1.61.94-2.21,1.27-4.14,1.64-6.38-.73-1.92-2.03-2.15-3.79-.81-6.05,1-1.69,1.92-3.48,2.81-5.22.74-1.45,1.51-2.95,2.33-4.4,1.31-2.31.9-4.39.13-7.3-1.78-6.72-5.97-10.39-13.17-11.54-.84-.13-1.63-.39-2.4-.64-.47-.15-.94-.31-1.41-.43-2.21-.56-4.37-1.42-4.39-5.11-.03-3.64,2.22-4.32,4.19-4.93l.28-.08c.99-.3,1.98-.59,2.98-.88,2.55-.74,5.2-1.5,7.62-2.56,1.01-.45,1.88-1.44,2.8-2.49.38-.44.78-.89,1.19-1.31.06-.21.13-.43.28-.64,5.2-7.01,1.79-12.9-1.83-19.14-.39-.67-.77-1.33-1.15-2-1.36-2.43-1.72-4.54.96-6.94,1.82-1.63,3.35-1.8,5.46-.61l1.22.69c3,1.7,6.1,3.46,9.3,4.71,1.1.43,2.49.35,3.96.27.62-.04,1.24-.08,1.88-.07.18-.1.36-.2.59-.24,6.71-1.37,10.56-5.7,11.79-13.23.14-.89.45-1.72.75-2.52.28-.76.54-1.48.65-2.19.49-3.19,2.85-3.24,4.58-3.28h.27c1.94-.05,3.84.29,4.56,3.15,1.04,4.1,2.03,7.78,3.6,11.21.73,1.59,2.34,3.29,4.42,4.67,6.06,3.99,12.03,3.64,18.27-1.07.59-.45,1.24-.74,1.87-1.02.47-.21.91-.41,1.29-.66,1.88-1.22,3.96-2.01,6.43.44,2.16,2.14,2.34,4.15.62,6.71-.48.72-.87,1.52-1.28,2.37-.21.43-.41.86-.64,1.28l-.12.23q-4.82,9.17-.15,18.61c.7,1.41,2.58,2.69,4.13,3.33,3.17,1.3,6.74,2.44,11.26,3.58,2.87.73,3.11,2.66,3.1,4.58,0,1.71-.01,4.06-3.25,4.84-2,.48-4.01,1.15-5.96,1.79-1.55.52-3.16,1.05-4.78,1.5-2.5.69-3.76,2.2-5.35,4.94-3.57,6.15-3.18,11.8,1.23,17.79.77,1.05,1.32,2.23,1.85,3.38.18.38.35.76.53,1.13.72,1.46.14,3.36-.64,4.66-1.01,1.67-2.45,2.69-3.85,2.73h-.23s-.58-.26-.58-.26c-.35-.16-.74-.33-1.13-.53-.43-.22-.87-.42-1.32-.63-1.08-.5-2.21-1.01-3.19-1.76-6.13-4.66-12.11-4.98-18.29-.95-2.02,1.31-3.56,2.92-4.21,4.41-1.66,3.74-2.74,7.76-3.71,11.56-.72,2.83-2.7,3.02-4.29,3.02ZM229.66,135.55c.16.04.39.12.59.33.45.47.95.92,1.48,1.4,1.25,1.13,2.55,2.29,3.23,3.83,1.73,3.91,2.88,8.18,3.82,11.88.35,1.38.86,1.45,2.58,1.46h.16c1.73.01,2.31-.05,2.68-1.51.99-3.88,2.1-8,3.82-11.88,1.11-2.51,3.58-4.38,4.95-5.27,6.88-4.48,13.8-4.13,20.59,1.04.81.62,1.79,1.07,2.82,1.54.47.21.94.43,1.39.66.35.18.72.34,1.04.48l.14.06c.65-.13,1.43-.8,1.99-1.74.62-1.03.85-2.15.56-2.74-.19-.39-.37-.78-.56-1.17-.51-1.1-.99-2.14-1.65-3.03-4.87-6.61-5.31-13.14-1.35-19.98,1.48-2.55,3.09-4.91,6.55-5.86,1.56-.43,3.15-.96,4.68-1.46,1.98-.66,4.04-1.34,6.12-1.84,1.62-.39,1.71-1.05,1.71-2.9,0-1.78-.18-2.27-1.59-2.63-4.61-1.17-8.27-2.33-11.53-3.67-1.85-.76-4.17-2.29-5.17-4.29-5.02-10.16-5.02-10.54.17-20.43l.12-.23c.21-.4.41-.81.6-1.22.42-.87.86-1.77,1.42-2.61,1.19-1.77,1.11-2.71-.37-4.18-1.42-1.41-2.26-1.27-3.93-.19-.51.33-1.04.57-1.56.81-.55.25-1.07.48-1.49.8-6.9,5.21-13.82,5.6-20.57,1.15-1.4-.92-3.94-2.87-5.14-5.51-1.64-3.58-2.65-7.35-3.72-11.55-.37-1.47-.93-1.69-2.57-1.65h-.27c-1.87.05-2.42.12-2.65,1.59-.14.91-.45,1.76-.75,2.58-.27.74-.53,1.45-.65,2.15-1.37,8.45-5.74,13.31-13.36,14.87-.17.12-.46.28-.86.29-.6-.01-1.23.02-1.89.06-1.62.09-3.3.19-4.8-.4-3.33-1.31-6.5-3.1-9.56-4.83l-1.21-.69c-1.35-.76-1.97-.69-3.14.36-1.6,1.43-1.72,2.39-.55,4.47.37.66.75,1.32,1.13,1.97,3.59,6.2,7.66,13.22,1.76,21.26-.07.27-.16.57-.42.83-.41.4-.8.85-1.21,1.32-1.02,1.17-2.08,2.38-3.5,3.01-2.54,1.12-5.25,1.9-7.87,2.65-.98.28-1.97.57-2.94.87l-.28.09c-1.86.57-2.79.85-2.78,3,.02,2.22.89,2.68,2.88,3.18.52.13,1.03.3,1.54.46.73.24,1.41.46,2.09.57,7.97,1.27,12.81,5.53,14.79,13.01.7,2.63,1.49,5.6-.32,8.79-.8,1.41-1.55,2.89-2.29,4.32-.9,1.76-1.83,3.59-2.87,5.33-.89,1.5-.78,2.25.54,3.65,1.29,1.37,2.06,1.44,3.92.37.53-.31,1.06-.62,1.59-.93,6.7-3.94,13.63-8.01,21.92-2.09ZM229.78,135.64s0,0,0,0c0,0,0,0,0,0ZM203.02,86.52s0,0,0,0c0,0,0,0,0,0ZM223.15,62.9h0,0Z"/>
  </g>
  <g>
    <path class="cls-1" d="M324.25,275.21c-3.67-1.66-6.66-2.98-9.62-4.36-3.97-1.84-6.88-.62-8.39,3.56-.04.11-.09.22-.14.32-1.6,3.29-1.23,8.57-5.3,9.37-5.39,1.06-11.15.52-16.72.21-1.15-.07-2.5-2.01-3.2-3.38-1.11-2.18-1.75-4.6-2.6-6.91-1.36-3.72-4.39-4.97-7.99-3.32-.64.29-1.26.63-1.9.93-8.44,4.03-9.14,3.9-15.82-2.79-.17-.17-.32-.34-.49-.51-6.54-6.77-6.51-7.03-2.63-15.57.85-1.87,1.3-4.09,1.26-6.14-.04-2.16-1.64-3.52-3.88-3.88-.11-.02-.22-.09-.32-.14-3.3-1.58-8.59-1.19-9.42-5.22-1.1-5.38-.6-11.14-.27-16.71.07-1.22,2.17-2.64,3.63-3.39,2.17-1.12,4.62-1.71,6.93-2.56,3.25-1.2,4.65-4.42,3.24-7.51-1.02-2.24-2.09-4.47-3.17-6.68-1.28-2.63-.98-5.06,1.03-7.15,2.76-2.88,5.58-5.71,8.48-8.45,2.1-1.98,4.56-2.21,7.17-.9,2,1,4.02,1.94,6.04,2.88,3.84,1.78,6.7.56,8.17-3.48.16-.44.32-.89.52-1.31,1.42-3.12,1.24-8.05,5.12-8.65,5.56-.86,11.37-.27,17.05.11,1.03.07,2.2,1.99,2.82,3.29,1.06,2.21,1.72,4.61,2.57,6.93,1.28,3.48,4.42,4.79,7.78,3.25,1.17-.54,2.34-1.1,3.5-1.66,6.7-3.19,7.31-3.1,12.7,1.83.43.4.86.8,1.28,1.21,7.5,7.28,7.58,7.7,3.08,17.21-2.45,5.18-1.47,7.62,3.87,9.56,10.23,3.73,10.38,3.94,10.15,14.97-.17,8.24-.62,8.86-8.36,11.64-1.11.4-2.22.78-3.31,1.2-3.22,1.23-4.48,4.4-3.03,7.61.29.64.61,1.27.91,1.91,4.19,8.84,4.15,9.43-2.99,16.33-2.39,2.31-5.15,4.23-7.75,6.34ZM263.94,196.44c-2.07-.97-4.43.65-4.26,2.93,0,.08.01.16.02.23.15,1.75,1.33,3.48,2.27,5.09,1.83,3.14,1.95,6.17-.05,9.28-.56.88-1.07,1.88-1.26,2.9-.84,4.66-3.86,6.8-8.16,8.16-1.96.62-5.36,0-5.38,3.77-.03,3.8,3.12,3.86,5.32,3.9,4.08.07,5.48,2.18,6.55,4.17,3.44,6.37,6.59,13.04,1.02,20.15-.92,1.17-.12,2.85.48,3.55,1.03,1.2,2.22.96,3.17.68,1.89-.56,3.67-1.55,5.42-2.5,2.61-1.4,4.97-.82,7.72,0,7,2.1,11.7,5.96,12.93,13.49.11.7.78,1.71,2.46,1.63,2.32-.1,2.33-.9,2.77-1.78,1.04-2.08,1.44-4.48,2.47-6.57.69-1.39,1.78-2.94,3.1-3.59,6.58-3.22,13.29-6.36,20.22-.69.76.53,1.76.53,3.25-.5s1.07-2.25.77-3.16c-.72-2.22-2.17-4.2-2.81-6.43-.49-1.68-.64-3.73-.15-5.38,2.11-7.09,5.29-13.29,13.85-14.29.7-.08,1.6-.7,1.71-2.42.15-2.28-.81-2.41-1.67-2.85-2.08-1.05-4.48-1.45-6.57-2.46-1.4-.68-3.01-1.72-3.65-3.03-3.18-6.56-6.43-13.25-.79-20.21-.17.27,1.83-1.73-.63-3.51-1.59-1.15-2.26-.84-3.21-.53-2.1.69-3.99,2.08-6.1,2.69-1.7.49-3.76.74-5.39.23-6.99-2.19-13.41-5.12-14.41-13.78-.09-.74-.43-1.83-2.68-1.81-1.76.02-2.46,1.06-2.63,1.89-.88,4.21-2.6,8.36-6.56,10.52-1.6.87-7.7,3.26-9.17,3.56-1.62.33-3.34-.08-4.78-.83-1.6-.83-3.23-1.58-5.19-2.5Z"/>
    <path class="cls-1" d="M293.44,285.74c-2.49,0-4.98-.15-7.44-.3l-1.99-.12c-1.94-.11-3.58-3.03-4.03-3.92-.81-1.58-1.37-3.27-1.92-4.91-.24-.71-.47-1.42-.73-2.12-.57-1.55-1.47-2.62-2.6-3.09-1.13-.47-2.53-.35-4.04.34-.35.16-.7.34-1.04.51-.28.14-.56.28-.84.42-8.85,4.22-9.96,4.03-16.96-2.98-.11-.11-.21-.22-.32-.33l-.18-.19c-6.81-7.05-6.92-7.67-2.82-16.68.78-1.71,1.21-3.79,1.17-5.71-.04-2.19-2.14-2.76-3.04-2.91-.24-.04-.43-.14-.54-.19-.98-.47-2.1-.75-3.29-1.04-2.83-.7-6.03-1.5-6.73-4.91-1.03-5.02-.7-10.33-.38-15.46l.09-1.51c.12-1.93,2.96-3.59,4.17-4.22,1.52-.79,3.16-1.32,4.74-1.83.77-.25,1.54-.5,2.3-.78,1.33-.49,2.33-1.4,2.81-2.55.46-1.11.42-2.39-.14-3.61-1.06-2.33-2.19-4.67-3.16-6.66-1.49-3.05-1.07-5.92,1.2-8.28,3.09-3.22,5.88-5.99,8.52-8.49,2.36-2.23,5.24-2.6,8.3-1.07,1.96.98,3.98,1.92,5.94,2.83,1.7.79,3.09.94,4.21.48,1.14-.47,2.04-1.6,2.68-3.35.18-.5.35-.95.54-1.38.37-.81.63-1.78.9-2.81.73-2.76,1.56-5.89,4.98-6.42,5.01-.77,10.21-.4,15.25-.04l2.02.14c1.54.1,2.84,2.16,3.65,3.86.74,1.55,1.3,3.19,1.83,4.78.25.75.5,1.5.78,2.23.53,1.44,1.42,2.46,2.56,2.93,1.14.47,2.47.39,3.86-.25.85-.39,1.69-.79,2.53-1.19l.96-.46c7.08-3.36,8.11-3.22,13.81,2,.44.4.88.82,1.31,1.23,7.82,7.59,7.97,8.44,3.28,18.35-1.13,2.39-1.44,4.04-.96,5.21.47,1.15,1.83,2.1,4.27,2.99,10.64,3.87,11.05,4.47,10.81,15.93-.18,8.69-.85,9.63-9.03,12.56l-.86.3c-.82.29-1.63.58-2.44.89-1.29.49-2.22,1.34-2.68,2.45-.47,1.14-.4,2.49.21,3.81.18.4.37.79.56,1.18l.34.71c4.42,9.32,4.24,10.3-3.2,17.48-1.68,1.62-3.54,3.06-5.35,4.46-.83.64-1.66,1.28-2.47,1.94l-.48.39-3.92-1.77c-2.24-1.01-4.26-1.92-6.28-2.85-1.7-.79-3.15-.95-4.29-.47-1.16.48-2.09,1.65-2.74,3.47-.05.14-.11.28-.18.42-.45.92-.73,2.04-1.04,3.22-.72,2.82-1.53,6.01-4.97,6.69-2.46.49-5,.65-7.54.65ZM273.25,268.99c.79,0,1.55.15,2.25.44,1.66.69,2.94,2.16,3.71,4.25.26.72.51,1.45.75,2.17.55,1.64,1.06,3.19,1.8,4.63.88,1.72,1.97,2.81,2.37,2.83l2,.12c4.84.3,9.85.6,14.47-.31,2.05-.4,2.66-2.24,3.42-5.22.31-1.23.64-2.5,1.18-3.61.04-.07.07-.15.1-.23.86-2.37,2.15-3.92,3.85-4.63,1.68-.7,3.67-.53,5.9.5,2.01.93,4.02,1.84,6.26,2.84l2.8,1.26c.67-.53,1.35-1.06,2.02-1.58,1.76-1.36,3.58-2.77,5.18-4.31,6.84-6.61,6.77-6.77,2.78-15.19l-.34-.7c-.2-.41-.4-.81-.58-1.23-.83-1.83-.91-3.75-.23-5.4.66-1.61,2.02-2.88,3.81-3.56.82-.31,1.65-.61,2.48-.9l.85-.3c7.33-2.63,7.54-2.93,7.7-10.72q.21-10.47-9.5-14.01c-3.05-1.11-4.72-2.38-5.43-4.11-.72-1.74-.41-3.85,1-6.82q4.31-9.1-2.87-16.06c-.42-.4-.83-.8-1.26-1.19-5.07-4.64-5.29-4.67-11.6-1.67l-.96.46c-.85.41-1.7.81-2.56,1.21-1.9.88-3.79.97-5.46.28-1.67-.7-2.94-2.11-3.67-4.09-.28-.76-.54-1.52-.79-2.29-.54-1.6-1.05-3.11-1.74-4.56-.8-1.68-1.67-2.66-1.99-2.73l-2.02-.14c-4.92-.35-10.01-.72-14.8.02-1.99.31-2.59,2.07-3.35,4.95-.28,1.06-.57,2.16-1.01,3.13-.18.39-.32.79-.47,1.19-.86,2.35-2.13,3.87-3.81,4.57-1.65.69-3.58.52-5.74-.48-2.05-.95-4.09-1.9-6.07-2.89-2.31-1.16-4.28-.92-6.03.74-2.62,2.47-5.38,5.22-8.45,8.42-1.69,1.76-1.97,3.73-.85,6.02.98,2,2.12,4.36,3.19,6.71.79,1.73.84,3.58.16,5.21-.7,1.67-2.11,2.97-3.97,3.66-.78.29-1.58.55-2.37.8-1.58.51-3.07,1-4.45,1.71-1.98,1.02-3.07,2.14-3.09,2.56l-.09,1.51c-.31,5-.63,10.17.34,14.93.42,2.03,2.26,2.63,5.25,3.37,1.23.31,2.51.62,3.61,1.15l.12.06s.01,0,.02,0c2.82.48,4.6,2.33,4.64,4.84.04,2.2-.46,4.59-1.35,6.57q-3.7,8.12,2.44,14.46l.2.21c.09.1.18.19.28.29,6.37,6.38,6.65,6.42,14.69,2.59.27-.13.54-.26.81-.4.37-.18.73-.37,1.1-.54,1.17-.54,2.31-.81,3.39-.81ZM292.02,274.89c-1.98,0-3.07-1.22-3.27-2.48-1.07-6.56-4.84-10.47-12.23-12.69-2.75-.83-4.73-1.28-6.96-.08l-.42.22c-1.65.89-3.36,1.8-5.19,2.35-.8.24-2.68.79-4.21-.98-.9-1.05-1.78-3.2-.51-4.82,5.03-6.41,2.47-12.43-1.11-19.06-1.06-1.96-2.21-3.58-5.69-3.64-2.06-.04-6.33-.11-6.3-4.91.03-3.76,2.97-4.2,4.72-4.46.51-.08.99-.15,1.36-.26,4.63-1.46,6.79-3.6,7.48-7.38.18-1,.65-2.1,1.4-3.26,1.73-2.68,1.73-5.3.03-8.24l-.42-.7c-.86-1.44-1.84-3.08-1.99-4.81l-.02-.24c-.11-1.43.53-2.77,1.71-3.58,1.18-.82,2.66-.94,3.96-.33h0l.42.2c1.77.83,3.31,1.54,4.81,2.32,1.41.73,2.87.99,4.12.74,1.33-.27,7.31-2.59,8.89-3.46,3.08-1.68,5-4.8,6.06-9.84.27-1.28,1.36-2.66,3.6-2.68,2.8,0,3.54,1.45,3.68,2.69.95,8.28,7.29,10.93,13.71,12.94,1.22.38,2.97.29,4.81-.24,1.02-.29,1.99-.79,3.03-1.32.97-.5,1.97-1.01,3.04-1.36l.13-.04c1.16-.39,2.19-.58,3.97.71,2.11,1.53,1.89,3.48,1.06,4.69-.11.16-.22.28-.32.38-5.11,6.42-2.14,12.54.99,19.02.43.88,1.56,1.79,3.19,2.59.96.46,1.99.79,3.08,1.14,1.17.37,2.38.76,3.51,1.33.09.04.18.08.26.12,1.08.49,2.12,1.18,1.96,3.68-.14,2.27-1.48,3.22-2.59,3.35-7.71.91-10.78,6.09-13.01,13.59-.39,1.32-.34,3.12.15,4.82.31,1.07.83,2.1,1.38,3.18.52,1.03,1.06,2.09,1.42,3.22.31.94.92,2.86-1.15,4.29-1.7,1.17-3.17,1.34-4.39.5-6.61-5.4-13.01-2.26-19.21.77-.9.44-1.89,1.61-2.64,3.13-.48.97-.82,2.02-1.17,3.13-.37,1.14-.75,2.33-1.3,3.44-.05.1-.09.2-.13.29-.46,1.05-1.04,1.93-3.48,2.04-.08,0-.15,0-.22,0ZM272.4,256.91c1.51,0,3.03.4,4.69.9,8.11,2.44,12.44,6.98,13.63,14.28.02.14.2.85,1.43.79,1.4-.06,1.5-.29,1.74-.85.05-.12.11-.25.17-.38.49-.98.83-2.04,1.19-3.16.36-1.13.74-2.3,1.29-3.41.56-1.14,1.77-3.17,3.56-4.04,6.45-3.16,13.75-6.73,21.29-.57.12.08.63.43,2.05-.55.78-.54.73-.98.39-2.01-.33-1.01-.81-1.96-1.31-2.96-.57-1.12-1.15-2.28-1.52-3.53-.6-2.08-.66-4.25-.15-5.95,2.03-6.8,5.36-13.9,14.7-15,.35-.04.76-.46.82-1.49.08-1.33-.15-1.44-.79-1.73-.11-.05-.22-.1-.33-.16-.99-.5-2.07-.85-3.22-1.21-1.11-.35-2.26-.72-3.34-1.25-1.44-.7-3.32-1.87-4.11-3.49-3.15-6.5-6.7-13.83-.67-21.28l.48.34-.38-.42c.07-.08.33-.46.28-.88-.04-.38-.32-.75-.82-1.12-1.09-.79-1.41-.69-2.17-.43l-.14.05c-.92.3-1.81.76-2.75,1.24-1.07.55-2.18,1.12-3.39,1.46-1.3.37-3.8.9-5.96.22-6.74-2.11-14.02-5.15-15.1-14.62-.05-.4-.12-.97-1.67-.92-1.25.01-1.58.69-1.67,1.09-1.17,5.58-3.48,9.24-7.06,11.19-1.62.88-7.83,3.33-9.45,3.66-1.69.34-3.63.02-5.44-.92-1.46-.76-2.98-1.46-4.73-2.28l-.43-.2c-.65-.3-1.39-.24-1.98.17-.59.41-.91,1.08-.85,1.79l.02.22c.11,1.27.92,2.64,1.71,3.96l.43.72c2.1,3.61,2.08,6.99-.07,10.33-.6.94-.98,1.79-1.11,2.53-1.04,5.77-5.27,7.8-8.84,8.93-.53.17-1.11.25-1.67.33-1.97.29-3,.53-3.02,2.49-.02,2.62,1.7,2.85,4.33,2.9,4.55.08,6.21,2.46,7.42,4.69,3.02,5.6,7.17,13.28.92,21.25-.51.65.04,1.81.45,2.28.58.68,1.15.66,2.13.37,1.64-.49,3.25-1.35,4.81-2.19l.42-.23c1.31-.7,2.55-.97,3.79-.97Z"/>
  </g>
  <g>
    <path class="cls-1" d="M343.14,53.65s-.01.07-.02.11c-.59,3.02-3.5,4.99-6.52,4.42l-8.91-1.69c9.6,20.58,12.31,41.55,7.5,63.29-2.75,12.44-7.76,23.85-15.22,34.41-1.85,2.62-5.52,3.14-8.02,1.14l-.09-.07c-2.26-1.81-2.72-5.04-1.11-7.44,17.69-26.49,20.14-54.61,6.95-84.5-.6,2.86-1.21,5.72-1.83,8.68s-3.54,4.92-6.54,4.33l-.11-.02c-3.03-.59-5-3.54-4.4-6.57,1.55-7.83,3.04-15.49,4.72-23.1.66-2.99,3.1-4.61,6.16-4.05,7.61,1.39,15.19,2.94,23.06,4.53,3.01.61,4.97,3.53,4.38,6.54Z"/>
    <path class="cls-1" d="M315.41,157.55c-1.48,0-2.9-.5-4.07-1.44l-.08-.07c-2.67-2.14-3.24-5.92-1.32-8.78,16.89-25.29,19.61-52.4,8.1-80.63l-1.17,5.56c-.74,3.5-4.2,5.79-7.71,5.11l-.12-.02c-1.72-.34-3.21-1.33-4.19-2.79-.98-1.46-1.33-3.22-.99-4.95l.54-2.74c1.39-7.02,2.7-13.65,4.18-20.38.78-3.54,3.72-5.49,7.31-4.82,6.7,1.23,13.28,2.56,20.25,3.96l2.83.57c3.54.71,5.85,4.17,5.17,7.71v.06c-.71,3.6-4.16,5.94-7.71,5.26l-7.01-1.33c9.24,20.63,11.45,40.99,6.76,62.17-2.82,12.75-7.85,24.12-15.38,34.77-1.04,1.47-2.67,2.46-4.45,2.72-.31.04-.62.07-.93.07ZM317.37,60.07l1.25,2.84c13.21,29.94,10.84,58.69-7.03,85.46-1.33,2-.94,4.62.91,6.11l.08.07c.99.79,2.22,1.13,3.48.96,1.26-.18,2.36-.85,3.1-1.89,7.37-10.43,12.3-21.57,15.06-34.05,4.72-21.33,2.29-41.83-7.43-62.65l-.83-1.77,10.83,2.05c2.47.46,4.87-1.16,5.35-3.63l1,.08-.98-.19c.48-2.46-1.13-4.87-3.6-5.37l-2.83-.57c-6.96-1.41-13.53-2.73-20.21-3.96-2.53-.47-4.45.79-5,3.29-1.48,6.71-2.79,13.33-4.17,20.34l-.54,2.74c-.24,1.2,0,2.43.69,3.45s1.72,1.71,2.92,1.95l.12.02c2.44.47,4.85-1.12,5.36-3.56l2.47-11.71Z"/>
  </g>
  <g>
    <path class="cls-1" d="M184.99,257.24c-.06,34.23-28.08,62.06-62.38,61.97-34.22-.09-62.01-28.14-61.88-62.46.12-34.07,28.05-61.81,62.2-61.78,34.26.03,62.13,27.99,62.06,62.28ZM72.02,256.92c-.06,27.95,22.64,50.87,50.5,50.99,28.12.12,51.12-22.65,51.18-50.67.06-27.95-22.64-50.87-50.5-50.98-28.14-.12-51.11,22.63-51.17,50.66Z"/>
    <path class="cls-1" d="M122.78,320.2h-.18c-16.82-.05-32.63-6.68-44.53-18.69-11.9-12.01-18.41-27.91-18.35-44.78.13-34.62,28.46-62.78,63.16-62.78h.05c16.83.01,32.66,6.6,44.59,18.56,11.94,11.97,18.5,27.85,18.47,44.72-.03,16.82-6.65,32.65-18.65,44.56-11.95,11.87-27.77,18.4-44.56,18.4ZM122.88,195.96c-33.61,0-61.04,27.26-61.16,60.79-.06,16.33,6.25,31.73,17.77,43.36,11.52,11.63,26.83,18.05,43.11,18.1h.17c16.26,0,31.58-6.33,43.15-17.82,11.61-11.54,18.03-26.86,18.06-43.15.03-16.33-6.32-31.71-17.89-43.3-11.55-11.58-26.88-17.96-43.18-17.98h-.04ZM122.74,308.91c-.08,0-.15,0-.23,0-28.45-.12-51.55-23.45-51.49-51.99.03-13.79,5.45-26.76,15.28-36.53,9.82-9.76,22.84-15.13,36.67-15.13h.23c28.46.12,51.56,23.44,51.5,51.99-.03,13.79-5.46,26.76-15.3,36.54-9.83,9.76-22.84,15.13-36.65,15.13ZM72.02,256.92h1c-.05,27.45,22.15,49.87,49.5,49.99.07,0,.15,0,.22,0,13.28,0,25.79-5.16,35.24-14.55,9.46-9.39,14.68-21.87,14.71-35.12.06-27.44-22.15-49.87-49.51-49.98-13.41-.09-25.98,5.11-35.48,14.55-9.45,9.39-14.66,21.86-14.69,35.12h-1Z"/>
  </g>
  <g>
    <path class="cls-1" d="M269.71,99.15c-.09,15.53-12.94,28.15-28.53,28.02-15.52-.13-28.09-13.01-27.93-28.62.16-15.37,12.91-27.89,28.35-27.84,15.56.05,28.2,12.83,28.11,28.43ZM258.41,98.86c-.04-9.23-7.61-16.8-16.84-16.85-9.38-.04-17.07,7.64-17.03,17.01.04,9.21,7.62,16.81,16.84,16.86,9.37.05,17.07-7.65,17.03-17.02Z"/>
    <path class="cls-1" d="M241.43,128.17c-.08,0-.17,0-.25,0-7.75-.06-15.03-3.17-20.5-8.75-5.51-5.62-8.51-13.03-8.43-20.88.16-15.92,13.28-28.83,29.26-28.83h.1c7.78.03,15.1,3.1,20.6,8.66,5.53,5.58,8.55,12.96,8.5,20.78h0c-.04,7.76-3.14,15.06-8.71,20.55-5.54,5.47-12.84,8.47-20.58,8.47ZM241.51,71.71c-14.89,0-27.11,12.03-27.26,26.85-.08,7.31,2.71,14.22,7.85,19.46,5.1,5.19,11.88,8.09,19.09,8.15,7.31.05,14.19-2.74,19.41-7.89,5.19-5.12,8.07-11.92,8.11-19.14.04-7.29-2.77-14.17-7.93-19.36-5.13-5.18-11.95-8.04-19.19-8.06h-.09ZM241.47,116.87h-.09c-9.79-.05-17.79-8.06-17.83-17.85-.02-4.8,1.85-9.33,5.27-12.75,3.4-3.4,7.9-5.27,12.67-5.27h.09c9.79.05,17.79,8.05,17.83,17.84h0c.02,4.8-1.85,9.33-5.28,12.75-3.4,3.4-7.9,5.27-12.67,5.27ZM241.49,83.01c-4.24,0-8.23,1.66-11.26,4.68-3.04,3.04-4.71,7.06-4.69,11.32.03,8.7,7.14,15.82,15.84,15.86h.08c4.23,0,8.23-1.66,11.25-4.69,3.04-3.04,4.71-7.07,4.69-11.33h0c-.04-8.7-7.14-15.81-15.84-15.85h-.08Z"/>
  </g>
  <g>
    <path class="cls-1" d="M314.9,228.79c.02,12.46-10.17,22.65-22.63,22.63-12.44-.02-22.59-10.25-22.54-22.72.06-12.3,10.15-22.39,22.45-22.45,12.48-.06,22.7,10.07,22.72,22.53ZM303.6,228.81c-.01-6.13-5.1-11.22-11.22-11.26-6.15-.03-11.27,4.99-11.34,11.13-.08,6.28,5.13,11.5,11.4,11.44,6.12-.06,11.19-5.19,11.17-11.31Z"/>
    <path class="cls-1" d="M292.31,252.42h-.04c-6.28,0-12.19-2.49-16.65-6.97-4.47-4.5-6.92-10.45-6.89-16.75.06-12.87,10.58-23.38,23.44-23.44h.11c6.27,0,12.18,2.44,16.65,6.88,4.48,4.45,6.95,10.37,6.96,16.65.01,6.29-2.45,12.23-6.93,16.7-4.47,4.47-10.39,6.93-16.67,6.93ZM292.29,207.26h-.1c-11.78.05-21.4,9.68-21.45,21.45-.03,5.77,2.21,11.21,6.3,15.33,4.08,4.11,9.49,6.37,15.24,6.38h.03c5.75,0,11.16-2.25,15.25-6.34,4.1-4.1,6.35-9.53,6.34-15.29,0-5.75-2.27-11.16-6.37-15.24-4.09-4.06-9.5-6.3-15.24-6.3ZM292.32,241.13c-3.26,0-6.33-1.29-8.67-3.63-2.37-2.38-3.65-5.51-3.61-8.82.08-6.7,5.59-12.12,12.28-12.12h.07c6.72.04,12.2,5.53,12.22,12.25.02,6.73-5.44,12.25-12.16,12.32-.04,0-.08,0-.12,0ZM292.32,218.56c-5.61,0-10.21,4.54-10.28,10.14-.03,2.77,1.04,5.39,3.03,7.38,1.96,1.97,4.54,3.05,7.26,3.05.03,0,.07,0,.1,0,5.53-.05,10.19-4.78,10.18-10.31-.01-5.53-4.7-10.23-10.23-10.26h-.06Z"/>
  </g>
  <g>
    <path class="cls-1" d="M123.87,94.67s-.07.03-.1.04c-2.82,1.22-4.12,4.49-2.91,7.32l3.56,8.34c-22.17-4.96-43.22-3.1-63.43,6.27-11.56,5.36-21.63,12.7-30.34,22.25-2.16,2.37-1.88,6.06.61,8.08l.09.07c2.25,1.82,5.5,1.57,7.51-.51,22.07-22.97,49.01-31.39,81.04-24.93-2.66,1.2-5.33,2.41-8.08,3.65s-4.04,4.52-2.83,7.32l.04.1c1.23,2.83,4.53,4.13,7.36,2.89,7.32-3.2,14.47-6.3,21.55-9.57,2.78-1.29,3.84-4.02,2.64-6.88-2.99-7.13-6.14-14.2-9.38-21.55-1.24-2.81-4.51-4.09-7.33-2.87Z"/>
    <path class="cls-1" d="M34.82,149.26c-1.44,0-2.88-.48-4.09-1.45l-.09-.07c-1.42-1.14-2.28-2.78-2.42-4.6-.14-1.8.48-3.6,1.7-4.93,8.78-9.64,18.81-16.99,30.66-22.49,19.67-9.12,40.03-11.33,62.17-6.75l-2.8-6.56c-1.42-3.32.12-7.19,3.44-8.63l.1-.04c3.31-1.43,7.19.08,8.64,3.39l1.17,2.66c2.87,6.5,5.58,12.63,8.21,18.91,1.41,3.37.15,6.66-3.14,8.18-6.29,2.91-12.53,5.63-19.12,8.51l-2.44,1.07c-1.61.71-3.41.74-5.05.09-1.64-.64-2.93-1.89-3.63-3.5l-.04-.1c-1.43-3.29.06-7.16,3.33-8.63l5.18-2.34c-30.04-5.18-55.93,3.3-77,25.23-1.3,1.36-3.03,2.05-4.77,2.05ZM100.97,108.67c-13.7,0-26.78,2.95-39.56,8.87-11.6,5.38-21.42,12.58-30.02,22.02-.86.94-1.28,2.16-1.18,3.43.1,1.26.69,2.4,1.68,3.19l.09.07c1.85,1.49,4.5,1.31,6.16-.43,22.3-23.21,49.87-31.69,81.95-25.22l3.04.61-10.91,4.93c-2.27,1.03-3.31,3.72-2.32,6.01l.04.1c.49,1.12,1.39,1.99,2.53,2.44,1.14.45,2.39.42,3.51-.07l2.45-1.07c6.59-2.88,12.81-5.59,19.08-8.49,2.31-1.07,3.13-3.21,2.13-5.59-2.63-6.26-5.33-12.39-8.2-18.88l-1.17-2.66c-1.01-2.3-3.71-3.36-6.02-2.36l-.1.04c-2.31,1-3.38,3.69-2.39,6.01l4.33,10.13-1.91-.43c-7.96-1.78-15.69-2.67-23.23-2.67Z"/>
  </g>
</svg>