<?xml version="1.0" encoding="UTF-8"?>
<svg id="Capa_1" data-name="Capa 1" xmlns="http://www.w3.org/2000/svg" version="1.1" viewBox="0 0 358.74 401.22">
  <defs>
    <style>
      .cls-1 {
        fill: #fff;
        stroke-width: 0px;
      }
    </style>
  </defs>
  <path class="cls-1" d="M12.07,77c.43-1.21.89-2.4,1.27-3.62,3.74-12.03,15.2-20.28,27.54-19.81,12.67.48,23.29,9.12,26.32,21.39.28,1.13.58,2.26.89,3.49h94.44c1.25-7.65,4.56-14.06,10.67-18.82,16.25-12.66,40.08-4.21,44.49,15.9.58,2.64,1.59,3.12,3.98,3.13,12.5.03,17.52-.4,29.97.48,30.09,2.12,54.94,26.1,58.86,56.01,4.45,34.02-16.75,65.11-50,72.94-5.16,1.22-10.6,1.71-15.92,1.75-24.9.18-42.26.08-67.16.08h-4.3c-3.62,8.8-9.66,14.84-18.7,17.56-12.86,3.87-26.89-2.16-32.76-14.38-1.28-2.66-2.71-3.25-5.37-3.23-17.51.11-28.75-.08-46.26.12-24.99.28-46.57,18.62-51.15,43.21-5.99,32.12,17.12,61.68,49.71,63.47,4.5.25,9.03.03,13.79.03.32-1.18.66-2.28.93-3.4,3-12.58,14.42-21.57,27.32-21.5,12.85.07,24.14,8.87,26.95,21.4.66,2.94,1.76,3.71,4.69,3.7,44.2-.1,82.12-.09,126.32-.03,2.39,0,3.55-.77,4.98-2.84,2.29-3.32,5.28-6.36,8.54-8.75,1.89-1.39,2.69-2.44,2.68-4.71-.14-23.22-.2-46.44-.25-69.67,0-2.5.09-5,.27-7.49.24-3.47,2.34-5.74,5.43-6.07,3-.32,5.76,1.59,6.33,4.99.39,2.36,1.63,2.44,3.44,2.43,14.89-.04,29.78,0,44.68-.03,3.08,0,6,.11,7.63,3.36,1.55,3.09.08,5.48-1.62,7.88-2.68,3.79-5.18,7.72-8.02,11.39-1.54,1.99-1.37,3.36.08,5.28,3.02,3.98,5.74,8.19,8.62,12.28,1.54,2.19,2.23,4.47.88,7.01-1.34,2.52-3.56,3.24-6.27,3.24-14.89-.04-29.78-.02-44.68-.02-1.3,0-2.61,0-4.22,0-.11,1.22-.27,2.25-.27,3.28-.02,7.51.04,15.01-.04,22.52-.02,1.99.46,3.14,2.44,4.12,7.79,3.87,11.95,11.85,10.75,19.98-1.19,8.1-7.5,14.76-15.47,16.31-8.31,1.61-16.6-2.24-20.72-9.98-1.09-2.05-2.34-2.53-4.46-2.52-45.15.05-84.03.05-129.18,0-2.19,0-3.28.63-4.29,2.69-5.13,10.47-13.75,16.15-25.34,16.13-11.59-.02-20.2-5.72-25.3-16.2-1.02-2.09-2.14-2.7-4.31-2.65-10.62.24-21.11-.06-31.37-3.63-28.57-9.95-46.67-38.87-43.3-69.69,3.2-29.28,27.08-53.86,56.42-56.9,12.27-1.27,18.46-.65,30.84-.79,8.32-.09,16.63-.02,24.84-.02,6.63-18.61,15.02-25.58,29.89-25.02,13.01.49,22.05,8.91,26.59,25.02,1.2,0,2.5,0,3.79,0,24.42,0,41.31,0,65.74,0,28.24-.01,50.09-18.81,54.38-46.77,4.35-28.33-17.66-57.21-46.22-59.6-13.61-1.14-19.84-.56-33.53-.61-.94,0-2.3,1.08-2.76,2-5.34,10.69-13.9,16.63-25.83,16.6-11.79-.03-20.34-5.93-25.38-16.59-.93-1.96-2.16-2.12-3.92-2.12-38.96.02-52.8.03-91.76-.02-1.91,0-2.88.5-3.76,2.33-5.6,11.64-16.21,17.58-28.69,16.29-11.7-1.21-20.99-9.6-24.08-21.73-.17-.68-.45-1.33-.68-1.99,0-2.86,0-5.72,0-8.58ZM335.02,237.12h-38.04v25.61h38.07c-1.98-2.86-3.66-5.28-5.34-7.71-2.96-4.28-2.94-5.87.08-10.26,1.66-2.41,3.31-4.83,5.23-7.64ZM55.87,81.52c-.02-8.78-7.13-15.9-15.86-15.86-8.69.03-15.82,7.24-15.8,15.96.02,8.73,7.2,15.89,15.89,15.86,8.72-.03,15.79-7.18,15.77-15.95ZM94.68,319.6c-.03,8.78,6.98,15.97,15.67,16.08,8.71.11,15.89-6.99,15.95-15.76.06-8.81-6.91-15.96-15.64-16.06-8.69-.1-15.95,7.05-15.98,15.74ZM146.58,184.84c-8.82,0-15.96,7.14-15.89,15.88.07,8.63,7.11,15.68,15.7,15.75,8.86.06,16.01-6.94,16.04-15.72.04-8.82-7.02-15.9-15.85-15.9ZM190.41,65.68c-8.7,0-15.88,7.28-15.83,16.01.06,8.54,7.2,15.69,15.74,15.76,8.66.07,16.02-7.2,16.03-15.84.01-8.66-7.28-15.94-15.95-15.93ZM290.84,329.48c4.08-.04,7.19-3.23,7.1-7.31-.09-3.85-3.24-6.99-7.08-7.05-3.97-.06-7.26,3.21-7.27,7.21,0,4.08,3.15,7.19,7.25,7.15Z"/>
  <path class="cls-1" d="M110.53,349.67h-.05c-12.22-.02-21.59-6.01-27.1-17.32-.65-1.33-1-1.54-2.47-1.52-12.03.27-22.08-.26-32.08-3.74-14.27-4.97-26.58-14.86-34.67-27.85-8.1-13.01-11.64-28.62-9.97-43.95,3.32-30.35,28.34-55.58,58.2-58.67,8.76-.91,14.33-.87,21.4-.81,2.94.02,5.99.05,9.62,0,5.77-.06,11.62-.05,17.27-.03,2.07,0,4.13.01,6.19.01,6.83-18.33,15.98-25.58,31.36-25.02,13.46.51,23.12,9.15,28.01,25.02h24.08c14.31,0,27.4,0,43.95,0,27.21-.01,48.27-18.12,52.4-45.07,2.03-13.22-1.88-27.24-10.73-38.46-8.6-10.9-20.87-17.77-33.68-18.84-9.69-.81-15.66-.74-23.22-.66-2.92.03-6.23.07-10.07.06-.29.1-.88.58-1.04.9-5.78,11.58-15.3,17.71-27.52,17.71h-.11c-12.31-.04-21.71-6.17-27.18-17.74-.41-.86-.55-.97-2.09-.97h-.02c-37.98.02-52.19.03-91.76-.02-1.26,0-1.45.13-1.96,1.2-5.91,12.28-17.39,18.78-30.69,17.42-12.6-1.3-22.49-10.2-25.81-23.22-.09-.36-.24-.75-.39-1.16-.08-.22-.17-.45-.24-.68l-.11-.32v-9.25l.11-.32c.14-.39.28-.77.42-1.16.29-.79.58-1.59.83-2.39,4.04-13,16.19-21.7,29.53-21.21,13.61.52,24.93,9.72,28.18,22.91.16.65.33,1.3.5,1.96h91.23c1.6-7.72,5.33-13.9,11.1-18.39,8.22-6.4,18.95-8.13,28.71-4.6,9.67,3.49,16.76,11.59,18.97,21.66.34,1.55.4,1.55,2.03,1.56,3.47.01,6.35-.02,8.98-.04,7-.06,12.05-.11,21.13.53,14.97,1.05,29.35,7.49,40.49,18.13,11.08,10.59,18.26,24.65,20.21,39.61,2.22,16.96-1.76,33.89-11.19,47.68-9.45,13.81-23.78,23.57-40.33,27.46-4.89,1.15-10.4,1.76-16.36,1.8-18.09.13-32,.11-48.12.09-6,0-12.25-.01-19.06-.01h-2.98c-4.01,8.92-10.54,14.79-19.44,17.47-13.81,4.15-28.91-2.48-35.14-15.43-.89-1.85-1.57-2.09-3.56-2.1-7.74.05-14.28.04-20.62.03-8.16-.01-15.87-.02-25.64.08-24.07.27-44.77,17.75-49.21,41.58-2.76,14.78.9,29.94,10.05,41.58,9.1,11.59,22.88,18.71,37.8,19.53,2.99.17,5.98.12,9.14.08,1-.01,2-.03,3.02-.04.18-.63.35-1.25.5-1.87,3.19-13.37,15.42-23.03,29.11-23.03h.16c13.99.08,25.87,9.52,28.89,22.96.44,1.96.67,2.12,2.73,2.14,45.09-.1,83.11-.08,126.33-.03h.02c1.51,0,2.13-.26,3.31-1.97,2.39-3.47,5.5-6.66,9-9.23,1.56-1.14,1.87-1.66,1.86-3.08-.14-22.34-.19-43.86-.25-69.67,0-2.41.09-4.98.27-7.64.31-4.38,3.14-7.49,7.22-7.92,4.21-.43,7.79,2.35,8.51,6.65.09.55.21.71.21.71.15.05.92.05,1.25.05,14.89-.04,29.79,0,44.68-.03,2.85.01,7.17-.01,9.42,4.47,2.18,4.34-.3,7.84-1.78,9.94-.91,1.29-1.8,2.6-2.7,3.91-1.71,2.5-3.47,5.09-5.38,7.55-.9,1.17-.89,1.54.1,2.85,2.04,2.69,3.96,5.5,5.82,8.22.94,1.38,1.88,2.75,2.84,4.11,2.24,3.19,2.57,6.16,1.01,9.09-1.54,2.9-4.17,4.29-8.04,4.3-11.17-.03-22.33-.02-33.5-.02h-13.58c-.05.46-.08.89-.08,1.29,0,2.75,0,5.5,0,8.26,0,4.68,0,9.51-.04,14.28-.02,1.39.18,1.74,1.33,2.31,8.41,4.18,13.17,13.04,11.84,22.06-1.31,8.89-8.32,16.28-17.06,17.98-9.22,1.79-18.4-2.63-22.86-11-.65-1.22-1.1-1.46-2.68-1.46h-.01c-46.73.05-85.37.05-129.19,0h-.02c-1.45,0-1.82.24-2.47,1.57-5.53,11.29-14.9,17.25-27.09,17.25ZM81.09,326.82c2.88,0,4.6,1.11,5.9,3.77,4.86,9.99,12.77,15.06,23.5,15.07h.04c10.71,0,18.62-5.05,23.5-15.01,1.33-2.71,3.09-3.81,6.07-3.81h.02c43.82.05,82.45.06,129.18,0h.02c2.24,0,4.53.44,6.21,3.58,3.68,6.92,10.97,10.43,18.57,8.95,7.1-1.38,12.8-7.4,13.87-14.63,1.09-7.41-2.7-14.44-9.66-17.9-3.17-1.57-3.57-3.88-3.55-5.93.05-4.74.05-9.56.04-14.23,0-2.76,0-5.51,0-8.27,0-.8.08-1.55.17-2.35.04-.35.08-.72.11-1.11l.16-1.83h17.22c11.17,0,22.34-.01,33.51.02h.04c2.38,0,3.63-.61,4.46-2.17.83-1.55.61-2.98-.75-4.92-.97-1.38-1.92-2.76-2.87-4.15-1.83-2.68-3.73-5.46-5.71-8.07-2.06-2.73-2.08-5.1-.07-7.71,1.83-2.36,3.56-4.9,5.23-7.36.9-1.33,1.81-2.65,2.73-3.96,1.81-2.57,2.42-3.95,1.47-5.83-1.03-2.05-2.65-2.23-5.84-2.26-14.89.03-29.78,0-44.68.03-1.64,0-4.74.01-5.42-4.11-.37-2.21-2.04-3.56-4.14-3.33-2.15.23-3.48,1.76-3.65,4.22-.18,2.56-.27,5.03-.26,7.35.06,25.81.11,47.33.25,69.66.02,3.13-1.27,4.7-3.49,6.33-3.14,2.31-5.93,5.17-8.07,8.28-1.58,2.29-3.23,3.7-6.61,3.7h-.01c-43.21-.06-81.23-.08-126.31.03h-.04c-3.9,0-5.76-1.48-6.61-5.26-2.56-11.43-13.08-19.77-25-19.84h-.14c-11.87,0-22.46,8.37-25.22,19.96-.19.79-.41,1.57-.64,2.37-.1.36-.21.72-.31,1.1l-.4,1.47h-1.52c-1.51,0-3,.02-4.48.04-3.23.05-6.29.09-9.42-.08-16.07-.88-30.91-8.55-40.73-21.05-9.85-12.55-13.8-28.87-10.83-44.78,4.79-25.7,27.12-44.56,53.1-44.85,9.8-.11,17.51-.1,25.69-.08,6.32,0,12.86.02,20.58-.03,3.03.02,5.43.72,7.19,4.36,5.38,11.19,18.45,16.92,30.38,13.33,8.2-2.47,13.9-7.83,17.42-16.4l.51-1.24h5.64c6.82,0,13.07,0,19.07.01,16.1.02,30.01.04,48.08-.09,5.67-.04,10.88-.61,15.48-1.69,31.93-7.52,52.77-37.93,48.48-70.73-3.78-28.92-28.29-52.25-57.01-54.27-8.92-.63-13.9-.58-20.81-.52-2.64.02-5.54.05-9.02.04-2.94,0-5.08-.81-5.93-4.7-1.91-8.72-8.05-15.73-16.42-18.75-8.46-3.05-17.76-1.56-24.89,4-5.43,4.23-8.68,9.98-9.92,17.56l-.27,1.68h-97.69l-.68-2.64c-.21-.81-.41-1.58-.6-2.36-2.82-11.43-12.64-19.42-24.45-19.87-11.34-.4-22.1,7.31-25.55,18.4-.27.87-.58,1.72-.89,2.57-.1.27-.19.53-.29.8v7.89c.03.09.07.19.1.28.18.49.37,1,.51,1.56,2.9,11.36,11.46,19.11,22.35,20.23,11.73,1.21,21.46-4.32,26.68-15.17,1.18-2.46,2.79-3.46,5.55-3.46h.02c39.56.05,53.78.04,91.75.02,1.56-.03,4.18,0,5.72,3.26,4.83,10.22,12.76,15.42,23.57,15.45h.1c10.75,0,18.81-5.21,23.94-15.49.75-1.5,2.76-3.11,4.55-3.11h0c3.84.01,7.16-.02,10.09-.06,7.67-.08,13.72-.15,23.59.67,13.91,1.16,27.21,8.58,36.49,20.35,9.53,12.09,13.74,27.23,11.54,41.54-4.45,28.97-27.1,48.45-56.35,48.46-16.55,0-29.64,0-43.95,0h-27.08s-.41-1.46-.41-1.46c-4.28-15.18-12.61-23.11-24.74-23.56-14.01-.53-21.58,5.89-27.93,23.69l-.47,1.33h-1.41c-2.53,0-5.06,0-7.6-.01-5.64-.01-11.47-.03-17.21.03-3.67.04-6.74.02-9.7,0-6.94-.06-12.42-.1-20.96.79-28.03,2.91-51.52,26.61-54.64,55.13-3.23,29.57,14.42,57.99,41.97,67.59,9.43,3.28,19.08,3.78,30.67,3.52.09,0,.17,0,.26,0ZM110.55,337.68c-.08,0-.15,0-.23,0-9.76-.12-17.68-8.23-17.65-18.08h0c.01-4.74,1.91-9.21,5.33-12.59,3.43-3.38,7.94-5.23,12.67-5.15,9.78.11,17.68,8.22,17.62,18.08-.03,4.8-1.94,9.3-5.37,12.66-3.35,3.28-7.74,5.08-12.38,5.08ZM96.68,319.6c-.02,7.66,6.12,13.98,13.7,14.07.06,0,.12,0,.17,0,3.59,0,6.99-1.39,9.58-3.94,2.67-2.62,4.15-6.11,4.17-9.83.05-7.66-6.08-13.96-13.67-14.05-3.65-.09-7.15,1.38-9.81,4-2.66,2.62-4.13,6.08-4.14,9.75h0ZM290.76,331.48c-2.49,0-4.8-.93-6.51-2.62-1.72-1.71-2.67-4.02-2.66-6.53,0-2.48.98-4.82,2.76-6.57,1.73-1.7,4-2.64,6.4-2.64.05,0,.09,0,.14,0,4.88.07,8.94,4.11,9.05,9,.06,2.51-.85,4.85-2.54,6.6-1.7,1.75-4.02,2.73-6.53,2.75h-.1ZM290.75,317.12c-1.34,0-2.62.53-3.6,1.49-1.01.99-1.57,2.32-1.57,3.72,0,1.43.52,2.74,1.48,3.68.97.96,2.3,1.5,3.75,1.46h0c1.44-.01,2.75-.56,3.7-1.54.94-.97,1.45-2.3,1.41-3.73-.06-2.77-2.35-5.05-5.11-5.09-.03,0-.05,0-.08,0ZM338.87,264.73h-43.88v-29.61h43.83l-3.81,5.57c-1.25,1.83-2.41,3.52-3.57,5.21-2.56,3.72-2.57,4.39-.08,7.99,1.22,1.76,2.44,3.53,3.78,5.46l3.73,5.38ZM298.98,260.73h32.25c-1.1-1.59-2.13-3.08-3.16-4.57-3.44-4.98-3.42-7.44.08-12.53,1.01-1.47,2.02-2.95,3.09-4.51h-32.25v21.61ZM146.51,218.47h-.13c-9.67-.07-17.6-8.02-17.69-17.73-.04-4.74,1.79-9.22,5.14-12.6,3.39-3.42,7.91-5.3,12.74-5.3h.01c4.81,0,9.32,1.87,12.68,5.24,3.36,3.37,5.19,7.87,5.17,12.67-.02,4.76-1.89,9.21-5.26,12.54-3.38,3.34-7.87,5.17-12.67,5.17ZM146.57,186.84c-3.75,0-7.26,1.46-9.9,4.12-2.6,2.62-4.01,6.08-3.98,9.75.06,7.53,6.22,13.71,13.71,13.76,3.79,0,7.31-1.4,9.96-4.02,2.61-2.58,4.05-6.03,4.07-9.72.02-3.73-1.41-7.22-4.01-9.83-2.61-2.62-6.1-4.06-9.85-4.07h0ZM40.04,99.48c-4.7,0-9.14-1.84-12.52-5.2-3.41-3.39-5.3-7.88-5.31-12.66-.03-9.87,7.96-17.92,17.79-17.96h.07c4.71,0,9.15,1.83,12.5,5.17,3.4,3.38,5.28,7.89,5.29,12.69h0c.03,9.87-7.94,17.92-17.76,17.96h-.07ZM40.07,67.66h-.05c-7.63.03-13.83,6.29-13.81,13.95,0,3.7,1.48,7.19,4.13,9.83,2.62,2.6,6.06,4.04,9.7,4.04h.05c7.61-.03,13.79-6.29,13.77-13.95h0c0-3.73-1.47-7.24-4.11-9.86-2.6-2.58-6.04-4.01-9.68-4.01ZM190.46,99.44s-.1,0-.15,0c-9.71-.08-17.66-8.04-17.73-17.74-.03-4.77,1.83-9.29,5.23-12.72,3.39-3.42,7.86-5.3,12.59-5.3h.02c4.73,0,9.22,1.89,12.64,5.31,3.42,3.42,5.3,7.9,5.29,12.62,0,4.71-1.91,9.18-5.35,12.59-3.42,3.39-7.87,5.24-12.55,5.25ZM190.43,67.68h-.02c-3.66,0-7.13,1.47-9.76,4.12-2.65,2.67-4.09,6.18-4.07,9.88.05,7.4,6.35,13.71,13.76,13.77.04,0,.08,0,.11,0,3.62,0,7.07-1.45,9.74-4.09,2.68-2.66,4.16-6.12,4.17-9.76,0-3.65-1.46-7.12-4.12-9.79-2.67-2.67-6.15-4.14-9.81-4.14Z"/>
</svg>