<?xml version="1.0" encoding="UTF-8"?>
<svg id="Capa_1" data-name="Capa 1" xmlns="http://www.w3.org/2000/svg" version="1.1" viewBox="0 0 384.94 410.92">
  <defs>
    <style>
      .cls-1 {
        fill: #fff;
        stroke-width: 0px;
      }
    </style>
  </defs>
  <g>
    <path class="cls-1" d="M227.89,12.43c8.24,1.43,16.69,2.15,24.7,4.41,55.49,15.61,90.09,51.9,104.64,107.54,4.1,15.69,4.21,31.84,3.77,47.91-.24,8.68,1.49,16.5,5.57,24.14,4.37,8.17,8.12,16.68,12.01,25.1,7.25,15.66-1.52,30.81-18.66,32.34-7.55.67-11.09,4.35-11.13,11.92-.07,14.32.06,28.64-.05,42.96-.11,15.01-8.57,26.91-22.3,29.57-6.31,1.22-13.17.18-19.7-.54-9.95-1.1-19.82-2.91-29.76-4.22-7-.93-10.73,2.46-10.79,9.46-.04,3.99,0,7.98,0,12.08,2.54.39,4.76.62,6.93,1.09,7.51,1.65,13.15,7.56,14.32,15.16.85,5.51.9,11.01-1.5,16.25-2.72,5.94-7.76,8.95-13.66,10.87H117.26c-1.13-.46-2.26-.94-3.4-1.37-7.32-2.75-12.22-9.45-12.38-17.26-.13-6.15-.09-12.31-.03-18.47.11-11.51,8.3-19.5,19.87-19.46.75,0,1.5,0,2.86,0,0-3.39,0-6.72,0-10.06,0-2.14-.05-4.27.01-6.41.13-4.06,2.34-6.64,5.65-6.67,3.35-.03,5.57,2.49,5.61,6.59.06,5.76.02,11.53.02,17.79,39.8,3.69,79.38,7.35,119.43,11.06,0-4.35-.04-8.21,0-12.07.16-12.7,9.88-21.53,22.42-19.95,13.17,1.65,26.28,3.79,39.44,5.58,11.1,1.51,20.11-5.84,20.56-17.21.41-10.16.12-20.35.14-30.52.01-5.28-.12-10.56.06-15.83.42-12.38,8.72-20.74,21.56-21.59,4.74-.31,8.13-2.29,10.07-6.6,1.52-3.36.77-6.59-.76-9.78-5.04-10.52-9.92-21.11-15.07-31.57-2.39-4.86-3.38-9.85-3.5-15.23-.3-13.3.36-26.78-1.6-39.85-7.96-53.31-37.37-90.24-87.93-108.62-36.29-13.2-72.01-8.95-105.99,9.42-5.28,2.85-8.21,2.77-10.18-.52-2.05-3.4-.56-6.45,4.66-9.35,17.65-9.82,36.5-15.73,56.64-17.5.98-.09,1.94-.42,2.91-.63,6.52,0,13.04,0,19.57,0ZM194.66,387.09s0,.06,0,.09c24.31,0,48.63.02,72.94-.01,5.7,0,8.66-2.84,8.98-8.35.44-7.68-1.83-11.3-7.72-11.9-10.97-1.1-21.95-2.07-32.93-3.08-23.45-2.17-46.9-4.33-70.35-6.5-14.47-1.34-28.93-2.76-43.41-4-6.18-.53-9.38,2.6-9.44,8.83-.04,4.77-.01,9.54,0,14.32,0,8.14,2.44,10.61,10.49,10.61,23.81,0,47.63,0,71.44,0Z"/>
    <path class="cls-1" d="M272.61,400.49H116.87l-1.43-.58c-.76-.31-1.52-.62-2.29-.91-8.13-3.05-13.5-10.55-13.68-19.09-.13-6.35-.09-12.63-.03-18.53.12-12.64,9.07-21.44,21.78-21.44h.95v-8.06c0-.65,0-1.3,0-1.95-.01-1.48-.02-3,.03-4.52.16-5.11,3.22-8.57,7.63-8.61h.08c4.47,0,7.5,3.43,7.55,8.57.04,4.02.03,8,.02,12.21,0,1.24,0,2.5,0,3.78l115.43,10.69c0-.63,0-1.25,0-1.87,0-2.78-.02-5.41.02-8.04.09-6.84,2.73-12.87,7.44-16.98,4.59-4,10.71-5.75,17.22-4.94,7.72.97,15.54,2.12,23.11,3.23,5.36.79,10.9,1.6,16.35,2.35,4.85.66,9.39-.54,12.77-3.37,3.36-2.82,5.32-7.06,5.52-11.94.28-7,.23-14.16.18-21.08-.02-3.12-.05-6.25-.04-9.37,0-1.64,0-3.28-.02-4.92-.02-3.59-.05-7.3.08-10.97.45-13.37,9.65-22.6,23.42-23.52,4.23-.28,6.81-1.95,8.38-5.42,1.07-2.37.85-4.79-.74-8.1-1.84-3.85-3.67-7.71-5.49-11.57-3.1-6.57-6.31-13.36-9.57-19.98-2.36-4.78-3.57-10.04-3.71-16.07-.08-3.6-.09-7.27-.11-10.82-.03-9.52-.06-19.37-1.47-28.78-7.91-53-37.06-89.02-86.64-107.04-34.57-12.57-69.68-9.44-104.35,9.3-4.25,2.3-9.55,4.23-12.85-1.25-1.11-1.86-1.44-3.71-.95-5.51.65-2.44,2.73-4.6,6.35-6.62,18-10.01,37.33-15.98,57.44-17.74.5-.04,1.06-.19,1.65-.35.33-.09.66-.17.99-.25l.44-.05,19.91.03c2.58.45,5.24.83,7.81,1.21,5.65.82,11.49,1.67,17.09,3.25,55.54,15.63,91.22,52.29,106.03,108.96,4.31,16.48,4.24,33.66,3.83,48.47-.23,8.54,1.46,15.9,5.33,23.15,3.53,6.6,6.69,13.51,9.75,20.18.77,1.67,1.54,3.35,2.31,5.02,3.73,8.06,3.63,16.56-.27,23.32-3.9,6.75-11.2,11.07-20.03,11.86-6.58.59-9.28,3.47-9.31,9.94-.03,6.61-.02,13.22-.01,19.83.01,7.58.02,15.42-.04,23.13-.12,16.36-9.51,28.73-23.92,31.52-5.9,1.14-12.09.43-18.09-.26-.74-.08-1.48-.17-2.21-.25-5.89-.65-11.84-1.56-17.58-2.44-4-.61-8.14-1.25-12.22-1.79-2.85-.37-4.99.04-6.38,1.24-1.4,1.22-2.13,3.32-2.15,6.25-.03,2.74-.02,5.47-.01,8.25v2.09c.22.03.43.06.65.09,1.63.23,3.17.44,4.72.78,8.35,1.83,14.58,8.43,15.87,16.81.74,4.8,1.22,11.11-1.66,17.39-3.43,7.48-10.12,10.4-14.85,11.94l-.3.1ZM117.65,396.49h154.31c6.3-2.11,10.05-5.11,12.16-9.7,1.9-4.15,2.31-8.81,1.34-15.12-1.04-6.73-6.05-12.04-12.78-13.51-1.39-.31-2.86-.51-4.41-.72-.77-.11-1.57-.22-2.4-.35l-1.69-.26v-5.52c-.01-2.79-.02-5.54,0-8.29.04-4.13,1.23-7.24,3.53-9.24,2.29-1.98,5.49-2.72,9.52-2.19,4.11.54,8.27,1.18,12.3,1.8,5.71.88,11.61,1.78,17.41,2.42.74.08,1.48.17,2.23.25,5.69.66,11.58,1.33,16.87.31,12.45-2.41,20.57-13.25,20.67-27.62.06-7.69.05-15.52.04-23.09,0-6.62-.02-13.24.01-19.86.04-8.58,4.28-13.13,12.95-13.9,7.51-.67,13.68-4.27,16.92-9.88,3.24-5.61,3.28-12.77.1-19.63-.78-1.68-1.55-3.35-2.32-5.03-3.04-6.62-6.18-13.47-9.65-19.97-4.15-7.78-6.05-16-5.8-25.14.4-14.54.47-31.39-3.71-47.35-14.43-55.2-49.17-90.91-103.25-106.12-5.35-1.5-11.06-2.33-16.58-3.14-2.54-.37-5.17-.75-7.75-1.2h-19.17c-.21.05-.43.11-.64.16-.69.18-1.48.39-2.32.46-19.54,1.71-38.33,7.52-55.84,17.25-2.55,1.42-4.08,2.86-4.43,4.15-.12.46-.2,1.22.52,2.42.78,1.3,1.75,2.91,7.52-.21,35.72-19.31,71.93-22.52,107.62-9.54,51.06,18.57,81.08,55.64,89.23,110.21,1.45,9.69,1.48,19.69,1.51,29.35.01,3.53.02,7.18.11,10.74.13,5.51,1.17,10.08,3.3,14.39,3.28,6.65,6.49,13.45,9.6,20.04,1.82,3.86,3.64,7.71,5.48,11.55,1.32,2.75,2.83,6.92.78,11.47-2.16,4.78-6.11,7.39-11.76,7.77-11.76.78-19.31,8.32-19.69,19.66-.12,3.59-.1,7.26-.08,10.81.01,1.65.02,3.3.02,4.95,0,3.11.02,6.22.04,9.33.05,6.97.1,14.17-.18,21.27-.24,6.02-2.71,11.29-6.95,14.84-4.26,3.57-9.9,5.09-15.88,4.27-5.47-.75-11.03-1.56-16.4-2.35-7.54-1.11-15.34-2.26-23.02-3.22-5.37-.67-10.38.74-14.1,3.98-3.84,3.35-6,8.33-6.07,14.01-.03,2.61-.02,5.21-.02,7.98,0,1.32,0,2.67,0,4.07v2.19l-123.43-11.43v-1.82c0-1.91,0-3.78,0-5.61,0-4.2.02-8.17-.02-12.16-.01-1.39-.39-4.61-3.55-4.61h-.04c-3.27.03-3.63,3.63-3.67,4.73-.04,1.44-.03,2.93-.02,4.37,0,.66,0,1.32,0,1.98v12.06h-4.94c-10.38,0-17.68,7.18-17.78,17.48-.06,5.86-.1,12.11.03,18.4.14,6.9,4.49,12.96,11.08,15.43.81.3,1.6.63,2.4.96l.69.28ZM233.55,389.19c-6.48,0-12.96,0-19.44,0h-21.45v-.1h-18.41c-17.01,0-34.02,0-51.03,0-9.1,0-12.48-3.42-12.49-12.61v-3.85c-.01-3.49-.02-6.99,0-10.48.03-3.75,1.1-6.61,3.16-8.49,2.02-1.84,4.86-2.62,8.44-2.31,9.89.85,19.94,1.8,29.66,2.71,4.59.43,9.17.87,13.76,1.29l78.89,7.28c8,.73,16.27,1.49,24.4,2.3,9.2.92,9.84,8.43,9.52,14-.38,6.59-4.28,10.23-10.98,10.24-11.35.01-22.7.02-34.05.02ZM196.66,385.18h17.45c17.83,0,35.66,0,53.49-.01,4.57,0,6.73-2,6.99-6.47.44-7.61-1.94-9.39-5.93-9.79-8.11-.82-16.37-1.57-24.36-2.3l-78.9-7.28c-4.59-.42-9.18-.86-13.77-1.29-9.71-.92-19.75-1.86-29.63-2.71-2.42-.21-4.24.22-5.41,1.28-1.21,1.1-1.83,2.97-1.85,5.57-.03,3.48-.02,6.96-.01,10.44v3.86c.01,7.08,1.52,8.61,8.49,8.61,17.01,0,34.02,0,51.03,0h22.41s0,.09,0,.09Z"/>
  </g>
  <g>
    <path class="cls-1" d="M122.26,303.95c-5.99-.36-12.13,0-17.94-1.22-11.59-2.44-18.63-10.09-21.78-21.5-.4-1.45-1.58-3.04-2.86-3.82-4.44-2.75-6.84-6.53-6.85-11.76-.02-8.92-.31-17.86.16-26.76.17-3.13,1.76-6.49,3.61-9.11,1.3-1.85,1.47-3.07.84-4.99-4.48-13.63-11.24-26.01-20.31-37.09-14.23-17.36-21.09-37.18-19.59-59.66,2.64-39.5,32.44-74.13,73.64-78.76,45.96-5.16,85.64,24.32,93.78,70.02,4.37,24.55-1.56,46.93-17.19,66.41-9.52,11.87-17.26,24.61-21.89,39.18-.66,2.07-.17,3.19,1.04,4.95,1.77,2.56,3.43,5.76,3.58,8.76.45,9.15.23,18.34.13,27.51-.05,4.27-2.02,7.61-5.35,10.33-1.22.99-2.34,2.6-2.68,4.11-2.99,13.41-13.82,22.58-27.52,22.98-4.26.12-8.53.02-12.79.02,0,.13-.01.25-.02.38ZM153.85,225.63c4.94-17.48,13.65-32.8,24.95-46.84,13-16.14,17.93-34.66,15.31-55.31-5.19-40.89-44.19-69.77-84.8-62.61-54.22,9.56-78.86,73.41-45.48,117.23,6.88,9.03,12.81,18.85,18.43,28.73,3.3,5.8,5.12,12.45,7.64,18.8h63.94ZM121.6,267.48c11.27,0,22.54-.09,33.81.06,3.16.04,4.1-1.04,4.03-4.13-.19-7.52-.15-15.06-.02-22.58.05-2.68-.67-3.79-3.57-3.78-22.79.1-45.59.09-68.38,0-2.69,0-3.45.97-3.41,3.53.12,7.78.16,15.56-.01,23.34-.06,2.9,1.05,3.63,3.74,3.6,11.27-.11,22.54-.04,33.81-.04ZM150.85,279.11h-56.84c1.66,7.31,7.77,12.82,14.92,13.03,9.02.26,18.06.26,27.08,0,7.37-.21,13.91-6.2,14.85-13.04Z"/>
    <path class="cls-1" d="M124.16,306.07l-2.02-.12c-1.83-.11-3.72-.15-5.55-.19-4.18-.09-8.5-.19-12.69-1.07-11.95-2.51-19.79-10.23-23.29-22.93-.27-.97-1.14-2.13-1.98-2.66-5.16-3.19-7.79-7.72-7.8-13.45,0-2.31-.03-4.62-.05-6.92-.07-6.53-.14-13.29.22-19.95.23-4.25,2.58-8.19,3.97-10.15.97-1.37.99-1.95.58-3.21-4.39-13.38-11.11-25.64-19.96-36.44-14.8-18.06-21.54-38.61-20.04-61.06,2.82-42.12,34.53-76.02,75.42-80.61,47.26-5.3,87.63,24.83,95.97,71.66,4.46,25.01-1.46,47.9-17.59,68.01-10.37,12.94-17.42,25.54-21.55,38.54-.39,1.22-.28,1.67.78,3.21,2.47,3.57,3.79,6.87,3.94,9.8.39,7.79.28,15.7.18,23.35l-.05,4.28c-.05,4.61-2.1,8.6-6.09,11.86-.95.78-1.77,2.01-1.99,3-3.23,14.49-14.78,24.12-29.42,24.54-2.96.09-5.95.06-8.85.04-.7,0-1.39-.01-2.09-.01l-.02.49ZM121.6,50.71c-3.36,0-6.76.19-10.21.58-38.96,4.37-69.19,36.71-71.87,76.9-1.43,21.41,5.01,41.01,19.14,58.26,9.17,11.19,16.12,23.88,20.67,37.73.84,2.55.53,4.45-1.11,6.77-1.94,2.75-3.12,5.69-3.25,8.06-.35,6.53-.28,13.22-.21,19.69.02,2.32.05,4.64.05,6.95.01,4.38,1.89,7.58,5.91,10.06,1.7,1.05,3.2,3.06,3.73,4.99,3.07,11.14,9.89,17.89,20.26,20.08,3.82.8,7.77.89,11.95.98,1.21.03,2.44.05,3.68.1v-.29h1.92c1.34,0,2.69.01,4.03.02,2.86.02,5.82.04,8.7-.04,12.75-.37,22.81-8.77,25.63-21.42.42-1.87,1.71-3.87,3.37-5.23,3.07-2.5,4.58-5.38,4.62-8.8l.05-4.29c.1-7.59.2-15.44-.18-23.1-.11-2.15-1.22-4.82-3.23-7.73-1.24-1.79-2.27-3.65-1.3-6.69,4.28-13.47,11.55-26.5,22.24-39.83,15.38-19.18,21.02-40.98,16.78-64.81-7.35-41.27-40.77-68.96-81.38-68.96ZM122.5,294.34c-4.58,0-9.14-.07-13.64-.2-8-.24-14.91-6.24-16.81-14.59l-.55-2.44h61.64l-.31,2.27c-1.08,7.92-8.6,14.54-16.77,14.77-4.52.13-9.05.19-13.56.19ZM96.72,281.11c2.12,5.28,6.88,8.88,12.26,9.04,8.84.26,17.91.26,26.96,0,5.49-.15,10.6-4.03,12.37-9.04h-51.6ZM155.61,269.54c-.07,0-.15,0-.22,0-8.15-.11-16.45-.09-24.48-.07-6.14.02-12.28.01-18.41,0-8.1-.01-16.46-.03-24.69.05-1.4,0-3.2-.13-4.43-1.38-1.24-1.26-1.35-3.04-1.32-4.26.15-6.82.15-14.21.01-23.26-.02-1.33.11-3,1.3-4.21,1.2-1.22,2.92-1.35,4.11-1.35,24.08.09,46.45.09,68.36,0,1.21-.03,3.01.13,4.25,1.39,1.23,1.25,1.36,3.02,1.34,4.42-.15,8.78-.15,15.93.02,22.5.04,1.5-.09,3.39-1.4,4.72-1.26,1.27-3.09,1.46-4.43,1.46ZM140.15,265.45c5.08,0,10.21.02,15.29.09,1.42.03,1.72-.24,1.75-.27.03-.03.29-.33.25-1.81-.16-6.63-.17-13.83-.02-22.67.02-1.28-.18-1.53-.18-1.54,0,0-.27-.19-1.38-.2-21.93.09-44.3.1-68.4,0-1.02-.01-1.26.16-1.26.17h0s-.15.26-.14,1.33c.14,9.1.14,16.54-.02,23.41-.02,1.09.17,1.36.17,1.37,0,0,.27.18,1.55.19,8.25-.08,16.63-.07,24.73-.05,6.13,0,12.27,0,18.4,0,3.05,0,6.14-.01,9.25-.01ZM155.37,227.63h-66.81l-.5-1.26c-.8-2-1.53-4.05-2.24-6.04-1.59-4.45-3.1-8.66-5.29-12.51-5-8.79-11.08-19.05-18.28-28.5-16.17-21.23-20.02-48.75-10.3-73.63,9.66-24.7,30.97-42.19,57.01-46.78,20.14-3.55,40.43,1.28,57.14,13.59,16.51,12.17,27.45,30.66,29.99,50.74,2.71,21.37-2.59,40.48-15.74,56.82-11.98,14.87-20.02,29.95-24.58,46.12l-.41,1.46ZM91.28,223.63h61.07c4.78-16.15,12.93-31.24,24.9-46.09,12.45-15.45,17.46-33.56,14.89-53.8-2.41-18.99-12.76-36.5-28.4-48.02-15.82-11.66-35.02-16.23-54.07-12.87-24.66,4.35-44.84,20.91-53.98,44.3-9.21,23.56-5.57,49.64,9.75,69.75,7.34,9.64,13.51,20.04,18.58,28.95,2.36,4.15,3.99,8.72,5.57,13.14.55,1.53,1.11,3.1,1.7,4.64Z"/>
  </g>
  <g>
    <path class="cls-1" d="M56.12,204.23c-.76,1.77-.96,3.01-1.66,3.77-2.81,3.02-5.63,6.05-8.73,8.76-2.39,2.1-5.2,1.83-7.41-.45-2.21-2.28-2.39-5.05-.26-7.44,2.65-2.99,5.39-6,8.55-8.39,1.38-1.04,4.19-1.26,5.83-.59,1.61.66,2.56,2.92,3.69,4.35Z"/>
    <path class="cls-1" d="M42.26,220.19c-1.89,0-3.77-.84-5.38-2.5-2.97-3.06-3.09-7.04-.33-10.16,2.81-3.17,5.61-6.22,8.84-8.66,1.91-1.44,5.4-1.82,7.8-.84,1.71.7,2.73,2.28,3.63,3.68.31.48.6.93.87,1.28l.74.93-.47,1.1c-.25.58-.43,1.1-.59,1.55-.36,1.03-.71,1.99-1.45,2.79-2.79,3-5.68,6.1-8.88,8.9-1.47,1.29-3.13,1.93-4.78,1.93ZM50.19,201.5c-.92,0-1.9.2-2.38.57-2.94,2.23-5.48,5-8.26,8.12-1.39,1.56-1.32,3.15.2,4.72,1.06,1.09,2.72,2.03,4.66.34,3.04-2.67,5.86-5.69,8.58-8.62.18-.19.39-.78.61-1.4.08-.23.17-.47.26-.73-.14-.21-.28-.42-.41-.63-.55-.86-1.23-1.92-1.77-2.14-.39-.16-.93-.24-1.49-.24Z"/>
  </g>
  <g>
    <path class="cls-1" d="M207.2,52.64c-.59,1.64-.67,2.8-1.29,3.46-3.07,3.28-6.1,6.64-9.52,9.53-2.29,1.94-5.03,1.3-7.06-.91-1.92-2.1-2.24-4.75-.43-6.86,2.84-3.31,5.93-6.49,9.34-9.16,1.21-.95,3.97-.88,5.52-.16,1.53.71,2.42,2.81,3.44,4.11Z"/>
    <path class="cls-1" d="M193.43,68.78c-1.95,0-3.93-.92-5.58-2.71-2.67-2.91-2.86-6.74-.47-9.51,3.35-3.9,6.5-6.99,9.62-9.44,1.88-1.47,5.44-1.4,7.59-.4,1.61.74,2.6,2.29,3.39,3.54.28.43.54.84.78,1.15l.68.87-.37,1.04c-.19.53-.32,1-.44,1.42-.28,1-.54,1.95-1.28,2.74l-1.24,1.33c-2.65,2.84-5.4,5.78-8.44,8.36-1.29,1.09-2.76,1.63-4.25,1.63ZM200.97,49.99c-.68,0-1.27.11-1.49.28-2.92,2.29-5.88,5.19-9.06,8.89-1.51,1.76-.23,3.53.39,4.21.84.92,2.52,2.24,4.29.74,2.86-2.42,5.53-5.28,8.1-8.04l1.25-1.34c.08-.12.23-.65.35-1.07.06-.21.12-.44.19-.68-.12-.19-.25-.38-.37-.57-.51-.81-1.15-1.81-1.7-2.06-.55-.25-1.29-.36-1.96-.36Z"/>
  </g>
  <g>
    <path class="cls-1" d="M14.75,138.41c-1.88,0-3.76.09-5.63-.03-3.24-.21-5.11-2.16-5.31-5.27-.2-3.17,1.65-5.48,4.74-5.78,4.09-.4,8.26-.37,12.36-.05,3.12.24,4.88,2.45,4.98,5.62.09,3.01-2.23,5.27-5.51,5.48-1.87.12-3.75.02-5.63.02Z"/>
    <path class="cls-1" d="M18.26,140.46c-.63,0-1.25-.01-1.86-.02-.59,0-1.17-.01-1.76-.02-.55,0-1.1,0-1.65.02-1.3.02-2.64.04-3.99-.05-4.17-.27-6.92-3-7.18-7.13-.27-4.25,2.42-7.5,6.54-7.89,3.94-.38,8.22-.4,12.7-.05,4.02.31,6.69,3.28,6.82,7.55.12,4.09-2.98,7.26-7.38,7.53-.75.05-1.5.06-2.24.06ZM14.64,136.41h.12c.57,0,1.14.01,1.71.02,1.31.02,2.55.04,3.78-.03,2.23-.14,3.69-1.52,3.63-3.42-.05-1.57-.63-3.49-3.13-3.68-4.26-.33-8.3-.32-12.01.04-2,.19-3.07,1.53-2.93,3.66.14,2.15,1.26,3.26,3.44,3.4,1.19.08,2.4.06,3.67.04.57,0,1.14-.02,1.72-.02Z"/>
  </g>
  <g>
    <path class="cls-1" d="M228.52,138.41c-1.88,0-3.76.09-5.63-.02-3.25-.2-5.12-2.16-5.32-5.25-.21-3.16,1.63-5.49,4.73-5.79,4.09-.4,8.26-.37,12.36-.05,3.12.24,4.89,2.44,5,5.61.1,3-2.23,5.28-5.5,5.49-1.87.12-3.75.02-5.63.02Z"/>
    <path class="cls-1" d="M232.03,140.46c-.62,0-1.24-.01-1.85-.02-.59-.01-1.17-.02-1.76-.02-.56,0-1.11,0-1.67.02-1.3.02-2.64.04-3.99-.04-4.17-.25-6.93-2.98-7.2-7.12-.28-4.25,2.4-7.51,6.53-7.91,3.94-.38,8.21-.4,12.7-.06,4.01.31,6.7,3.27,6.84,7.54.14,4.09-2.96,7.27-7.37,7.55-.75.05-1.5.06-2.24.06ZM228.43,136.41h.09c.58,0,1.15.01,1.73.02,1.31.02,2.54.04,3.76-.04,2.2-.14,3.69-1.55,3.63-3.42-.05-1.57-.64-3.49-3.15-3.68-4.26-.33-8.3-.31-12.01.05-2,.19-3.06,1.53-2.92,3.66.14,2.15,1.27,3.26,3.45,3.39,1.2.07,2.41.05,3.69.04.58,0,1.15-.02,1.73-.02Z"/>
  </g>
  <g>
    <path class="cls-1" d="M127.19,25.68c0,2.12.19,4.27-.05,6.37-.32,2.85-2.14,4.48-4.99,4.67-3,.2-5.45-1.19-5.73-4.18-.42-4.45-.41-8.99-.03-13.44.25-2.98,2.62-4.52,5.62-4.35,2.99.17,4.87,1.91,5.17,4.94.2,1.98.04,4,.04,6,0,0-.02,0-.03,0Z"/>
    <path class="cls-1" d="M121.59,38.74c-3.97,0-6.81-2.35-7.16-6.02-.42-4.47-.43-9.12-.03-13.8.33-3.93,3.44-6.42,7.72-6.18,4.01.22,6.65,2.74,7.05,6.74.15,1.49.11,2.96.08,4.39-.01.6-.03,1.21-.03,1.81v1.73c0,.06,0,.13,0,.19.04,1.52.08,3.09-.09,4.68-.42,3.78-2.98,6.19-6.84,6.45-.23.02-.47.02-.69.02ZM121.59,16.73c-1.09,0-3.01.32-3.2,2.53-.38,4.45-.37,8.85.03,13.09.21,2.26,2.35,2.45,3.6,2.38,1.93-.13,2.93-1.05,3.14-2.9.15-1.32.11-2.68.07-4.13-.02-.67-.04-1.35-.04-2.02v-2h.06c.03-1.33.06-2.58-.06-3.8-.2-2.03-1.25-3.03-3.29-3.14-.09,0-.2,0-.31,0ZM127.19,25.68h0s0,0,0,0Z"/>
  </g>
  <g>
    <path class="cls-1" d="M55.88,61.77c-.85,1.11-1.71,3.3-3.22,3.93-1.67.7-4.51.71-5.83-.3-3.34-2.57-6.29-5.72-9.05-8.94-1.82-2.12-1.8-5.1.42-6.75,1.63-1.21,5.11-2.25,6.25-1.37,3.92,2.99,7.2,6.83,10.63,10.43.45.47.39,1.41.79,3Z"/>
    <path class="cls-1" d="M49.89,68.19c-1.58,0-3.18-.36-4.28-1.21-3.74-2.87-6.96-6.43-9.35-9.22-1.32-1.54-1.96-3.49-1.75-5.36.19-1.72,1.08-3.24,2.5-4.3,1.9-1.41,6.42-3.07,8.66-1.36,3.22,2.46,6.01,5.45,8.71,8.35.72.77,1.43,1.53,2.15,2.29.7.74.85,1.61,1.01,2.54.06.38.14.83.27,1.35l.23.93-.58.76c-.18.23-.39.59-.62.97-.77,1.29-1.73,2.89-3.42,3.59-.99.41-2.26.65-3.54.65ZM43.16,50.01c-.84,0-2.73.54-3.77,1.31-.53.4-.84.91-.91,1.53-.09.77.21,1.61.81,2.31,2.27,2.64,5.31,6.01,8.75,8.65.58.44,2.62.54,3.84.04.47-.19,1.1-1.25,1.52-1.95.11-.18.22-.36.32-.53-.05-.27-.1-.52-.14-.75-.04-.21-.08-.46-.11-.62-.68-.72-1.36-1.44-2.03-2.17-2.55-2.73-5.19-5.56-8.1-7.8-.06,0-.13-.01-.2-.01ZM53.64,60.15s0,0,0,0c0,0,0,0,0,0ZM53.46,59.88h0Z"/>
  </g>
  <g>
    <path class="cls-1" d="M193.05,198.51c1.83.92,3.23,1.3,4.19,2.16,2.51,2.26,4.92,4.65,7.19,7.14,2.26,2.47,2.21,5.58.16,7.79-2.21,2.37-5.41,2.53-8.04.14-2.5-2.26-5.15-4.52-7.04-7.26-1.09-1.57-1.5-4.35-.9-6.14.54-1.6,2.88-2.58,4.44-3.85Z"/>
    <path class="cls-1" d="M200.6,219.46c-1.86,0-3.76-.74-5.4-2.23l-.82-.74c-2.31-2.08-4.71-4.23-6.52-6.87-1.46-2.12-1.95-5.52-1.15-7.91.59-1.76,2.22-2.83,3.66-3.77.52-.34,1.02-.67,1.42-.99l1-.81,1.15.58c.59.3,1.13.53,1.62.75,1.1.48,2.13.93,3.01,1.72,2.57,2.32,5.04,4.77,7.33,7.28,2.89,3.17,2.95,7.49.14,10.5-1.54,1.66-3.48,2.49-5.45,2.49ZM193.27,200.82c-.24.16-.47.31-.71.47-.76.5-1.91,1.25-2.06,1.7-.4,1.18-.08,3.3.65,4.36,1.55,2.25,3.76,4.23,5.9,6.16l.83.75c1.77,1.6,3.73,1.6,5.24-.02,1.39-1.49,1.32-3.44-.17-5.08-2.21-2.42-4.58-4.77-7.05-7-.39-.35-1.07-.65-1.93-1.02-.22-.1-.46-.2-.7-.31Z"/>
  </g>
  <g>
    <path class="cls-1" d="M138.15,173.96c-3.19,12.15-6.84,15.41-16.46,15.41-9.6,0-13.23-3.27-16.36-15.27-5.24,3.5-10.82,6.64-16.9,3.22-3.18-1.79-6.15-4.48-8.32-7.43-4.74-6.45-2.75-12.75,2.5-19.1-11.72-1.32-16.68-7.69-15.71-18.69.8-9.03,6.44-13.02,15.81-13.85-8.29-9.82-6.02-17.8,2.56-24.87,5.35-4.41,9.51-4.2,20.16,1.34,1.24-12.26,8.71-16.56,19.98-15.06,8.26,1.1,11.58,7.02,12.48,15.36,1.45-.92,2.35-1.44,3.19-2.04,5.73-4.12,12.31-3.81,17.58.86,4.8,4.25,8.64,8.98,6.77,15.98-.53,2-1.64,3.92-2.82,5.64-1.49,2.17-1.21,3,1.46,3.33,6.22.77,10.59,4.12,11.91,10.34,1.42,6.74,1.36,13.55-4.95,18.09-2.62,1.88-6.07,2.59-9.62,4.03,6.24,7.88,6.19,15.39-1.54,22.67-7.23,6.81-14.26,5.68-21.72.02M165.24,134.55c.21-2.69-.42-4.2-3.52-4.64-10.5-1.49-14.8-12-8.47-20.63,1.86-2.53.99-3.92-.8-5.74-1.82-1.84-3.16-2.58-5.68-.68-8.52,6.44-18.97,2.04-20.49-8.56-.44-3.08-2.06-3.51-4.63-3.51-2.62,0-4.08.53-4.49,3.61-1.38,10.3-12.07,14.86-20.3,8.62-2.59-1.97-3.99-1.37-6,.58-2.1,2.05-2.31,3.52-.43,6.02,6.06,8.05,1.58,18.82-8.42,20.24-3.19.45-3.86,1.8-3.91,4.63-.05,3,1.04,4.16,4.04,4.58,9.77,1.36,14.27,11.97,8.46,19.98-1.68,2.31-2.17,3.76.07,6.04,2.36,2.41,3.99,2.33,6.66.38,7.74-5.64,18.49-1.06,19.76,8.46.44,3.32,1.77,4.18,4.8,4.19,3.02,0,4.06-1.2,4.45-4.17,1.25-9.49,11.98-14.1,19.75-8.48,2.43,1.76,4.04,2.28,6.39-.1,2.23-2.26,2.21-3.8.32-6.36-5.84-7.91-1.24-18.61,8.52-19.95,3.02-.41,4.31-1.63,3.91-4.52Z"/>
    <path class="cls-1" d="M121.7,191.37h0c-9.89,0-14.29-3.37-17.55-14.11-4.29,2.66-10.31,5.4-16.69,1.8-3.39-1.91-6.57-4.75-8.95-7.98-4.27-5.82-4.11-12,.53-18.85-10.23-2.26-15.09-9.22-14.12-20.3.75-8.5,5.39-13.49,14.15-15.18-2.63-3.91-3.8-7.76-3.46-11.46.43-4.73,3.18-9.13,8.4-13.44,6.12-5.04,11.34-4.31,19.86-.15.94-4.77,2.96-8.4,6.02-10.82,3.8-3,9.12-4.07,15.8-3.18,7.55,1.01,12.07,5.61,13.73,14.02.18-.12.34-.23.51-.35,6.46-4.64,14.15-4.26,20.07.99,4.87,4.32,9.56,9.83,7.38,17.99-.52,1.95-1.51,3.93-3.11,6.26-.05.07-.09.13-.13.19.06,0,.12.02.19.03,7.35.92,12.19,5.15,13.62,11.91,1.26,5.96,2.03,14.53-5.74,20.12-2.01,1.45-4.32,2.24-6.76,3.07-.28.1-.57.19-.86.29,5.4,8.2,4.28,15.99-3.33,23.16-6.7,6.32-13.9,6.92-21.94,1.81-3.3,10.78-7.72,14.17-17.61,14.17ZM106.55,170.88l.71,2.72c3.08,11.78,6.3,13.77,14.43,13.77h.01c8.15,0,11.39-2.01,14.52-13.92l.76-2.89,2.38,1.81c7.48,5.67,13.21,5.71,19.14.11,6.71-6.32,7.13-12.67,1.34-19.97l-1.66-2.09,2.48-1c1.19-.48,2.36-.88,3.48-1.26,2.25-.77,4.19-1.43,5.72-2.53,4.59-3.31,5.84-8.11,4.16-16.05-1.08-5.11-4.51-8.06-10.2-8.77-.92-.11-3.08-.38-3.86-2.12-.78-1.74.42-3.49,1-4.33,1.31-1.91,2.14-3.55,2.54-5.03,1.52-5.71-1.36-9.71-6.17-13.97-4.58-4.06-10.08-4.33-15.08-.74-.6.43-1.21.81-1.97,1.28-.39.24-.82.51-1.31.82l-2.72,1.73-.35-3.2c-.92-8.53-4.24-12.72-10.76-13.59-5.57-.74-9.87.05-12.79,2.35-2.77,2.19-4.43,5.86-4.94,10.92l-.3,2.93-2.62-1.36c-10.5-5.46-13.56-5.21-17.97-1.57-4.36,3.59-6.64,7.09-6.96,10.71-.32,3.53,1.21,7.23,4.66,11.32l2.49,2.94-3.84.34c-9.02.8-13.33,4.51-14,12.03-.89,10.11,3.54,15.36,13.94,16.53l3.68.41-2.36,2.85c-5.37,6.49-6.12,11.62-2.43,16.64,2.02,2.75,4.82,5.25,7.69,6.87,5.07,2.85,9.9.14,14.81-3.14l2.34-1.56ZM121.9,180.12h0c-4.2,0-6.23-1.77-6.78-5.92-.5-3.76-2.84-6.88-6.25-8.34-3.42-1.46-7.28-1-10.34,1.23-3.6,2.62-6.28,2.45-9.27-.6-3.45-3.52-1.94-6.29-.26-8.61,2.32-3.2,2.84-7.14,1.39-10.55-1.44-3.39-4.62-5.74-8.5-6.28-4.05-.56-5.83-2.6-5.76-6.59.05-3.01.77-5.89,5.63-6.58,4-.56,7.24-2.97,8.67-6.43,1.43-3.45.84-7.42-1.57-10.62-2.45-3.25-2.26-5.84.63-8.65,2.18-2.12,4.73-3.69,8.6-.75,3.3,2.51,7.19,3.12,10.65,1.68,3.48-1.45,5.9-4.8,6.45-8.97.63-4.71,3.63-5.35,6.48-5.35,1.9,0,5.86,0,6.61,5.23.62,4.37,2.98,7.7,6.46,9.14,3.44,1.42,7.38.73,10.84-1.88,3.74-2.83,6.2-1.26,8.3.87,1.43,1.44,4.08,4.12,1,8.33-2.62,3.57-3.28,7.63-1.81,11.13,1.44,3.42,4.7,5.73,8.94,6.33,4.97.7,5.41,4.03,5.25,6.57.21,1.76-.1,3.16-.94,4.27-1.24,1.64-3.28,2.09-4.71,2.29-3.9.54-7.1,2.91-8.56,6.36-1.44,3.4-.92,7.3,1.38,10.42,2.53,3.43,2.38,6.02-.51,8.95-3.45,3.5-6.36,2.22-8.99.32-3.08-2.22-6.95-2.67-10.37-1.2-3.4,1.47-5.73,4.58-6.22,8.32-.36,2.75-1.42,5.91-6.43,5.91ZM104.77,161.01c1.91,0,3.83.39,5.67,1.17,4.72,2.02,7.96,6.32,8.65,11.49.3,2.25.73,2.45,2.82,2.45h.01c1.76,0,2.16-.21,2.45-2.43.68-5.15,3.89-9.44,8.61-11.47,4.72-2.04,10.07-1.43,14.3,1.63,2.13,1.54,2.49,1.44,3.8.12,1.42-1.43,1.55-1.84.14-3.77-3.15-4.27-3.84-9.63-1.84-14.35,2.01-4.76,6.38-8.04,11.7-8.77,1.46-.2,1.92-.55,2.07-.74.19-.25.24-.79.14-1.52l-.03-.21.02-.22c.15-1.98-.05-2.26-1.8-2.51-5.67-.8-10.07-3.99-12.07-8.74-2-4.76-1.16-10.38,2.27-15.05.94-1.29.97-1.54-.61-3.14-1.48-1.5-1.68-1.53-3.05-.49-4.61,3.49-9.99,4.36-14.77,2.39-4.76-1.96-8.08-6.54-8.9-12.27-.22-1.54-.42-1.79-2.65-1.79-2.05,0-2.28.18-2.51,1.88-.75,5.59-4.07,10.13-8.88,12.13-4.75,1.98-10.2,1.16-14.61-2.18-1.53-1.16-1.81-1.12-3.39.42-1.38,1.34-1.51,1.68-.23,3.39,3.27,4.35,4.04,9.79,2.07,14.56-1.98,4.78-6.4,8.1-11.81,8.86-1.94.27-2.15.53-2.19,2.68-.03,1.84.16,2.26,2.31,2.56,5.28.73,9.63,3.98,11.63,8.67,2.01,4.71,1.32,10.12-1.83,14.46-1.44,1.98-1.34,2.22-.12,3.46,1.57,1.6,2.06,1.62,4.06.16,2.58-1.88,5.58-2.85,8.61-2.85Z"/>
  </g>
  <g>
    <path class="cls-1" d="M102.17,134.53c-.02-10.92,8.59-19.62,19.46-19.65,10.86-.03,19.65,8.65,19.69,19.47.04,10.77-8.78,19.7-19.51,19.76-10.74.05-19.62-8.8-19.64-19.58ZM121.81,126.22c-4.67-.04-8.34,3.59-8.33,8.24.01,4.61,3.8,8.39,8.34,8.32,4.37-.07,8.07-3.75,8.19-8.14.12-4.57-3.59-8.37-8.2-8.41Z"/>
    <path class="cls-1" d="M121.71,156.1c-5.67,0-11.04-2.23-15.12-6.28-4.13-4.1-6.41-9.53-6.42-15.29h0c-.02-12.11,9.4-21.62,21.46-21.65h.06c11.89,0,21.59,9.62,21.63,21.46.05,11.94-9.6,21.7-21.5,21.76h-.11ZM121.68,116.88h-.05c-9.81.03-17.48,7.78-17.47,17.65h0c0,4.69,1.87,9.11,5.23,12.46,3.35,3.33,7.77,5.14,12.39,5.12,9.7-.05,17.56-8.01,17.52-17.75-.04-9.65-7.95-17.48-17.63-17.48ZM121.69,144.77c-2.65,0-5.17-1.04-7.1-2.94-2-1.97-3.11-4.59-3.12-7.38,0-2.78,1.05-5.36,2.98-7.28,1.94-1.93,4.57-2.97,7.36-2.96h0c2.79.02,5.39,1.14,7.32,3.14,1.92,1.98,2.93,4.58,2.86,7.32-.14,5.48-4.7,10.01-10.15,10.09-.05,0-.11,0-.16,0ZM121.73,128.21c-1.71,0-3.28.64-4.45,1.8-1.17,1.16-1.81,2.74-1.8,4.43,0,1.71.69,3.32,1.92,4.53,1.2,1.18,2.75,1.84,4.39,1.79,3.28-.05,6.13-2.89,6.22-6.2.04-1.66-.57-3.23-1.74-4.44-1.18-1.22-2.77-1.91-4.48-1.92h-.06Z"/>
  </g>
</svg>