<?xml version="1.0" encoding="UTF-8"?>
<svg id="Capa_1" data-name="Capa 1" xmlns="http://www.w3.org/2000/svg" version="1.1" viewBox="0 0 343.07 409.6">
  <defs>
    <style>
      .cls-1 {
        fill: #fff;
        stroke-width: 0px;
      }
    </style>
  </defs>
  <path class="cls-1" d="M307.54,409.6H35.51c-2.94-1.82-5.07-4.19-3.83-7.87,1.22-3.65,4.34-4.27,7.79-4.17,3.26.1,6.53.02,10.09.02,0-4.18,0-7.76,0-11.34,0-13.48,0-13.59,13.59-13.41,3.33.04,4.77-.85,5.72-4.21,15.22-53.77,30.61-107.49,45.9-161.24.61-2.14.93-4.44.94-6.67.08-17.19.04-34.39.04-51.58v-4.26H45.38v12.57c3.26,0,6.18-.06,9.09.01,4.73.12,6.96,2.08,7.06,6.77.17,7.73.17,15.46,0,23.19-.11,4.61-2.43,6.8-7.08,6.85-10.26.11-20.53.1-30.79,0-4.88-.05-7.19-2.32-7.26-7.11-.11-7.6-.12-15.2,0-22.79.07-4.67,2.29-6.78,6.93-6.91,3.14-.09,6.29-.02,9.46-.02v-12.83c-6.87,0-13.51.01-20.14,0-2.4,0-4.81.1-7.19-.18-2.91-.33-4.98-1.94-5.39-5.02-.43-3.21,1.04-5.39,4.01-6.56.99-.39,2.03-.63,3.06-.92,34.93-9.99,69.84-20.01,104.8-29.88,3.02-.85,3.91-2.13,3.88-5.2-.16-15.86-.07-31.72-.08-47.58,0-1.28-.15-2.55-.23-3.9H45.25v12.58c3.09,0,5.99-.08,8.88.02,5.21.18,7.33,2.16,7.43,7.32.14,7.33.12,14.66.01,21.99-.08,5.39-2.19,7.52-7.59,7.57-10,.1-20,.1-29.99,0-5.55-.06-7.58-2.27-7.62-7.95-.05-6.93-.04-13.86,0-20.79.03-6.06,2.07-8.06,8.23-8.16,2.73-.04,5.46,0,8.14,0v-12.84c-1.73,0-3.18,0-4.62,0-7.2,0-14.4.03-21.59-.04-3.45-.03-5.99-1.48-6.46-5.19-.46-3.68,1.65-5.68,4.9-6.76.63-.21,1.29-.33,1.93-.51,26.87-7.68,53.74-15.33,80.59-23.06C98.2,6.47,108.84,3.19,119.52,0c34.67,0,69.34,0,104.01,0,.82.37,1.61.84,2.47,1.09,23.92,6.86,47.84,13.69,71.77,20.53,13.31,3.8,26.62,7.57,39.92,11.39,3.4.98,5.77,2.97,5.28,6.88-.49,3.95-3.28,5.19-6.85,5.22-3.2.03-6.4.01-9.6.02-5.42,0-10.85,0-16.26,0v12.84c3.16,0,6.07-.08,8.98.02,5.17.18,7.35,2.29,7.41,7.34.09,7.46.1,14.93,0,22.39-.06,4.7-2.16,7.03-6.8,7.1-10.53.17-21.06.16-31.59,0-4.52-.07-6.63-2.21-6.74-6.72-.18-7.73-.18-15.46-.01-23.19.1-4.71,2.25-6.7,7-6.91,3.02-.14,6.06-.03,9.19-.03v-12.54h-69.95c-.2.56-.37.8-.37,1.05-.04,17.33-.11,34.65.03,51.98,0,1.07,1.47,2.73,2.59,3.09,6.33,2.04,12.75,3.79,19.15,5.61,29.05,8.29,58.09,16.58,87.14,24.87,5.3,1.51,7.23,3.65,6.71,7.4-.5,3.59-3.1,5.18-8.59,5.2-4.93.02-9.86,0-14.8,0-3.13,0-6.25,0-9.31,0v12.3c.4.23.51.35.62.35,2.93.06,5.86.08,8.78.18,4.65.16,6.87,2.25,6.94,6.91.12,7.6.11,15.2,0,22.79-.07,4.65-2.3,7.03-6.85,7.09-10.53.13-21.06.13-31.59,0-4.24-.05-6.54-2.22-6.65-6.42-.21-7.99-.22-16,0-23.99.12-4.43,2.39-6.26,7.01-6.38,3.02-.08,6.05-.01,9.15-.01v-12.54h-70.2c-.08.92-.2,1.57-.2,2.21-.01,18.39-.03,36.79.02,55.18,0,1.56.39,3.17.82,4.69,14.89,52.2,29.81,104.4,44.72,156.59q2.62,9.15,11.8,9.17c7.04.02,8.76,1.71,8.8,8.69.03,5.3,0,10.6,0,16.14,3.71,0,6.9.08,10.09-.02,3.45-.11,6.57.51,7.79,4.16,1.22,3.67-.87,6.06-3.83,7.87ZM244.61,372.76c-1.33-.98-1.62-1.27-1.97-1.44-22.97-11.49-45.93-23.02-68.97-34.36-1.33-.65-3.63-.35-5.05.36-22.32,11.01-44.57,22.16-66.83,33.29-.86.43-1.65,1.02-3.45,2.15,2.74,0,4.29,0,5.85,0,8.13,0,16.26-.07,24.39.06,3.76.06,6.2,2.61,6.19,5.95-.01,3.2-2.27,5.55-5.83,5.95-1.19.13-2.4.06-3.6.06-19.73,0-39.46,0-59.18,0h-4.36v12.49h219.38v-12.49h-4.57c-39.19,0-78.38,0-117.57-.02-1.72,0-3.52.01-5.13-.46-2.9-.86-4.79-3.18-3.89-6.03.65-2.05,2.73-3.86,4.59-5.22.98-.72,2.84-.28,4.3-.28,26.79,0,53.58,0,80.38,0,1.41,0,2.82,0,5.32,0ZM100.77,300.38c-6.39,22.36-12.63,44.16-19.12,66.86,25.8-12.9,50.78-25.38,76.4-38.19-19.38-9.7-38.03-19.03-57.28-28.67ZM261.39,367.24c-6.55-22.89-12.79-44.69-19.13-66.86-19.3,9.66-38.03,19.03-57.29,28.67,25.65,12.81,50.62,25.29,76.42,38.18ZM226.63,285.5c-18.47-12.93-35.9-25.19-53.46-37.26-.9-.62-3.24-.09-4.37.69-16.44,11.36-32.79,22.85-49.16,34.32-.79.55-1.48,1.23-2.69,2.25h109.68ZM128.01,132.26h86.97v-20.65h-86.97v20.65ZM142.04,45.39c24.8,16.54,48.61,32.41,72.85,48.57v-48.57h-72.85ZM215.06,12.28h-87.01v20.47h87.01V12.28ZM127.96,98.93h72.73c-24.63-16.41-48.45-32.27-72.73-48.45v48.45ZM215.02,144.86h-72.87c24.74,16.49,48.52,32.34,72.87,48.57v-48.57ZM128,149.9v48.51h72.79c-24.72-16.47-48.46-32.3-72.79-48.51ZM161.03,239.58c-12.01-8.41-23.65-16.56-35.73-25.01-5.96,20.81-11.79,41.19-17.91,62.55,18.3-12.81,35.79-25.05,53.64-37.54ZM217.75,214.55c-12.16,8.52-23.78,16.66-35.74,25.03,17.85,12.49,35.3,24.7,53.6,37.51-6.11-21.4-11.91-41.67-17.87-62.55ZM218.87,298.63c-.09-.19-.19-.37-.28-.56h-94.23c15.1,8.22,30.3,15.87,45.58,23.37,1.03.51,2.83.15,3.98-.4,8.75-4.24,17.42-8.63,26.11-12.98,6.28-3.14,12.56-6.28,18.83-9.43ZM51.45,131.76c.04.19.09.38.13.57h63.96v-18.87c-21.56,6.16-42.82,12.23-64.09,18.3ZM291.45,132.33c.05-.19.1-.38.15-.57-21.26-6.07-42.53-12.15-64.1-18.31v18.87h63.95ZM142.64,211c-.09.27-.18.55-.27.82,9.24,6.47,18.45,12.99,27.8,19.31.77.52,2.74.03,3.71-.63,7.71-5.24,15.31-10.64,22.94-16,1.33-.94,2.64-1.91,4.85-3.51h-59.02ZM52.36,32.1c.03.24.05.47.08.71h63V14.09c-21.3,6.08-42.19,12.05-63.08,18.01ZM227.51,32.72h63.08l.07-.63c-20.96-5.98-41.91-11.95-63.16-18.01v18.64ZM49.27,169.79h-20.65v12.29h20.65v-12.29ZM314.53,169.66h-20.76v12.28h20.76v-12.28ZM49.32,70.37h-20.65v12.2h20.65v-12.2ZM314.45,70.38h-20.64v12.21h20.64v-12.21Z"/>
</svg>