<?xml version="1.0" encoding="UTF-8"?>
<svg id="Capa_1" data-name="Capa 1" xmlns="http://www.w3.org/2000/svg" version="1.1" viewBox="0 0 410.83 361.01">
  <defs>
    <style>
      .cls-1 {
        fill: #fff;
        stroke-width: 0px;
      }
    </style>
  </defs>
  <path class="cls-1" d="M0,194.94c8.26-15.09,16.4-30.24,24.8-45.25,12.72-22.73,25.61-45.36,38.44-68.03,7.25-12.81,17.79-15.8,30.69-8.71,5.62,3.09,11.23,6.19,16.83,9.32,11.57,6.45,14.82,14.41,10.89,27.61,6.33,1.86,12.67,3.75,19.03,5.52.6.17,1.59-.25,2.12-.71,8.54-7.52,19.16-9.11,29.82-10.23,13.29-1.4,26.63-2.27,39.94-3.54,8.07-.77,15.65,1.03,23.14,3.7,9.17,3.28,18.3,6.71,27.58,9.67,2.75.88,6.06,1,8.9.43,5.7-1.15,11.25-3.03,15.74-4.29,0-5.1-.46-9.46.11-13.69.77-5.74,4.25-10.03,9.27-12.89,7.19-4.1,14.41-8.16,21.73-12.04,10.24-5.42,21.49-2.21,27.37,7.79,4.06,6.91,49.96,87.91,53.84,94.92,2.7,4.87,1.68,9.5-2.45,11.86-4.12,2.36-8.69.87-11.46-3.91-3.81-6.59-49.48-87.26-53.27-93.86-2.18-3.8-3.61-4.21-7.47-2.1-6.33,3.45-12.59,7.04-18.94,10.45-3.26,1.75-3.93,3.89-2.06,7.18,20.22,35.67,40.39,71.38,60.53,107.09,1.81,3.2,4.07,3.96,7.27,2.18,6.42-3.57,12.84-7.14,19.29-10.66,3.27-1.78,3.77-4.07,1.9-7.27-4.23-7.27-8.34-14.62-12.45-21.96-2.91-5.2-2.05-9.75,2.2-12.22,4.25-2.47,8.71-.9,11.66,4.22,4.39,7.64,8.81,15.27,13.04,23.01,5.76,10.55,2.49,21.91-7.98,27.9-6.26,3.58-12.6,7.02-18.92,10.5-12.33,6.78-23.17,3.79-30.28-8.34-.33-.57-.69-1.13-1.22-2-5.45,2.15-10.01,5.45-13.72,9.87-.47.56-.47,2.16-.01,2.75,11.72,14.98,3.36,39.43-17.88,42.92-.11.02-.2.17-.28.24-1.81,18.05-7.22,24.78-23.94,29.51.37,9.33-2.56,17.52-10.08,23.55-7.53,6.05-16.15,7.26-25.55,4.75-3.66,11.87-10.99,19.48-23.51,21.29-12.49,1.8-20.78-5.96-29.23-13.04-7.42,5.92-14.41,11.93-21.83,17.34-15.48,11.28-37.19,3.47-41.92-14.95-.75-2.93-.83-6.04-1.27-9.5-6.71-1.27-12.84-4.26-17.38-9.95-4.54-5.69-6.34-12.25-5.89-19.35-17.44-5.71-23.26-12.95-23.88-29.67-1.04-.32-2.15-.7-3.28-1.01-18.13-4.92-26.03-25.16-15.74-40.84,1.66-2.53,1.41-4.06-.7-5.66-3.87-2.95-7.79-5.84-11.9-8.91-1.38,2.24-2.24,3.73-3.18,5.17-5.67,8.72-16.41,12.01-25.66,7.37-7.99-4.01-15.72-8.55-23.51-12.95C4.35,212.74,2.07,207.91,0,202.97,0,200.29,0,197.62,0,194.94ZM113.28,124.25c-14.74,26.09-29.37,51.96-43.69,77.3,6.69,5.22,12.96,10.1,19.54,15.22,6.69-5.33,13.76-11.2,21.09-16.75,14.83-11.24,35.35-5.17,41.89,12.25.36.95.77,1.87,1.21,2.94,12.38-3.91,23.16-1.74,31.28,8.36,8.25,10.26,7.5,21.4,1.22,32.54,7.39,4.08,12.37,9.78,14.37,17.75,1.99,7.93.28,15.31-3.97,22.31,9.99,5.66,15.22,13.9,15.33,25.23,0,.8.57,1.83,1.2,2.34,4.25,3.46,8.39,7.09,12.94,10.12,6.19,4.12,14.48.77,16.29-6.35,1.17-4.6-.34-8.44-3.96-11.43-3.81-3.15-7.78-6.12-11.5-9.36-3.03-2.64-3.61-6.54-1.84-9.83,1.71-3.18,5.33-4.96,8.82-3.92,1.73.52,3.35,1.63,4.8,2.76,6.83,5.36,13.57,10.84,20.38,16.24,5.96,4.73,12.62,4.39,16.66-.79,3.99-5.11,2.86-11.46-2.86-16.14-1.24-1.02-2.5-2.01-3.75-3.01-6.15-4.93-12.4-9.76-18.42-14.84-3.65-3.07-3.94-7.64-1.16-11.09,2.76-3.43,7.22-3.99,11.11-1.31,1.54,1.06,2.95,2.3,4.42,3.46,6.38,5.07,12.63,10.33,19.18,15.17,7.1,5.25,16.62,1.03,17.45-7.56.42-4.39-1.62-7.68-4.98-10.34-6.71-5.31-13.45-10.57-20.03-16.04-5.27-4.39-4.34-11.63,1.65-13.96,3.35-1.31,6.22-.26,8.91,1.91,6.65,5.38,13.29,10.77,20.06,15.99,6.55,5.06,15.21,2.6,17.63-4.84,1.47-4.5.07-8.86-4.29-12.39-9.56-7.73-19.05-15.56-28.85-22.98-18.64-14.12-37.36-28.11-56.26-41.88-10.94-7.98-23.27-10.94-36.81-8.63-6.3,1.08-12.7,2.22-19.06,2.28-23.7.2-38.68-12.73-42.26-32.04-.19-1.04-1.71-2.26-2.86-2.62-6.75-2.11-13.57-3.98-20.87-6.08ZM297.6,124.4c-7.38,2.07-14.2,3.93-20.99,5.91-6.39,1.87-12.56,1.55-18.83-.8-9.74-3.66-19.54-7.21-29.46-10.32-4.38-1.38-9.17-2.42-13.69-2.17-13.87.78-27.72,2.07-41.53,3.55-5.13.55-10.27,1.79-15.18,3.4-5.25,1.72-6,3.98-4.26,9.3,2.43,7.45,7.53,12.12,14.98,14.31,6.84,2.01,13.81,1.91,20.63.36,21.57-4.91,41.02-.58,58.69,12.58,10.39,7.74,21.07,15.11,31.37,22.97,14.43,11.02,28.62,22.35,42.46,33.19,6.51-5.05,12.87-9.99,19.46-15.1-14.42-25.51-29-51.28-43.64-77.18ZM42.11,214.85c1.2-1.23,2.74-2.29,3.58-3.76,20.16-35.52,40.25-71.08,60.34-106.65,2.26-4.01,1.84-5.4-2.24-7.69-6.17-3.46-12.36-6.89-18.58-10.26-3.85-2.08-5.3-1.67-7.46,2.14-20.19,35.66-40.35,71.34-60.56,106.98-1.86,3.28-1.14,5.47,2.08,7.21,6.34,3.43,12.61,6.98,18.94,10.44,1.03.56,2.18.89,3.91,1.58ZM174.48,242.15c-.15-6.32-2.15-9.63-6.07-11.57-4.08-2.02-8.1-1.52-11.66,1.3-14.33,11.38-28.66,22.75-42.89,34.26-5.07,4.1-5.82,10.58-2.17,15.33,3.76,4.9,10.43,5.82,15.66,1.71,14.38-11.31,28.72-22.69,42.83-34.33,2.34-1.93,3.46-5.34,4.3-6.7ZM184.98,282.32c-.18-6.2-2.08-9.55-6-11.52-4.25-2.14-8.32-1.5-11.99,1.4-9.83,7.79-19.66,15.58-29.39,23.49-5.2,4.23-5.94,10.76-2.04,15.61,3.77,4.69,10.27,5.55,15.37,1.58,10-7.78,19.96-15.63,29.64-23.81,2.33-1.97,3.51-5.31,4.41-6.74ZM97.71,256.13c.89-.31,3.2-.57,4.76-1.78,10.73-8.36,21.43-16.76,31.86-25.49,4.28-3.59,4.25-10.26.76-14.5-3.4-4.13-9.72-5.53-14.05-2.23-10.91,8.33-21.63,16.93-32.17,25.74-3.59,3-4.03,7.46-2.16,11.78,1.81,4.18,5.17,6.3,10.99,6.48ZM195.5,322.31c-.29-5.87-1.99-9.17-5.75-11.19-4.04-2.17-8.06-1.95-11.67.82-5.83,4.47-11.62,9-17.23,13.74-4.73,4-5.31,10.51-1.72,15.09,3.76,4.79,10.21,5.67,15.37,1.76,5.75-4.35,11.49-8.76,16.82-13.6,2.19-1.99,3.3-5.18,4.17-6.62Z"/>
  <path class="cls-1" d="M197.38,28.43c0-6.42-.04-12.83.01-19.25.04-5.53,3.18-9.12,7.91-9.18,4.73-.06,8.09,3.55,8.11,8.98.05,12.97.05,25.93,0,38.9-.02,5.45-3.37,9.06-8.11,9-4.67-.06-7.87-3.73-7.91-9.2-.05-6.42-.01-12.83-.01-19.25Z"/>
  <path class="cls-1" d="M159.85,65.01c-.23,4.68-2.11,7.27-5.66,8.38-3.77,1.18-6.91-.12-9.05-3.35-3.1-4.67-6.02-9.47-9.02-14.22-3.92-6.21-7.88-12.41-11.75-18.66-2.93-4.73-2.18-9.43,1.78-12.01,3.94-2.57,8.72-1.31,11.66,3.3,6.82,10.7,13.58,21.45,20.27,32.23.95,1.53,1.39,3.37,1.77,4.32Z"/>
  <path class="cls-1" d="M251.06,64.64c.28-.68.72-2.38,1.61-3.81,6.7-10.78,13.44-21.53,20.25-32.24,2.99-4.69,7.6-6,11.61-3.5,4.02,2.5,4.9,7.3,2,11.95-6.78,10.89-13.63,21.73-20.5,32.56-2.15,3.4-5.25,4.93-9.25,3.87-3.52-.93-5.77-4.12-5.72-8.83Z"/>
</svg>